<?xml version="1.0" encoding="utf-8"?>
<svg width="32px" height="32px" viewBox="0 0 32 32" version="1.1" xmlns:xlink="http://www.w3.org/1999/xlink" xmlns="http://www.w3.org/2000/svg">
  <desc>Created with Lunacy</desc>
  <defs>
    <path d="M16 32C24.8366 32 32 24.8366 32 16C32 7.16344 24.8366 0 16 0C7.16344 0 0 7.16344 0 16C0 24.8366 7.16344 32 16 32Z" id="path_1" />
    <clipPath id="clip_1">
      <use xlink:href="#path_1" />
    </clipPath>
  </defs>
  <g id="Logo/LNR-Filled-Copy-12">
    <g id="Setup/Icon-Button/Outline">
      <path d="M16 32C24.8366 32 32 24.8366 32 16C32 7.16344 24.8366 0 16 0C7.16344 0 0 7.16344 0 16C0 24.8366 7.16344 32 16 32Z" id="Oval" fill="#FFFFFF" stroke="none" />
    </g>
    <g id="Logo/Crypto/ETH" transform="translate(6.4 6.4)">
      <path d="M0 8L4.77396 0L9.54792 8L4.77396 10.9231L0 8ZM4.8 12.0714L0.536647 9.6L4.8 15.4311L8.92287 9.6L4.8 12.0714Z" transform="translate(4.8 1.6)" id="Combined-Shape" fill="#3C3A3E" fill-rule="evenodd" stroke="none" />
    </g>
    <g id="Setup/Icon-Button/Outline-Copy">
      <g id="Oval">
        <g clip-path="url(#clip_1)">
          <use xlink:href="#path_1" fill="none" stroke="#DEDDDE" stroke-width="2" />
        </g>
      </g>
    </g>
  </g>
</svg>