<?xml version="1.0" encoding="utf-8"?>
<svg width="32px" height="32px" viewBox="0 0 32 32" version="1.1" xmlns:xlink="http://www.w3.org/1999/xlink" xmlns="http://www.w3.org/2000/svg">
  <desc>Created with Lunacy</desc>
  <g id="Logo/LNR-Filled-Copy-12">
    <g id="Bitcoin">
      <path d="M31.5211 19.8706C29.3839 28.442 20.7014 33.6585 12.128 31.521C3.55811 29.384 -1.65895 20.7021 0.479281 12.1312C2.61551 3.55876 11.2979 -1.65819 19.8688 0.478793C28.4418 2.61577 33.6583 11.2987 31.5211 19.8706Z" id="Path" fill="#F7931A" stroke="none" />
      <path d="M11.6659 4.05547C13.8669 4.80912 15.4765 5.93885 15.1603 8.04037C14.9314 9.57876 14.0734 10.3235 12.9344 10.5846C14.4984 11.394 15.2943 12.6353 14.5362 14.7872C13.5953 17.4597 11.36 17.6853 8.38745 17.1261L7.66603 20L5.9228 19.5681L6.63479 16.7327C6.18297 16.6212 5.72122 16.5027 5.24557 16.3744L4.5311 19.2232L2.78986 18.7913L3.51128 15.912C3.10415 15.8083 2.69056 15.6982 2.26853 15.5931L0 15.031L0.865408 13.0474C0.865408 13.0474 2.14987 13.387 2.13249 13.3618C2.62601 13.4832 2.84497 13.1634 2.93136 12.9502L4.07134 8.40708C4.13539 8.42238 4.19745 8.43817 4.25554 8.45248C4.18603 8.42485 4.12298 8.40708 4.07432 8.39474L4.88759 5.15164C4.90894 4.78346 4.78134 4.31903 4.07531 4.14382C4.10262 4.12556 2.80922 3.83091 2.80922 3.83091L3.27296 1.98011L5.67703 2.57681L5.67505 2.58569C6.0365 2.67502 6.40888 2.75991 6.78821 2.84579L7.50268 0L9.24492 0.431854L8.54485 3.22187C9.01255 3.32799 9.48324 3.43509 9.94151 3.5486L10.6366 0.776843L12.3798 1.2087L11.6659 4.05547ZM7.49322 8.8028C8.67914 9.1174 11.2659 9.80362 11.7165 8.00928C12.1767 6.17393 9.66249 5.62067 8.43462 5.35047C8.2965 5.32008 8.17466 5.29327 8.07515 5.26861L7.20726 8.72838C7.28924 8.74869 7.38545 8.77421 7.49322 8.8028ZM11.1773 13.5923C10.6831 15.5665 7.57433 14.7503 6.15193 14.3769C6.02395 14.3433 5.90963 14.3132 5.81208 14.2892L6.76935 10.4745C6.88812 10.504 7.03324 10.5364 7.19763 10.5731C8.66881 10.9012 11.6838 11.5737 11.1773 13.5923Z" transform="translate(8 5.6)" id="Shape" fill="#FFFFFF" fill-rule="evenodd" stroke="none" />
    </g>
  </g>
</svg>