<svg xmlns="http://www.w3.org/2000/svg" width="20" height="20" viewBox="0 0 20 20">
    <g fill="none" fill-rule="evenodd">
        <g fill="#c1c1c1">
            <g>
                <g>
                    <g>
                        <path d="M23.886 21.594l2.261 2.259h-.001L20 30l-6.144-6.144-.003-.003 2.263-2.257L20 25.48l3.886-3.886zM20 17.705L22.293 20h.001v.002L20 22.294l-2.291-2.29-.003-.004.003-.003.401-.402.195-.195L20 17.706zm7.74.036L30 20l-2.26 2.26L25.48 20l2.26-2.26zm-15.48-.001L14.52 20l-2.26 2.26L10 20l2.26-2.26zM20 10l6.146 6.146-2.26 2.26L20 14.52l-3.884 3.884-2.26-2.26L20 10z" transform="translate(-636 -1915) translate(586 1831) translate(0 74) translate(40)"/>
                    </g>
                </g>
            </g>
        </g>
    </g>
</svg>
