<?xml version="1.0" encoding="UTF-8"?>
<svg width="24px" height="24px" viewBox="0 0 24 24" version="1.1" xmlns="http://www.w3.org/2000/svg" xmlns:xlink="http://www.w3.org/1999/xlink">
    <title>Icon/Moonbeam Copy</title>
    <g id="Symbols" stroke="none" stroke-width="1" fill="none" fill-rule="evenodd">
        <g id="Group">
            <rect id="Rectangle" fill="#0D1124" x="0" y="0" width="24" height="24" rx="12"></rect>
            <path d="M8.375,18.88 C8.58210678,18.88 8.75,19.0478932 8.75,19.255 C8.75,19.4621068 8.58210678,19.63 8.375,19.63 C8.16789322,19.63 8,19.4621068 8,19.255 C8,19.0478932 8.16789322,18.88 8.375,18.88 Z M15.25,18.875 C15.5261424,18.875 15.75,19.0428932 15.75,19.25 C15.75,19.4340949 15.5731248,19.5872063 15.3398756,19.6189582 L15.25,19.625 L10.25,19.625 C9.97385763,19.625 9.75,19.4571068 9.75,19.25 C9.75,19.0659051 9.92687516,18.9127937 10.1601244,18.8810418 L10.25,18.875 L15.25,18.875 Z M12.375,17.13 C12.5821068,17.13 12.75,17.2978932 12.75,17.505 C12.75,17.7121068 12.5821068,17.88 12.375,17.88 C12.1678932,17.88 12,17.7121068 12,17.505 C12,17.2978932 12.1678932,17.13 12.375,17.13 Z M18.5,17.125 C18.7761424,17.125 19,17.2928932 19,17.5 C19,17.6840949 18.8231248,17.8372063 18.5898756,17.8689582 L18.5,17.875 L14.5,17.875 C14.2238576,17.875 14,17.7071068 14,17.5 C14,17.3159051 14.1768752,17.1627937 14.4101244,17.1310418 L14.5,17.125 L18.5,17.125 Z M9.5,15.38 C9.77614237,15.38 10,15.5478932 10,15.755 C10,15.9390949 9.82312484,16.0922063 9.58987563,16.1239582 L9.5,16.13 L5.5,16.13 C5.22385763,16.13 5,15.9621068 5,15.755 C5,15.5709051 5.17687516,15.4177937 5.41012437,15.3860418 L5.5,15.38 L9.5,15.38 Z M3.375,15.38 C3.58210678,15.38 3.75,15.5478932 3.75,15.755 C3.75,15.9621068 3.58210678,16.13 3.375,16.13 C3.16789322,16.13 3,15.9621068 3,15.755 C3,15.5478932 3.16789322,15.38 3.375,15.38 Z M20.5,15.375 C20.7761424,15.375 21,15.5428932 21,15.75 C21,15.9340949 20.8231248,16.0872063 20.5898756,16.1189582 L20.5,16.125 L11.5,16.125 C11.2238576,16.125 11,15.9571068 11,15.75 C11,15.5659051 11.1768752,15.4127937 11.4101244,15.3810418 L11.5,15.375 L20.5,15.375 Z M5.375,13.63 C5.58210678,13.63 5.75,13.7978932 5.75,14.005 C5.75,14.2121068 5.58210678,14.38 5.375,14.38 C5.16789322,14.38 5,14.2121068 5,14.005 C5,13.7978932 5.16789322,13.63 5.375,13.63 Z M18.5,13.625 C18.7761424,13.625 19,13.7928932 19,14 C19,14.1840949 18.8231248,14.3372063 18.5898756,14.3689582 L18.5,14.375 L7.5,14.375 C7.22385763,14.375 7,14.2071068 7,14 C7,13.8159051 7.17687516,13.6627937 7.41012437,13.6310418 L7.5,13.625 L18.5,13.625 Z M3.375,11.88 C3.58210678,11.88 3.75,12.0478932 3.75,12.255 C3.75,12.4621068 3.58210678,12.63 3.375,12.63 C3.16789322,12.63 3,12.4621068 3,12.255 C3,12.0478932 3.16789322,11.88 3.375,11.88 Z M14.25,11.875 C14.5261424,11.875 14.75,12.0428932 14.75,12.25 C14.75,12.4340949 14.5731248,12.5872063 14.3398756,12.6189582 L14.25,12.625 L5.25,12.625 C4.97385763,12.625 4.75,12.4571068 4.75,12.25 C4.75,12.0659051 4.92687516,11.9127937 5.16012437,11.8810418 L5.25,11.875 L14.25,11.875 Z M19.25,10 C19.5261424,10 19.75,10.1678932 19.75,10.375 C19.75,10.5590949 19.5731248,10.7122063 19.3398756,10.7439582 L19.25,10.75 L7.25,10.75 C6.97385763,10.75 6.75,10.5821068 6.75,10.375 C6.75,10.1909051 6.92687516,10.0377937 7.16012437,10.0060418 L7.25,10 L19.25,10 Z M5.375,10 C5.58210678,10 5.75,10.1678932 5.75,10.375 C5.75,10.5821068 5.58210678,10.75 5.375,10.75 C5.16789322,10.75 5,10.5821068 5,10.375 C5,10.1678932 5.16789322,10 5.375,10 Z" id="Combined-Shape" fill="#CF327A" fill-rule="nonzero"></path>
            <path d="M13,8 C15.209139,8 17,8 17,8 C17,5.790861 15.209139,4 13,4 C10.790861,4 9,5.790861 9,8 C9,8 10.790861,8 13,8 Z" id="Oval" stroke="#75C8C7" fill="#75C8C7" stroke-linejoin="round"></path>
        </g>
    </g>
</svg>