<svg xmlns="http://www.w3.org/2000/svg" width="24" height="24" viewBox="0 0 24 24">
    <g fill="none" fill-rule="evenodd">
        <g>
            <g>
                <g fill="#F6F5F6" transform="translate(-688 -267) translate(688 267)">
                    <circle cx="12" cy="12" r="12"/>
                </g>
                <g fill="#5A575C">
                    <path d="M5.853.033c.261-.137.58.18.441.441-.08.213-.386.27-.543.107-.165-.155-.111-.463.102-.548M3.04.336c.159-.065.36.08.343.253.017.188-.213.327-.375.237-.214-.083-.19-.431.032-.49M8.8.832c-.248-.03-.287-.42-.048-.5.185-.09.355.08.382.255-.039.15-.164.288-.334.244m-5.121.702c.265-.168.644.082.603.39-.013.312-.427.493-.66.282-.226-.165-.192-.545.057-.672m4.054.178c.12-.305.6-.314.734-.017.133.232-.03.518-.268.597-.315.059-.614-.281-.465-.58m-2.221.562c-.003-.262.236-.458.486-.476.165.034.346.104.417.271.132.23.015.548-.224.653-.11.062-.239.039-.358.032-.182-.09-.335-.265-.321-.48m-4.184.383c.243-.15.57.123.479.387-.051.228-.357.32-.533.175-.187-.137-.157-.465.054-.562m8.984 0c.206-.16.546.023.521.283.014.237-.28.415-.484.293-.225-.1-.248-.447-.037-.577m-3.624.472c.34-.122.744.024.937.327.256.37.12.934-.277 1.147-.41.25-1.01.038-1.162-.42-.172-.411.08-.925.502-1.054m-1.993.04c.377-.177.883-.028 1.065.357.214.375.049.897-.334 1.09-.383.218-.923.053-1.109-.35-.208-.388-.023-.917.378-1.096m-1.996.682c.03-.243.258-.4.489-.417.249.03.447.223.474.475-.016.25-.209.493-.473.492-.29.025-.545-.264-.49-.55m5.895-.364c.299-.173.713.08.7.422.02.363-.438.62-.735.406-.309-.177-.285-.677.035-.828m-4.71 1.28c.349-.096.748.068.92.389.186.323.11.771-.181 1.008-.374.347-1.062.208-1.26-.266-.23-.435.048-1.017.521-1.131m3.78-.002c.34-.097.738.034.92.343.242.353.127.88-.232 1.108-.376.265-.959.126-1.165-.288-.251-.428.001-1.032.478-1.163m-6.025.403c.301-.114.635.219.513.518-.074.272-.458.373-.656.172-.232-.189-.146-.608.143-.69m8.17.434c-.01-.25.173-.471.43-.485.206.033.406.2.39.424.019.297-.339.498-.591.359-.119-.06-.18-.182-.23-.298m-9.65-.287c.18-.08.405.078.363.279-.01.228-.346.316-.47.125-.109-.132-.043-.336.106-.404zm11.432-.005c.128-.091.332-.026.383.123.086.163-.072.387-.255.359-.257.023-.34-.369-.128-.482M4.87 6.403c.477-.124.99.274.993.765.031.497-.474.937-.962.822-.378-.06-.674-.424-.662-.806 0-.364.274-.704.631-.78m1.89-.002c.484-.135 1.012.27 1.004.772.026.488-.463.913-.942.816-.45-.058-.782-.552-.656-.989.063-.29.306-.527.594-.599m-3.644.303c.335-.058.65.316.514.634-.1.34-.593.431-.811.155-.256-.266-.065-.753.297-.79m5.542.016c.298-.125.665.133.642.458.012.357-.44.603-.733.394-.331-.187-.27-.737.09-.852m1.55 1.554c-.117-.219.095-.508.337-.467.12-.002.205.093.282.173.016.129.043.283-.065.383-.145.184-.475.131-.554-.09M1.33 7.868c.226-.15.552.075.5.34-.026.233-.32.367-.515.234-.209-.12-.201-.463.015-.573m4.47.49c.297-.131.675.127.646.453.022.36-.444.61-.734.394-.322-.186-.268-.733.089-.848M3.73 8.84c.252-.132.59.097.568.38.007.232-.219.43-.448.395-.19-.004-.313-.174-.374-.336.003-.176.076-.372.254-.438m4.194.004c.26-.16.629.07.604.372.007.315-.41.518-.652.31-.233-.162-.205-.553.048-.682m.73 1.803c-.115-.174.02-.385.208-.425.15.031.31.144.278.319-.022.236-.367.309-.486.106m-5.79-.151c.045-.139.157-.277.32-.24.237.016.308.374.1.485-.187.126-.404-.047-.42-.245m2.793.158c.045-.204.31-.304.485-.195.115.05.15.178.18.288-.017.057-.03.115-.045.172-.071.085-.163.17-.282.166-.222.026-.421-.224-.338-.43" transform="translate(-688 -267) translate(688 267) translate(6 6.6)"/>
                </g>
            </g>
        </g>
    </g>
</svg>
