<?xml version="1.0" encoding="UTF-8"?>
<svg width="24px" height="24px" viewBox="0 0 24 24" version="1.1" xmlns="http://www.w3.org/2000/svg" xmlns:xlink="http://www.w3.org/1999/xlink">
    <title>214A9A8E-F405-4AD0-8ED7-D5098EC5E157</title>
    <g id="🕹-Component" stroke="none" stroke-width="1" fill="none" fill-rule="evenodd">
        <g id="Market-Icon" transform="translate(-180.000000, -1108.000000)">
            <g id="Icon/Crypto/BNB" transform="translate(180.000000, 1108.000000)">
                <circle id="Oval" fill="#F3BA2F" cx="12" cy="12" r="12"></circle>
                <g id="Logo/Crypto/BNB" transform="translate(4.800000, 4.800000)" fill="#FFFFFF">
                    <path d="M9.531444,8.15634 L10.888164,9.51162 L7.199904,13.2 L3.513444,9.5136 L3.511524,9.51168 L4.869504,8.15748 L7.199904,10.48782 L9.531444,8.15634 Z M7.199904,5.8233 L8.575884,7.19928 L8.576544,7.19994 L7.199904,8.5767 L5.825184,7.20192 L5.823264,7.19994 L5.825184,7.19808 L6.066144,6.95706 L6.182964,6.84018 L6.183024,6.84018 L7.199904,5.8233 Z M11.844084,5.844522 L13.200036,7.200474 L11.844,8.556516 L10.488042,7.200558 L11.844084,5.844522 Z M2.556042,5.843772 L3.911994,7.19973 L2.555964,8.55576 L1.2,7.199814 L2.556042,5.843772 Z M7.199904,1.2 L10.887504,4.88772 L9.531504,6.24372 L7.199904,3.91218 L4.869504,6.24252 L3.513564,4.88652 L7.199904,1.2 Z" id="Combined-Shape"></path>
                </g>
            </g>
        </g>
    </g>
</svg>