<?xml version="1.0" encoding="UTF-8"?>
<svg width="24px" height="24px" viewBox="0 0 24 24" version="1.1" xmlns="http://www.w3.org/2000/svg" xmlns:xlink="http://www.w3.org/1999/xlink">
    <title>3064B65E-3A16-4499-973F-9DB73051B38A</title>
    <defs>
        <filter id="filter-1">
            <feColorMatrix in="SourceGraphic" type="matrix" values="0 0 0 0 0.235294 0 0 0 0 0.227451 0 0 0 0 0.243137 0 0 0 1.000000 0"></feColorMatrix>
        </filter>
    </defs>
    <g id="🕹-Component" stroke="none" stroke-width="1" fill="none" fill-rule="evenodd">
        <g id="Market-Icon" transform="translate(-266.000000, -820.000000)">
            <g id="Icon/Crypto/BSV---Inactive" transform="translate(266.000000, 820.000000)">
                <g id="Setup/Button/Filled---Grey" fill="#F6F5F6">
                    <circle id="Oval" cx="12" cy="12" r="12"></circle>
                </g>
                <g id="Logo/Crypto/BSV" transform="translate(4.800000, 4.800000)">
                    <g filter="url(#filter-1)" id="Group">
                        <g transform="translate(3.000000, 1.200000)">
                            <path d="M7.98888087,3.69315068 C7.86333574,2.38277886 6.73654874,1.94363992 5.31266426,1.8183953 L5.31266426,-8.89916538e-16 L4.21083032,-8.89916538e-16 L4.21083032,1.76986301 C3.92153069,1.76986301 3.625213,1.77534247 3.33123466,1.7816047 L3.33123466,-8.89916538e-16 L2.22940072,-8.89916538e-16 L2.22862094,1.81682975 C1.99000722,1.82152642 1.75529242,1.82622309 1.52681588,1.82622309 L1.52681588,1.82074364 L0.00701805054,1.81996086 L0.00701805054,3.00195695 C0.00701805054,3.00195695 0.821111913,2.98630137 0.807075812,3.00117417 C1.2538917,3.00117417 1.39893141,3.26105675 1.44103971,3.48571429 L1.44103971,5.55694716 C1.47223105,5.55694716 1.512,5.55851272 1.55722744,5.56477495 L1.44103971,5.56477495 L1.44025993,8.4665362 C1.42076534,8.6074364 1.3381083,8.83209393 1.02619495,8.83287671 C1.04023105,8.84540117 0.225357401,8.83287671 0.225357401,8.83287671 L0.00623826715,10.1542074 L1.44103971,10.1542074 C1.70772563,10.1542074 1.97051264,10.1589041 2.22784116,10.1604697 L2.22862094,11.9992172 L3.32967509,11.9992172 L3.32967509,10.1800391 C3.63145126,10.1863014 3.92387004,10.1886497 4.21005054,10.1886497 L4.20927076,11.9992172 L5.31110469,11.9992172 L5.31110469,10.1643836 C7.16387004,10.0579256 8.46220939,9.5890411 8.62284477,7.84187867 C8.75306859,6.43522505 8.09415162,5.80665362 7.04222383,5.55303327 C7.68242599,5.22739726 8.08245487,4.65205479 7.98888087,3.69315068 L7.98888087,3.69315068 Z M6.44646931,7.62426614 C6.44646931,8.99804305 4.10322022,8.84227006 3.35540794,8.84227006 L3.35540794,6.40547945 C4.10322022,6.40704501 6.44646931,6.19178082 6.44646931,7.62426614 L6.44646931,7.62426614 Z M5.93337207,4.18708415 C5.93337207,5.437182 3.97767509,5.29080235 3.35540794,5.29158513 L3.35540794,3.08258317 C3.97845487,3.08258317 5.93415162,2.88375734 5.93337207,4.18708415 Z" id="Shape" fill="#3C3A3E" fill-rule="nonzero"></path>
                            <polygon id="Path" fill="#FFFFFF" fill-rule="nonzero" points="1.44259928 5.50841487 1.60635379 5.50841487 1.60635379 5.6297456 1.44259928 5.6297456"></polygon>
                        </g>
                    </g>
                </g>
            </g>
        </g>
    </g>
</svg>