<?xml version="1.0" encoding="UTF-8"?>
<svg width="24px" height="24px" viewBox="0 0 24 24" version="1.1" xmlns="http://www.w3.org/2000/svg" xmlns:xlink="http://www.w3.org/1999/xlink">
    <title>BA0E9F35-B591-40A8-A7C2-EBC2F35457B1</title>
    <g id="🕹-Component" stroke="none" stroke-width="1" fill="none" fill-rule="evenodd">
        <g id="Market-Icon" transform="translate(-266.000000, -316.000000)">
            <g id="Icon/Crypto/Bitcoin---Inactive" transform="translate(266.000000, 316.000000)">
                <g id="Setup/Button/Filled---Grey" fill="#F6F5F6">
                    <circle id="Oval" cx="12" cy="12" r="12"></circle>
                </g>
                <g id="Logo/Crypto/BTC" transform="translate(4.800000, 4.800000)" fill="#3C3A3E">
                    <path d="M11.4961647,6.02422328 C11.6859288,4.76330973 10.7201279,4.08547245 9.39952466,3.6332848 L9.82790891,1.92521778 L8.78197211,1.66610567 L8.36490816,3.32916122 C8.08994386,3.26105175 7.80753199,3.19679195 7.52690753,3.1331244 L7.94695051,1.45911211 L6.90160951,1.2 L6.47292735,2.90747477 C6.2453296,2.85594847 6.02190249,2.80501444 5.80502923,2.75141525 L5.80622084,2.74608494 L4.36377539,2.38806604 L4.08553416,3.4985465 C4.08553416,3.4985465 4.861571,3.67533499 4.84518635,3.68629174 C5.26880416,3.79141722 5.34536518,4.07007379 5.33255536,4.29098537 L4.84459054,6.23684327 C4.87378502,6.24424648 4.91161868,6.25490709 4.95332507,6.27149026 C4.91847044,6.26290255 4.88123259,6.25342645 4.84280312,6.24424648 L4.15881825,8.97010587 C4.10698316,9.09803322 3.97560801,9.28992424 3.67949261,9.21707672 C3.68991921,9.23217926 2.91924462,9.02844311 2.91924462,9.02844311 L2.4,10.218582 L3.76111798,10.555872 C4.01433538,10.6189473 4.26248843,10.6849838 4.50676874,10.7471707 L4.07391595,12.4747822 L5.11866114,12.7338943 L5.54734329,11.0246428 C5.83273419,11.1016361 6.10978382,11.1727069 6.38087538,11.2396318 L5.95368274,12.9408879 L6.99961954,13.2 L7.43247234,11.4756459 C9.21601652,11.8111591 10.557175,11.6758285 11.1217009,10.0722947 C11.5765985,8.78117612 11.0990602,8.03641389 10.1606664,7.55076376 C10.8440554,7.39411199 11.3588315,6.94725465 11.4961647,6.02422328 L11.4961647,6.02422328 Z M9.10638828,9.35536856 C8.78316372,10.6464872 6.59625912,9.94851319 5.88725041,9.77350147 L6.46160705,7.48472719 C7.17061576,7.6606273 9.44421008,8.00887397 9.10638828,9.35536856 Z M9.42991075,6.00556721 C9.13498695,7.18001135 7.31480072,6.58331318 6.72435733,6.43702589 L7.24509146,4.36116773 C7.83553485,4.50745503 9.73704855,4.78048516 9.42991075,6.00556721 L9.42991075,6.00556721 Z" id="Shape"></path>
                </g>
            </g>
        </g>
    </g>
</svg>