<?xml version="1.0" encoding="UTF-8"?>
<svg width="24px" height="24px" viewBox="0 0 24 24" version="1.1" xmlns="http://www.w3.org/2000/svg" xmlns:xlink="http://www.w3.org/1999/xlink">
    <title>lCAKE-Active</title>
    <g id="⭐️-04_Icon" stroke="none" stroke-width="1" fill="none" fill-rule="evenodd">
        <g id="Icon_Tokens-(Active)" transform="translate(-292.000000, -940.000000)">
            <g id="lCAKE-Active" transform="translate(292.000000, 940.000000)">
                <circle id="Oval" fill="#75D3DB" cx="12" cy="12" r="12"></circle>
                <g id="Group" stroke-width="1" transform="translate(5.000000, 5.000000)" fill="#FFFFFF">
                    <path d="M2.49375,2.1875 C2.275,1.05 3.15,0 4.2875,0 C5.29375,0 6.125,0.83125 6.125,1.8375 L6.125,4.1125 C6.3875,4.1125 6.65,4.06875 6.9125,4.06875 C7.175,4.06875 7.39375,4.06875 7.65625,4.1125 L7.65625,1.8375 C7.65625,0.83125 8.4875,0 9.49375,0 C10.63125,0 11.50625,1.05 11.33125,2.1875 L10.85,4.85625 C12.55625,5.6 13.86875,6.9125 13.86875,8.53125 L13.86875,9.5375 C13.86875,10.89375 12.99375,12.03125 11.725,12.775 C10.45625,13.5625 8.79375,14 6.9125,14 C5.03125,14 3.36875,13.5625 2.1,12.775 C0.875,12.03125 -1.82076576e-13,10.89375 -1.82076576e-13,9.5375 L-1.82076576e-13,8.53125 C-1.82076576e-13,6.9125 1.26875,5.6 2.975,4.85625 L2.49375,2.1875 Z M10.19375,5.20625 L10.7625,2.05625 C10.89375,1.26875 10.325,0.525 9.49375,0.525 C8.79375,0.525 8.225,1.09375 8.225,1.79375 L8.225,4.68125 C8.05,4.6375 7.83125,4.6375 7.65625,4.6375 C7.39375,4.6375 7.175,4.59375 6.9125,4.59375 C6.65,4.59375 6.3875,4.59375 6.125,4.6375 C5.95,4.6375 5.73125,4.68125 5.55625,4.68125 L5.55625,1.8375 C5.55625,1.1375 4.9875,0.56875 4.2875,0.56875 C3.5,0.56875 2.8875,1.3125 3.0625,2.1 L3.63125,5.25 C1.79375,5.95 0.56875,7.175 0.56875,8.575 L0.56875,9.58125 C0.56875,11.725 3.4125,13.475 6.9125,13.475 C10.4125,13.475 13.25625,11.725 13.25625,9.58125 L13.25625,8.575 C13.3,7.13125 12.075,5.90625 10.19375,5.20625 Z" id="Shape"></path>
                    <path d="M13.34375,8.53125 L13.34375,9.55803571 L13.2990765,9.55803571 C13.2990765,11.7455357 10.3952964,13.53125 6.82141323,13.53125 C3.24753007,13.53125 0.34375,11.7455357 0.34375,9.55803571 L0.34375,8.53125 L0.61375,8.5305507 L0.6125,8.575 C0.6125,10.6651563 3.31583984,12.3810039 6.69501465,12.4654899 L6.95625,12.46875 C10.45625,12.46875 13.3,10.71875 13.3,8.575 C13.3,8.56016378 13.2998575,8.54534721 13.2995734,8.5305507 L13.34375,8.53125 Z" id="Combined-Shape" fill-rule="nonzero"></path>
                    <path d="M5.1625,8.26875 C5.1625,8.8375 4.85625,9.31875 4.4625,9.31875 C4.06875,9.31875 3.7625,8.8375 3.7625,8.26875 C3.7625,7.7 4.06875,7.21875 4.4625,7.21875 C4.85625,7.21875 5.1625,7.7 5.1625,8.26875 Z" id="Path" fill-rule="nonzero"></path>
                    <path d="M10.01875,8.26875 C10.01875,8.8375 9.7125,9.31875 9.31875,9.31875 C8.925,9.31875 8.61875,8.8375 8.61875,8.26875 C8.61875,7.7 8.925,7.21875 9.31875,7.21875 C9.7125,7.21875 10.01875,7.7 10.01875,8.26875 Z" id="Path" fill-rule="nonzero"></path>
                </g>
            </g>
        </g>
    </g>
</svg>