<?xml version="1.0" encoding="UTF-8"?>
<svg width="24px" height="24px" viewBox="0 0 24 24" version="1.1" xmlns="http://www.w3.org/2000/svg" xmlns:xlink="http://www.w3.org/1999/xlink">
    <title>lCAKE-Inactive</title>
    <g id="⭐️-04_Icon" stroke="none" stroke-width="1" fill="none" fill-rule="evenodd">
        <g id="Icon_Tokens-(Inactive)" transform="translate(-292.000000, -996.000000)">
            <g id="lCAKE-Inactive" transform="translate(292.000000, 996.000000)">
                <g id="Setup/Button/Filled---Grey" fill="#F6F5F6">
                    <circle id="Oval" cx="12" cy="12" r="12"></circle>
                </g>
                <path d="M7.49375,7.1875 C7.275,6.05 8.15,5 9.2875,5 C10.29375,5 11.125,5.83125 11.125,6.8375 L11.125,9.1125 C11.3875,9.1125 11.65,9.06875 11.9125,9.06875 C12.175,9.06875 12.39375,9.06875 12.65625,9.1125 L12.65625,6.8375 C12.65625,5.83125 13.4875,5 14.49375,5 C15.63125,5 16.50625,6.05 16.33125,7.1875 L15.85,9.85625 C17.55625,10.6 18.86875,11.9125 18.86875,13.53125 L18.86875,14.5375 C18.86875,15.89375 17.99375,17.03125 16.725,17.775 C15.45625,18.5625 13.79375,19 11.9125,19 C10.03125,19 8.36875,18.5625 7.1,17.775 C5.875,17.03125 5,15.89375 5,14.5375 L5,13.53125 C5,11.9125 6.26875,10.6 7.975,9.85625 L7.49375,7.1875 Z M15.19375,10.20625 L15.7625,7.05625 C15.89375,6.26875 15.325,5.525 14.49375,5.525 C13.79375,5.525 13.225,6.09375 13.225,6.79375 L13.225,9.68125 C13.05,9.6375 12.83125,9.6375 12.65625,9.6375 C12.39375,9.6375 12.175,9.59375 11.9125,9.59375 C11.65,9.59375 11.3875,9.59375 11.125,9.6375 C10.95,9.6375 10.73125,9.68125 10.55625,9.68125 L10.55625,6.8375 C10.55625,6.1375 9.9875,5.56875 9.2875,5.56875 C8.5,5.56875 7.8875,6.3125 8.0625,7.1 L8.63125,10.25 C6.79375,10.95 5.56875,12.175 5.56875,13.575 L5.56875,14.58125 C5.56875,16.725 8.4125,18.475 11.9125,18.475 C15.4125,18.475 18.25625,16.725 18.25625,14.58125 L18.25625,13.575 C18.3,12.13125 17.075,10.90625 15.19375,10.20625 Z" id="Shape" fill="#BABABA"></path>
                <path d="M18.34375,13.53125 L18.34375,14.5580357 L18.2990765,14.5580357 C18.2990765,16.7455357 15.3952964,18.53125 11.8214132,18.53125 C8.24753007,18.53125 5.34375,16.7455357 5.34375,14.5580357 L5.34375,13.53125 L5.61375,13.5305507 L5.6125,13.575 C5.6125,15.6651562 8.31583984,17.3810039 11.6950146,17.4654899 L11.95625,17.46875 C15.45625,17.46875 18.3,15.71875 18.3,13.575 C18.3,13.5601638 18.2998575,13.5453472 18.2995734,13.5305507 L18.34375,13.53125 Z" id="Combined-Shape" fill="#BABABA"></path>
                <path d="M8.0625,7.1 C7.8875,6.3125 8.5,5.56875 9.2875,5.56875 C9.9875,5.56875 10.55625,6.1375 10.55625,6.8375 L10.55625,9.725 C10.99375,9.68125 11.43125,9.6375 11.9125,9.6375 C12.35,9.6375 12.7875,9.68125 13.225,9.725 L13.225,6.8375 C13.225,6.1375 13.79375,5.56875 14.49375,5.56875 C15.28125,5.56875 15.89375,6.3125 15.7625,7.1 L15.19375,10.25 C17.03125,10.95 18.3,12.175 18.3,13.575 C18.3,15.71875 15.45625,17.46875 11.95625,17.46875 C8.45625,17.46875 5.6125,15.71875 5.6125,13.575 C5.6125,12.175 6.8375,10.95 8.675,10.25 L8.0625,7.1 Z" id="Path" fill="#FFFFFF" opacity="0.5"></path>
                <path d="M10.1625,13.26875 C10.1625,13.8375 9.85625,14.31875 9.4625,14.31875 C9.06875,14.31875 8.7625,13.8375 8.7625,13.26875 C8.7625,12.7 9.06875,12.21875 9.4625,12.21875 C9.85625,12.21875 10.1625,12.7 10.1625,13.26875 Z" id="Path" fill="#BABABA"></path>
                <path d="M15.01875,13.26875 C15.01875,13.8375 14.7125,14.31875 14.31875,14.31875 C13.925,14.31875 13.61875,13.8375 13.61875,13.26875 C13.61875,12.7 13.925,12.21875 14.31875,12.21875 C14.7125,12.21875 15.01875,12.7 15.01875,13.26875 Z" id="Path" fill="#BABABA"></path>
            </g>
        </g>
    </g>
</svg>