<?xml version="1.0" encoding="UTF-8"?>
<svg width="24px" height="24px" viewBox="0 0 24 24" version="1.1" xmlns="http://www.w3.org/2000/svg" xmlns:xlink="http://www.w3.org/1999/xlink">
    <title>2030F0F8-8C71-4186-AB0B-E3D3E04C7263</title>
    <g id="🕹-Component" stroke="none" stroke-width="1" fill="none" fill-rule="evenodd">
        <g id="Market-Icon" transform="translate(-180.000000, -1180.000000)">
            <g id="Icon/Crypto/Dash" transform="translate(180.000000, 1180.000000)">
                <circle id="Oval" fill="#3D8BDD" cx="12" cy="12" r="12"></circle>
                <g id="Logo/Crypto/Dash" transform="translate(4.800000, 4.800000)" fill="#FFFFFF">
                    <path d="M9.06007404,2.4 C12.9005612,2.4 13.5800321,4.49565047 13.0353476,7.44063945 C12.6697627,9.41812108 11.7558006,10.9340057 10.2196058,11.6430187 C9.52721023,11.9624438 8.87358885,12.1415435 7.33554758,12.1415435 L7.33554758,12.1415435 L2.97622533,12.1415435 L3.33996378,10.1160558 L7.17306543,10.1179022 C9.47735775,10.1215949 10.092205,9.1208526 10.3913198,8.24566465 C10.5039495,7.91700757 10.7624438,6.90334052 10.7716758,6.30326439 C10.7882933,5.13450074 10.2140666,4.4291805 8.27166633,4.4291805 L8.27166633,4.4291805 L4.3277814,4.42364133 L4.68967346,2.4 Z M7.27830955,6.2552583 C7.27830955,6.2552583 7.23214985,6.49344237 7.08997796,7.08428655 C6.98288746,7.53480524 6.81855892,8.28074602 5.67379831,8.28074602 L5.67379831,8.28074602 L1.2,8.28074602 C1.2,8.28074602 1.2461597,8.04256196 1.38833158,7.45171778 C1.49542209,7.00119909 1.65975063,6.2552583 2.80451124,6.2552583 L2.80451124,6.2552583 Z" id="Combined-Shape"></path>
                </g>
            </g>
        </g>
    </g>
</svg>