<?xml version="1.0" encoding="UTF-8"?>
<svg width="24px" height="24px" viewBox="0 0 24 24" version="1.1" xmlns="http://www.w3.org/2000/svg" xmlns:xlink="http://www.w3.org/1999/xlink">
    <title>lDoge@1.5x</title>
    <g id="⭐️-04_Icon" stroke="none" stroke-width="1" fill="none" fill-rule="evenodd">
        <g id="Icon_Tokens-(Active)" transform="translate(-151.000000, -884.000000)">
            <g id="Icon/Crypto/Dogecoin" transform="translate(151.000000, 884.000000)">
                <circle id="Oval" fill="#C2A633" fill-rule="nonzero" cx="12" cy="12" r="12"></circle>
                <g id="Logo/Crypto/Dogecoin" transform="translate(4.800000, 4.800000)" fill="#FFFFFF" fill-rule="evenodd">
                    <path d="M12.8834921,7.2964153 C12.8834921,13.5592528 7.42063767,13.2059512 7.23854253,13.1924348 L3.216133,13.1920742 L3.216133,7.85063809 L1.8,7.85063809 L1.8,6.54236425 L3.216133,6.54236425 L3.216133,1.20044652 L6.96440017,1.20081438 C8.35698931,1.21793374 12.8834921,1.56192489 12.8834921,7.2964153 Z M7.06439386,3.41685605 L5.47924937,3.41685605 L5.47924937,6.54188264 L7.97301104,6.54188264 L7.97301104,7.85063809 L5.47924937,7.85063809 L5.47924937,10.9756959 L7.26819913,10.9751148 C7.98428751,10.964244 10.6494125,10.7667883 10.6449385,7.33975164 C10.6401178,3.65568706 7.65713778,3.41685605 7.06439386,3.41685605 Z" id="Combined-Shape"></path>
                </g>
            </g>
        </g>
    </g>
</svg>