<?xml version="1.0" encoding="UTF-8"?>
<svg width="24px" height="24px" viewBox="0 0 24 24" version="1.1" xmlns="http://www.w3.org/2000/svg" xmlns:xlink="http://www.w3.org/1999/xlink">
    <title>407BF8A5-E20B-4DDB-9EF9-843BED175604</title>
    <g id="🕹-Component" stroke="none" stroke-width="1" fill="none" fill-rule="evenodd">
        <g id="Market-Icon" transform="translate(-180.000000, -1324.000000)">
            <g id="Icon/Crypto/DOT" transform="translate(180.000000, 1324.000000)">
                <circle id="Oval" fill="#E6007A" cx="12" cy="12" r="12"></circle>
                <g id="Logo/Crypto/DOT" transform="translate(4.800000, 4.800000)" fill="#FFFFFF">
                    <path d="M7.39493461,11.6678401 L7.51482259,11.6823883 C7.92008664,11.777542 8.18145722,12.1714738 8.11161343,12.5818577 C8.07745608,12.7830258 7.96200831,12.9612679 7.79239707,13.0747021 C7.62278583,13.1881364 7.41396424,13.2267624 7.21499944,13.181504 C7.01479063,13.1443921 6.83810971,13.0278671 6.72516198,12.8584455 C6.61221424,12.6890239 6.57260697,12.4811166 6.61535315,12.2820346 C6.65462285,12.0829759 6.77161771,11.9077807 6.94043671,11.7952347 C7.10925572,11.6826887 7.3159724,11.6420762 7.51482259,11.6823883 Z M6.95160095,1.2 C9.36672974,1.24186301 11.3279721,3.16410652 11.4183283,5.57790754 C11.5086844,7.99170856 9.69664068,10.0551981 7.29140051,10.2775027 C7.29140051,10.2775027 6.71174243,10.3174791 6.57468042,10.3374673 C5.90565974,10.4397056 5.37119206,10.9479627 5.23547036,11.6110018 C5.23547036,11.6110018 5.11054405,12.2217527 5.0573347,12.4716053 L5.03558826,12.5704359 C5.00497217,12.7342199 4.90850372,12.8782719 4.76871521,12.9689455 C4.6289267,13.0596192 4.45805992,13.0889738 4.2960245,13.0501529 C4.1323553,13.0196235 3.98848491,12.9230329 3.89826193,12.7831062 C3.80803895,12.6431796 3.77942891,12.4722705 3.81916293,12.3105892 C3.81916293,12.2538659 5.09671468,6.3178494 5.23482839,5.67628362 L5.2468922,5.62024982 C5.3186469,5.28355473 5.64976087,5.06877811 5.98645596,5.1405328 C6.32315105,5.21228749 6.53792768,5.54340146 6.46617299,5.88009655 L6.46617299,5.88009655 L5.8665267,8.59563762 L5.76658565,9.13531929 C5.75379647,9.15237153 5.75549225,9.17623293 5.77056444,9.19130512 C5.78563664,9.20637732 5.80949804,9.2080731 5.82655028,9.19528392 C5.94135268,9.16618024 6.0576443,9.1433032 6.17491622,9.12675291 C6.49472758,9.08677649 7.13149483,9.04680007 7.13149483,9.04680007 C8.90341882,8.93950923 10.2692938,7.4434583 10.215281,5.66911094 C10.1612681,3.89476358 8.70692404,2.48456284 6.9317549,2.48524893 C5.15658577,2.48593501 3.70333217,3.8972595 3.65069087,5.67164808 C3.63235979,6.06599707 3.69253684,6.46005973 3.8277293,6.83096424 C3.93016349,7.15824109 3.75995355,7.50867332 3.43938694,7.63049264 C3.10905068,7.73016155 2.75832518,7.5547988 2.63985855,7.23072844 C2.48093395,6.75378044 2.4,6.25432989 2.4,5.75160092 C2.40939456,3.24172278 4.44172281,1.20939453 6.95160095,1.2 Z" id="Combined-Shape"></path>
                </g>
            </g>
        </g>
    </g>
</svg>