<?xml version="1.0" encoding="UTF-8"?>
<svg width="24px" height="24px" viewBox="0 0 24 24" version="1.1" xmlns="http://www.w3.org/2000/svg" xmlns:xlink="http://www.w3.org/1999/xlink">
    <title>18B552DA-2265-4DE8-83D2-27C1F95ABEBB</title>
    <g id="🕹-Component" stroke="none" stroke-width="1" fill="none" fill-rule="evenodd">
        <g id="Market-Icon" transform="translate(-266.000000, -532.000000)">
            <g id="Icon/Crypto/EOS---Inactive" transform="translate(266.000000, 532.000000)">
                <g id="Setup/Button/Filled---Grey" fill="#F6F5F6">
                    <circle id="Oval" cx="12" cy="12" r="12"></circle>
                </g>
                <g id="Logo/Crypto/EOS" transform="translate(4.800000, 4.800000)" fill="#3C3A3E">
                    <path d="M7.05194805,1.2 L7.05266434,1.2 C7.14495507,1.19876051 7.23886015,1.23761454 7.30528282,1.32612378 L7.30803445,1.32984043 L9.82283544,4.77300301 L9.82506367,4.77602153 C9.82982359,4.78256444 9.83432786,4.78928292 9.8385677,4.79615995 L9.8410798,4.80030506 L9.84478421,4.80669457 L9.84732845,4.81128717 L9.84979533,4.81592013 L9.85267361,4.82157281 L9.85479608,4.82592908 C9.86593923,4.84924951 9.8742488,4.87394963 9.87943725,4.899472 L9.87966414,4.90060014 L11.0931884,10.4568645 L11.0939479,10.4596813 C11.1133905,10.5345398 11.1034955,10.6109388 11.071585,10.6762859 L11.0692323,10.6809867 L11.0665933,10.6860848 L11.0656977,10.6877535 C11.0614783,10.6955996 11.0569241,10.7032738 11.0520448,10.710753 L11.0499338,10.7139463 L11.0469678,10.7183096 C11.0204431,10.7566205 10.9855478,10.7892357 10.9442094,10.8128402 L10.9413748,10.8144238 L7.22110277,13.1505992 C7.16640991,13.184944 7.10884996,13.2001523 7.05327941,13.2 L7.05194805,13.2 L7.05061669,13.2 C6.99757208,13.2001453 6.9427148,13.1862948 6.89026877,13.1551643 L6.88279334,13.1505992 L3.16252915,10.8144238 L3.15968668,10.8128402 C3.11834831,10.7892357 3.083453,10.7566205 3.05692826,10.7183096 L3.0530772,10.7126034 L3.05185131,10.710753 C3.04697205,10.7032738 3.04241784,10.6955996 3.03819836,10.6877535 L3.03641053,10.6843805 L3.03421358,10.680117 C3.00079991,10.6139355 2.99012435,10.5360076 3.00994817,10.4596813 L3.01071556,10.4568645 L4.22423984,4.90060014 L4.22445885,4.899472 C4.22924819,4.87591289 4.23669695,4.85305439 4.24657896,4.83133496 L4.24940084,4.82530313 L4.25171168,4.82059245 L4.25410077,4.81592013 L4.25656766,4.81128717 L4.25911189,4.80669457 L4.26173302,4.80214333 L4.26532841,4.79615995 C4.26956824,4.78928292 4.27407251,4.78256444 4.27883243,4.77602153 L4.28106854,4.77300301 L6.79586165,1.32984043 C6.86151531,1.23995003 6.95505551,1.19984724 7.04738546,1.2 L7.05194805,1.2 Z M9.7012987,10.8623377 L8.03798752,10.8623377 L7.62337662,12.161039 L9.7012987,10.8623377 Z M6.06590858,10.8623377 L4.4025974,10.8623377 L6.48051948,12.161039 L6.06590858,10.8623377 Z M7.36363636,10.8623377 L6.74025974,10.8623377 L7.05194417,11.8493506 L7.36363636,10.8623377 Z M5.12825776,7.95324675 L3.83116883,10.238961 L5.85714286,10.238961 L5.12825776,7.95324675 Z M7.07792602,4.57662338 L5.5974026,7.1999489 L6.56120083,10.238961 L7.59464333,10.238961 L8.55844156,7.1999489 L7.07792602,4.57662338 Z M8.97563835,7.95324675 L8.24675325,10.238961 L10.2727273,10.238961 L8.97563835,7.95324675 Z M4.56780598,6.18701299 L4.03896104,8.57662338 L4.87012987,7.12597319 L4.56780598,6.18701299 Z M9.53609012,6.18701299 L9.23376623,7.12597319 L10.0649351,8.57662338 L9.53609012,6.18701299 Z M6.74025974,2.4987013 L4.87012987,5.04198903 L5.30289232,6.39480519 L6.74025974,3.86988012 L6.74025974,2.4987013 Z M7.36363636,2.4987013 L7.36363636,3.86987733 L8.80100562,6.39480519 L9.23376623,5.04199178 L7.36363636,2.4987013 Z" id="Path"></path>
                </g>
            </g>
        </g>
    </g>
</svg>