<svg xmlns="http://www.w3.org/2000/svg" width="24" height="24" viewBox="0 0 24 24">
    <g fill="none" fill-rule="evenodd">
        <g>
            <g>
                <g stroke="#E5E5E5" transform="translate(-311 -212) translate(311 212)">
                    <circle cx="12" cy="12" r="11.5"/>
                </g>
                <path fill="#BABABA" d="M16.359 6.677l.182.075-.721 1.65c-.472-.207-1.05-.31-1.751-.301-1.31 0-2.463.677-3.127 1.701h4.037v1.8h-4.626c-.004.073-.006.147-.006.22 0 .221.019.438.056.648h4.576v1.8h-3.71c.689.782 1.706 1.276 2.855 1.277.53.032 1.042-.036 1.543-.204l.187-.068.653 1.678c-.802.312-1.636.442-2.438.392-2.171 0-4.05-1.253-4.952-3.075H7.2v-1.8h1.384c-.025-.213-.037-.428-.037-.647 0-.074.001-.147.004-.22H7.2v-1.8h1.728C9.734 7.751 11.73 6.3 14.058 6.3c.77-.01 1.469.09 2.095.301l.206.075z" transform="translate(-311 -212) translate(311 212)"/>
            </g>
        </g>
    </g>
</svg>
