<?xml version="1.0" encoding="UTF-8"?>
<svg width="24px" height="24px" viewBox="0 0 24 24" version="1.1" xmlns="http://www.w3.org/2000/svg" xmlns:xlink="http://www.w3.org/1999/xlink">
    <title>15DEA661-68AC-4067-ADEC-84A5DE2F313A</title>
    <defs>
        <circle id="path-1" cx="12" cy="12" r="12"></circle>
    </defs>
    <g id="🕹-Component" stroke="none" stroke-width="1" fill="none" fill-rule="evenodd">
        <g id="Market-Icon" transform="translate(-500.000000, -820.000000)">
            <g id="Icon/Indicies/UK" transform="translate(500.000000, 820.000000)">
                <mask id="mask-2" fill="white">
                    <use xlink:href="#path-1"></use>
                </mask>
                <use id="Mask" fill="#F6F5F6" xlink:href="#path-1"></use>
                <g id="UK" mask="url(#mask-2)">
				<g id="Setup/Button/Filled---Grey" fill="#F6F5F6">
                    <circle id="Oval" cx="12" cy="12" r="12"></circle>
                </g>
                    <polygon id="Path" fill="#FFFFFF" fill-rule="nonzero" points="0 0 24 0 24 24 0 24"></polygon>
                    <path d="M9.33333333,0 L1.33333333,0 L9.33333333,7.33333333 L9.33333333,0 Z M14.6666667,0 L14.6666667,8 L23.3333333,0 L14.6666667,0 Z M24,6 L20,9.33333333 L24,9.33333333 L24,6 Z M24,14.6666667 L18.6666667,14.6666667 L24,19.3333333 L24,14.6666667 Z M22.6666667,24 L14.6666667,16.6666667 L14.6666667,24 L22.6666667,24 Z M9.33333333,24 L9.33333333,16 L0.666666667,24 L9.33333333,24 Z M0,18 L4,14.6666667 L0,14.6666667 L0,18 Z M0,9.33333333 L5.33333333,9.33333333 L0,4.66666667 L0,9.33333333 Z" id="Shape" fill="#0D47A1"></path>
                    <path d="M9.32455594,9.33333333 L0.199239321,1.21430537 L0.147916194,3.83502646 L6.6603971,9.33333333 L9.32455594,9.33333333 Z M10.6566354,10.6666667 L10.6566354,0 L13.3207942,0 L13.3207942,10.6666667 L23.9774295,10.6666667 L23.9774295,13.3333333 L13.3207942,13.3333333 L13.3207942,24 L10.6566354,24 L10.6566354,13.3333333 L0,13.3333333 L0,10.6666667 L10.6566354,10.6666667 Z M0.376658316,20.0577985 L6.6603971,14.6666667 L9.32455594,14.6666667 L0.40605157,22.6016885 L0.376658316,20.0577985 Z M14.6528736,9.33333333 L23.770158,0.967955513 L23.8558341,3.43214277 L17.3170325,9.33333333 L14.6528736,9.33333333 Z M17.3170325,14.6666667 L14.6528736,14.6666667 L23.8478227,22.669801 L24,20.2997263 L17.3170325,14.6666667 Z" id="Shape" fill="#EF5350"></path>
                </g>
            </g>
        </g>
    </g>
</svg>