<svg xmlns="http://www.w3.org/2000/svg" width="24" height="24" viewBox="0 0 24 24">
    <defs>
        <filter id="q91tvya79a">
            <feColorMatrix in="SourceGraphic" values="0 0 0 0 1.000000 0 0 0 0 1.000000 0 0 0 0 1.000000 0 0 0 1.000000 0"/>
        </filter>
    </defs>
    <g fill="none" fill-rule="evenodd">
        <g>
            <g transform="translate(-500 -1032) translate(500 1032)">
                <circle cx="12" cy="12" r="12" fill="#3C7AD2"/>
                <g>
                    <g filter="url(#q91tvya79a)" transform="translate(4.8 4.8)">
                        <g fill="#FFF">
                            <path d="M5.101 3.67c0-1.712-.833-3.185-1.467-3.664-.002-.002-.048-.027-.044.041V.05C3.535 3.355 1.85 4.25.921 5.457c-2.14 2.785-.15 5.839 1.877 6.403 1.134.316-.262-.559-.442-2.406C2.14 7.222 5.101 5.518 5.101 3.67" transform="translate(3.3 1.2)"/>
                            <path d="M6.213 4.795c-.013-.009-.033-.015-.047.006-.037.416-.49 1.306-1.065 2.123-1.948 2.773-.838 4.109-.213 4.827.362.416 0 0 .906-.426.07-.033 1.768-.926 1.952-2.96.177-1.968-1.084-3.21-1.533-3.57" transform="translate(3.3 1.2)"/>
                        </g>
                    </g>
                </g>
            </g>
        </g>
    </g>
</svg>
