<?xml version="1.0" encoding="UTF-8"?>
<svg width="24px" height="24px" viewBox="0 0 24 24" version="1.1" xmlns="http://www.w3.org/2000/svg" xmlns:xlink="http://www.w3.org/1999/xlink">
    <title>7F36FD20-6DAE-4339-AB06-9BA954647241</title>
    <g id="🕹-Component" stroke="none" stroke-width="1" fill="none" fill-rule="evenodd">
        <g id="Market-Icon" transform="translate(-266.000000, -1252.000000)">
            <g id="Icon/Crypto/JUST---Inactive" transform="translate(266.000000, 1252.000000)">
                <g id="Setup/Button/Filled---Grey" fill="#F6F5F6">
                    <circle id="Oval" cx="12" cy="12" r="12"></circle>
                </g>
                <g id="Logo/Crypto/JUST" transform="translate(4.800000, 4.800000)" fill="#3C3A3E">
                    <path d="M7.2,10.7 C7.89035594,10.7 8.45,11.2596441 8.45,11.95 C8.45,12.6403559 7.89035594,13.2 7.2,13.2 C6.50964406,13.2 5.95,12.6403559 5.95,11.95 C5.95,11.2596441 6.50964406,10.7 7.2,10.7 Z M13.2,8.2 L13.2,9.7 L1.2,9.7 L1.2,8.2 L13.2,8.2 Z M2.76521739,1.2 C2.76521739,3.6492628 4.7507372,5.63478261 7.2,5.63478261 C9.60473075,5.63478261 11.5624286,3.72080715 11.6328226,1.3331271 L11.6347826,1.2 L13.2,1.2 C13.2,4.5137085 10.5137085,7.2 7.2,7.2 C3.93727163,7.2 1.28280362,4.59572781 1.20189993,1.35248739 L1.2,1.2 L2.76521739,1.2 Z M7.2,1.2 C7.89035594,1.2 8.45,1.75964406 8.45,2.45 C8.45,3.14035594 7.89035594,3.7 7.2,3.7 C6.50964406,3.7 5.95,3.14035594 5.95,2.45 C5.95,1.75964406 6.50964406,1.2 7.2,1.2 Z" id="Combined-Shape"></path>
                </g>
            </g>
        </g>
    </g>
</svg>