<?xml version="1.0" encoding="UTF-8"?>
<svg width="24px" height="24px" viewBox="0 0 24 24" version="1.1" xmlns="http://www.w3.org/2000/svg" xmlns:xlink="http://www.w3.org/1999/xlink">
    <title>B409F611-5A8A-4D5B-B0FA-9EEBC3838214</title>
    <g id="🕹-Component" stroke="none" stroke-width="1" fill="none" fill-rule="evenodd">
        <g id="Market-Icon" transform="translate(-500.000000, -460.000000)">
            <g id="Icon/Commities/Soy" transform="translate(500.000000, 460.000000)">
                <circle id="Oval" fill="#96AB0D" cx="12" cy="12" r="12"></circle>
                <g id="Logo/Crypto/Soy" transform="translate(4.800000, 4.800000)" fill="#FFFFFF">
                    <path d="M8.35622393,1.37852013 L8.57738315,1.46176936 L8.57738315,1.46176936 C10.7252176,2.35651079 11.3004713,4.34289214 11.5418134,6.25017313 C11.6058684,6.75638789 11.6220549,7.44281781 11.590373,8.3094629 C11.4879623,11.1109382 9.13389551,13.29896 6.33242033,13.1965466 C6.29607387,13.1952179 6.25974274,13.1934986 6.22343323,13.1913889 C4.68796018,13.1021751 3.5155354,11.7851062 3.6047492,10.2496331 C3.62246985,9.94464002 3.6902546,9.64464104 3.80543233,9.36167654 C4.10643942,8.62183429 4.25694296,7.89762239 4.25694296,7.18904086 C4.25694296,6.77044266 4.20441848,6.34622219 4.09936951,5.91637946 L4.01074195,5.59294096 C3.46471457,3.79384968 4.48052357,1.89275538 6.27961485,1.346728 C6.9600731,1.14020772 7.68611398,1.15249924 8.35622393,1.37852013 Z M6.45361823,5.22678485 C6.35713952,4.9736379 6.07371192,4.8466332 5.82056496,4.94311191 C5.56741801,5.03959062 5.44041331,5.32301823 5.53689202,5.57616518 C5.73793454,6.10367325 5.83799014,6.6403615 5.83799014,7.18904086 C5.83799014,7.83219096 5.70045405,8.49399999 5.42263922,9.17683373 C5.32054495,9.42776854 5.44120406,9.71395516 5.69213887,9.81604943 C5.94307369,9.9181437 6.22926031,9.7974846 6.33135458,9.54654978 C6.65556219,8.74968844 6.81903731,7.96306354 6.81903731,7.18904086 C6.81903731,6.52019908 6.69692052,5.86517677 6.45361823,5.22678485 Z" id="Combined-Shape"></path>
                </g>
            </g>
        </g>
    </g>
</svg>