<?xml version="1.0" encoding="UTF-8"?>
<svg width="24px" height="24px" viewBox="0 0 24 24" version="1.1" xmlns="http://www.w3.org/2000/svg" xmlns:xlink="http://www.w3.org/1999/xlink">
    <title>CABC4EDD-702E-4629-AA25-205C51A89892</title>
    <g id="🕹-Component" stroke="none" stroke-width="1" fill="none" fill-rule="evenodd">
        <g id="Market-Icon" transform="translate(-266.000000, -748.000000)">
            <g id="Icon/Crypto/TRON---Inactive" transform="translate(266.000000, 748.000000)">
                <g id="Setup/Button/Filled---Grey" fill="#F6F5F6">
                    <circle id="Oval" cx="12" cy="12" r="12"></circle>
                </g>
                <g id="Logo/Crypto/TRON" transform="translate(4.800000, 4.800000)" fill="#3C3A3E">
                    <path d="M13.0498507,5.41511127 C12.4873582,4.89574316 11.7092435,4.10262868 11.0755019,3.54013615 L11.0380024,3.51388649 C10.9756092,3.46378307 10.905261,3.42448946 10.8298802,3.39763804 L10.8298802,3.39763804 C9.30177545,3.11264182 2.18999482,1.78328446 2.05124667,1.80015924 C2.0123687,1.80560417 1.97520706,1.81969997 1.94249811,1.84140869 L1.90687358,1.86953331 C1.86300747,1.91408287 1.82969041,1.96790274 1.80937488,2.02703122 L1.8,2.0514059 L1.8,2.18452913 L1.8,2.20515386 C2.60061438,4.43449928 5.76182243,11.7375274 6.38431417,13.4512546 C6.42181367,13.5675031 6.49306272,13.7887501 6.62618596,13.8 L6.65618556,13.8 C6.72743461,13.8 7.03118058,13.3987553 7.03118058,13.3987553 C7.03118058,13.3987553 12.4611085,6.8138427 13.0104762,6.11260201 C13.0815875,6.02622379 13.1443665,5.93331097 13.1979738,5.83510569 C13.2258067,5.67880765 13.169576,5.51936867 13.0498507,5.41511127 Z M8.4242871,6.18197609 L10.7417563,4.26012659 L12.1011133,5.51260997 L8.4242871,6.18197609 Z M7.52429904,6.05635276 L3.53435199,2.78639615 L9.98989132,3.97700535 L7.52429904,6.05635276 Z M7.88429426,6.91321639 L11.9679901,6.25510012 L7.29930203,11.8800255 L7.88429426,6.91321639 Z M2.99248418,3.11264182 L7.19055347,6.67509455 L6.58306153,11.8837754 L2.99248418,3.11264182 Z" id="Shape"></path>
                </g>
            </g>
        </g>
    </g>
</svg>