<?xml version="1.0" encoding="UTF-8"?>
<svg width="24px" height="24px" viewBox="0 0 24 24" version="1.1" xmlns="http://www.w3.org/2000/svg" xmlns:xlink="http://www.w3.org/1999/xlink">
    <title>lDoge Copy 2</title>
    <g id="⭐️-04_Icon" stroke="none" stroke-width="1" fill="none" fill-rule="evenodd">
        <g id="Icon_Tokens-(Inactive)" transform="translate(-151.000000, -940.000000)">
            <g id="Icon/Crypto/Uni---Inactive" transform="translate(151.000000, 940.000000)">
                <g id="Setup/Button/Filled---Grey" fill="#F6F5F6">
                    <circle id="Oval" cx="12" cy="12" r="12"></circle>
                </g>
                <g id="Logo/Crypto/Uni" transform="translate(4.800000, 4.800000)" fill="#5A575C">
                    <path d="M7.56280439,11.4086598 C7.95620645,11.5125773 8.31249511,11.7352577 8.49806212,12.0098969 C8.67620645,12.2771134 8.75785594,12.5072165 8.83950542,13.0193814 C8.86919614,13.2197938 8.90630955,13.4276289 8.91373223,13.4721649 C8.97311367,13.7393814 9.09187656,13.9472165 9.24033016,14.0585567 C9.47043326,14.2292784 9.871258,14.236701 10.2646601,14.0882474 C10.3314642,14.0659794 10.3908456,14.0437113 10.3908456,14.051134 C10.405691,14.0659794 10.2052786,14.1995876 10.0716704,14.2663918 C9.88610336,14.3628866 9.73764975,14.3925773 9.53723738,14.3925773 C9.18094872,14.3925773 8.87661882,14.2070103 8.63167037,13.8358763 C8.57971161,13.7616495 8.47579408,13.5463918 8.38672192,13.3459794 C8.1269281,12.7447423 7.99331986,12.5665979 7.68898996,12.3661856 C7.42177346,12.1954639 7.08033016,12.1583505 6.82053635,12.2845361 C6.47909305,12.4478351 6.39002089,12.8857732 6.62754666,13.1529897 C6.7240415,13.2643299 6.90218583,13.3534021 7.05063944,13.3756701 C7.32527862,13.4127835 7.56280439,13.1975258 7.56280439,12.9228866 C7.56280439,12.7447423 7.49600027,12.6408247 7.31785594,12.5591753 C7.08033016,12.4552577 6.82053635,12.5740206 6.82795903,12.8041237 C6.82795903,12.9006186 6.87249511,12.96 6.96898996,13.0045361 C7.0283714,13.0342268 7.0283714,13.0342268 6.98383532,13.0268041 C6.76857759,12.982268 6.71661882,12.7150515 6.88734047,12.5443299 C7.09517553,12.3364948 7.53311367,12.425567 7.68156728,12.7150515 C7.74094872,12.8338144 7.7483714,13.0713402 7.69641264,13.2197938 C7.57022707,13.5463918 7.21393841,13.7171134 6.85022707,13.6206186 C6.60527862,13.5538144 6.50136109,13.4870103 6.20445388,13.1826804 C5.68486625,12.6482474 5.48445388,12.5443299 4.74218583,12.4329897 L4.60115491,12.4107216 L4.7570312,12.262268 C5.30630955,11.8020619 5.98177346,11.4754639 6.60527862,11.3715464 C6.87249511,11.3270103 7.31785594,11.3418557 7.56280439,11.4086598 Z M10.1978559,8.7142268 C10.2127013,8.7142268 10.2572374,8.73649485 10.3017735,8.76618557 C10.3908456,8.82556701 10.5764126,8.92948454 11.0514642,9.18927835 C11.6527013,9.51587629 11.9941446,9.76824742 12.2316704,10.057732 C12.4395054,10.3101031 12.565691,10.5995876 12.6250724,10.9558763 C12.6621858,11.1562887 12.6399178,11.6387629 12.587959,11.8391753 C12.4246601,12.4701031 12.053526,12.9748454 11.5116704,13.2643299 C11.4300209,13.308866 11.3632168,13.3385567 11.3557941,13.3385567 C11.3483714,13.3385567 11.3780621,13.2643299 11.4225982,13.1752577 C11.6007425,12.796701 11.6230106,12.4329897 11.4894023,12.0247423 C11.4077528,11.7723711 11.2370312,11.4680412 10.8955879,10.9558763 C10.4873405,10.3620619 10.3908456,10.2061856 10.2869281,9.99092784 C10.0939384,9.56783505 10.0494023,9.16701031 10.1533199,8.78845361 C10.1681652,8.75134021 10.1830106,8.7142268 10.1978559,8.7142268 Z M0.600330164,-1.0658141e-15 C0.622598206,-1.0658141e-15 5.45476315,5.31463918 5.80362913,5.71546392 L5.80362913,5.71546392 L5.90012398,5.81938144 L5.8927013,5.99010309 C5.88527862,6.22020619 5.81105181,6.37608247 5.64033016,6.53195876 C5.44734047,6.71752577 5.20239202,6.81402062 4.82383532,6.86597938 C4.59373223,6.8956701 4.51208274,6.93278351 4.4155879,7.03670103 C4.32651573,7.13319588 4.28940233,7.25938144 4.26713429,7.57113402 C4.23002089,8.06103093 4.17063944,8.2614433 3.94053635,8.74391753 C3.71785594,9.21154639 3.67331986,9.38226804 3.71043326,9.63463918 C3.75496934,9.93154639 3.92569099,10.1542268 4.32651573,10.428866 C4.63084563,10.636701 4.77187656,10.7703093 4.84610336,10.9336082 C4.89063944,11.0375258 4.89806212,11.0746392 4.89806212,11.2453608 C4.89806212,11.5125773 4.85352604,11.6164948 4.67538171,11.8094845 C4.38589717,12.1212371 3.85888687,12.3736082 3.22053635,12.5220619 C2.95331986,12.5814433 2.93847449,12.5814433 2.93847449,12.5220619 C2.93847449,12.4478351 2.83455697,12.2474227 2.66383532,11.9802062 C2.46342295,11.6758763 2.38177346,11.52 2.30754666,11.2824742 C2.22589717,11.0152577 2.19620645,10.8371134 2.21105181,10.5550515 C2.22589717,10.2878351 2.2555879,10.1690722 2.35950542,9.96123711 C2.44115491,9.79051546 2.49311367,9.71628866 2.82713429,9.30061856 C3.39868068,8.59546392 3.59909305,8.17979381 3.67331986,7.59340206 C3.74012398,7.06639175 3.82919614,6.81402062 4.02960851,6.59134021 C4.1483714,6.45773196 4.17806212,6.4057732 4.17806212,6.30927835 C4.17806212,6.26474227 3.99249511,5.90103093 3.42094872,4.88412371 C2.51538171,3.26597938 2.51538171,3.26597938 2.54507243,3.28082474 C2.55249511,3.28824742 2.9755879,3.93402062 3.47290748,4.71340206 C4.12610336,5.73030928 4.4155879,6.15340206 4.48239202,6.22020619 C4.57888687,6.31670103 4.71991779,6.37608247 4.83868068,6.37608247 C4.94259821,6.37608247 5.15785594,6.31670103 5.26177346,6.25731959 C5.44734047,6.15340206 5.49187656,6.01237113 5.38053635,5.86391753 C5.2469281,5.6857732 2.58218583,2.41979381 0.852701298,0.319175258 C0.711670371,0.141030928 0.592907484,-1.0658141e-15 0.600330164,-1.0658141e-15 Z M9.50012398,8.37278351 L9.5669281,8.45443299 C9.66342295,8.5657732 9.73764975,8.69938144 9.80445388,8.88494845 C9.85641264,9.02597938 9.85641264,9.07051546 9.85641264,9.30061856 C9.85641264,9.52329897 9.84898996,9.57525773 9.80445388,9.7014433 C9.73022707,9.90185567 9.64115491,10.0428866 9.4927013,10.1987629 C9.2254848,10.4734021 8.87661882,10.6218557 8.37929924,10.6886598 C8.29022707,10.6960825 8.03785594,10.7183505 7.81517553,10.7331959 C7.25847449,10.7628866 6.88734047,10.822268 6.55331986,10.9410309 C6.50878377,10.9558763 6.46424769,10.9707216 6.45682501,10.963299 C6.44197965,10.9484536 6.67208274,10.8148454 6.85764975,10.7257732 C7.11744357,10.5995876 7.38466006,10.5327835 7.97105181,10.428866 C8.26053635,10.3843299 8.55744357,10.3249485 8.63167037,10.2952577 C9.36651573,10.0651546 9.73022707,9.49360825 9.61146418,8.79587629 C9.59661882,8.68453608 9.55950542,8.54350515 9.53723738,8.48412371 L9.50012398,8.37278351 Z M8.66878377,6.34639175 C8.67620645,6.34639175 8.72816522,6.39092784 8.79496934,6.4428866 C9.09187656,6.68041237 9.42589717,6.7843299 10.3537322,6.91793814 C10.8955879,6.99958763 11.2073405,7.05896907 11.4894023,7.15546392 C12.3875467,7.45237113 12.9442477,8.06103093 13.0778559,8.88494845 C13.1149693,9.12247423 13.0927013,9.57525773 13.0333199,9.81278351 C12.9813611,9.99835052 12.8329075,10.3397938 12.7957941,10.3472165 C12.7883714,10.3472165 12.773526,10.3101031 12.773526,10.2507216 C12.7586807,9.93896907 12.6028044,9.64206186 12.3430106,9.41195876 C12.031258,9.14474227 11.6304333,8.9443299 10.6506394,8.55092784 C9.18094872,7.9571134 8.66136109,7.44494845 8.66136109,6.57649485 C8.66136109,6.45030928 8.66878377,6.34639175 8.66878377,6.34639175 Z M6.13764975,6.97007065 C6.25641264,6.93260187 6.48651573,6.95508314 6.59785594,7.01503318 C6.81311367,7.1274395 6.96898996,7.37473343 6.93187656,7.55458355 C6.89476315,7.77190245 6.54589717,7.95175258 6.13764975,7.95175258 C5.9298147,7.95175258 5.8555879,7.92177756 5.77393841,7.81686498 C5.72197965,7.74942119 5.70713429,7.53210229 5.73682501,7.4122022 C5.78878377,7.21736457 5.95950542,7.02252693 6.13764975,6.97007065 Z M6.03373223,7.2623271 C6.03373223,7.35974592 6.18960851,7.46465849 6.33806212,7.46465849 C6.43455697,7.46465849 6.56816522,7.40470845 6.6127013,7.34475841 C6.67208274,7.25483334 6.6498147,7.15741453 6.53847449,7.08997073 C6.33806212,6.96257689 6.03373223,7.06748946 6.03373223,7.2623271 Z M6.10795903,3.2956701 C6.64239202,3.42185567 7.12486625,3.74845361 7.6370312,4.32 L7.77063944,4.47587629 L7.96362913,4.44618557 C8.78754666,4.31257732 9.63373223,4.41649485 10.3388869,4.74309278 C10.5318766,4.83216495 10.8362065,5.01030928 10.8733199,5.05484536 C10.8881652,5.06969072 10.9104333,5.16618557 10.9252786,5.26268041 C10.9772374,5.61154639 10.9549693,5.87134021 10.8436291,6.07175258 C10.7842477,6.18309278 10.7842477,6.21278351 10.8213611,6.30927835 C10.8510518,6.38350515 10.940124,6.43546392 11.0217735,6.43546392 C11.1999178,6.43546392 11.3854848,6.15340206 11.474557,5.76 L11.5116704,5.60412371 L11.5784745,5.67835052 C11.9570312,6.1014433 12.2539384,6.68783505 12.2984745,7.10350515 L12.3133199,7.21484536 L12.2465157,7.11835052 C12.1351755,6.94762887 12.031258,6.83628866 11.8902271,6.73979381 C11.6378559,6.56907216 11.3706394,6.5171134 10.6654848,6.48 C10.0271343,6.4428866 9.66342295,6.39092784 9.30713429,6.27216495 C8.69847449,6.07175258 8.38672192,5.81195876 7.66672192,4.85443299 C7.34754666,4.43134021 7.14713429,4.20123711 6.94672192,4.00824742 C6.50878377,3.58515464 6.07084563,3.36247423 5.49929924,3.27340206 C5.34342295,3.25113402 5.33600027,3.24371134 5.41022707,3.23628866 C5.551258,3.21402062 5.87785594,3.24371134 6.10795903,3.2956701 Z M11.2296085,3.45154639 C11.2370312,3.45154639 11.2221858,3.50350515 11.1999178,3.5628866 C11.1405363,3.72618557 11.1331137,3.95628866 11.1702271,4.21608247 C11.2221858,4.55010309 11.2444539,4.59463918 11.6007425,4.95835052 C11.7640415,5.12907216 11.9570312,5.3443299 12.031258,5.43340206 L12.1574436,5.59670103 L12.031258,5.47793814 C11.8753817,5.32948454 11.5190931,5.04742268 11.4374436,5.01030928 C11.3854848,4.98061856 11.3780621,4.98061856 11.3409487,5.01773196 C11.311258,5.04742268 11.3038353,5.09195876 11.3038353,5.30721649 C11.2964126,5.64123711 11.2518766,5.84907216 11.1405363,6.0643299 C11.0811549,6.1756701 11.0737322,6.15340206 11.125691,6.02721649 C11.1628044,5.93072165 11.1702271,5.88618557 11.1702271,5.56701031 C11.1702271,4.92123711 11.0960003,4.76536082 10.6432168,4.50556701 C10.5318766,4.43876289 10.3388869,4.34226804 10.2275467,4.29030928 C10.1087838,4.23835052 10.0197116,4.19381443 10.0271343,4.19381443 C10.0419796,4.17896907 10.4799178,4.30515464 10.6506394,4.37938144 C10.9104333,4.48329897 10.9549693,4.49072165 10.9846601,4.48329897 C11.0069281,4.46103093 11.0217735,4.40164948 11.0291961,4.21608247 C11.0440415,3.93402062 11.0811549,3.74845361 11.1628044,3.57773196 C11.1924951,3.51092784 11.2221858,3.45154639 11.2296085,3.45154639 Z M5.35084563,3.57030928 L5.42507243,3.58515464 C5.55868068,3.60742268 5.78878377,3.69649485 5.90012398,3.76329897 C6.1970312,3.9414433 6.33063944,4.18639175 6.45682501,4.79505155 C6.49393841,4.97319588 6.54589717,5.18103093 6.56816522,5.24783505 C6.60527862,5.35917526 6.74630955,5.61896907 6.86507243,5.78226804 C6.94672192,5.90103093 6.89476315,5.96041237 6.70919614,5.94556701 C6.42713429,5.91587629 6.04857759,5.65608247 5.80362913,5.32206186 C5.49187656,4.89154639 5.29146418,4.22350515 5.33600027,3.72618557 L5.35084563,3.57030928 Z" id="Combined-Shape"></path>
                </g>
            </g>
        </g>
    </g>
</svg>