<?xml version="1.0" encoding="UTF-8"?>
<svg width="24px" height="24px" viewBox="0 0 24 24" version="1.1" xmlns="http://www.w3.org/2000/svg" xmlns:xlink="http://www.w3.org/1999/xlink">
    <title>4C1D33C9-640A-4098-B984-9AC9999692A2</title>
    <defs>
        <filter id="filter-1">
            <feColorMatrix in="SourceGraphic" type="matrix" values="0 0 0 0 0.235294 0 0 0 0 0.227451 0 0 0 0 0.243137 0 0 0 1.000000 0"></feColorMatrix>
        </filter>
    </defs>
    <g id="🕹-Component" stroke="none" stroke-width="1" fill="none" fill-rule="evenodd">
        <g id="Market-Icon" transform="translate(-266.000000, -244.000000)">
            <g id="Icon/Crypto/LUSD-Disable" transform="translate(266.000000, 244.000000)">
                <g id="Setup/Button/Filled---Grey" fill="#F6F5F6">
                    <circle id="Oval" cx="12" cy="12" r="12"></circle>
                </g>
                <path d="M7.92032967,19.2 C8.30934066,19.2 8.62747253,19.0912088 8.87472527,18.8736264 C9.12197802,18.656044 9.2456044,18.3642857 9.2456044,17.9983516 L9.2456044,17.9983516 L9.2456044,15.6692308 L8.56318681,15.6692308 L8.56318681,17.943956 C8.56318681,18.1252747 8.51126374,18.2686813 8.40741758,18.3741758 C8.30357143,18.4796703 8.14120879,18.5324176 7.92032967,18.5324176 C7.69945055,18.5324176 7.53708791,18.4796703 7.43324176,18.3741758 C7.3293956,18.2686813 7.27747253,18.1252747 7.27747253,17.943956 L7.27747253,17.943956 L7.27747253,15.6692308 L6.6,15.6692308 L6.6,17.9983516 C6.6,18.3642857 6.72362637,18.656044 6.97087912,18.8736264 C7.21813187,19.0912088 7.53461538,19.2 7.92032967,19.2 Z M11.6587912,19.2 C12.0313187,19.2 12.3337912,19.106044 12.5662088,18.9181319 C12.7986264,18.7302198 12.9148352,18.4763736 12.9148352,18.1565934 C12.9148352,18.0576923 12.9024725,17.9662088 12.8777473,17.8821429 C12.853022,17.7980769 12.8233516,17.7263736 12.7887363,17.667033 C12.7541209,17.6076923 12.7038462,17.55 12.6379121,17.493956 C12.571978,17.4379121 12.5134615,17.3934066 12.4623626,17.3604396 C12.4112637,17.3274725 12.3387363,17.292033 12.2447802,17.2541209 C12.1508242,17.2162088 12.0766484,17.1881868 12.0222527,17.1700549 C11.9678571,17.1519231 11.8879121,17.1263736 11.7824176,17.0934066 C11.5252747,17.0142857 11.3513736,16.9409341 11.2607143,16.8733516 C11.1700549,16.8057692 11.1247253,16.7175824 11.1247253,16.6087912 C11.1247253,16.5065934 11.1651099,16.4233516 11.2458791,16.3590659 C11.3266484,16.2947802 11.4379121,16.2626374 11.5796703,16.2626374 C11.882967,16.2626374 12.1038462,16.410989 12.2423077,16.7076923 L12.2423077,16.7076923 L12.8159341,16.3763736 C12.6972527,16.1324176 12.5315934,15.942033 12.318956,15.8052198 C12.1063187,15.6684066 11.8598901,15.6 11.5796703,15.6 C11.2664835,15.6 10.9986264,15.6931319 10.7760989,15.8793956 C10.5535714,16.0656593 10.4423077,16.3153846 10.4423077,16.6285714 C10.4423077,16.7868132 10.4703297,16.9252747 10.5263736,17.043956 C10.5824176,17.1626374 10.664011,17.2607143 10.7711538,17.3381868 C10.8782967,17.4156593 10.9854396,17.4774725 11.0925824,17.5236264 C11.1997253,17.5697802 11.3307692,17.6159341 11.4857143,17.6620879 C11.7659341,17.7412088 11.9604396,17.8145604 12.0692308,17.8821429 C12.178022,17.9497253 12.2324176,18.0445055 12.2324176,18.1664835 C12.2324176,18.271978 12.1879121,18.3593407 12.0989011,18.4285714 C12.0098901,18.4978022 11.8697802,18.5324176 11.6785714,18.5324176 C11.282967,18.5324176 11.0175824,18.356044 10.8824176,18.0032967 L10.8824176,18.0032967 L10.2989011,18.3445055 C10.3945055,18.6082418 10.5593407,18.8167582 10.7934066,18.9700549 C11.0274725,19.1233516 11.3159341,19.2 11.6587912,19.2 Z M15.328022,19.1307692 C15.8027473,19.1307692 16.1991758,18.9642857 16.5173077,18.6313187 C16.8354396,18.2983516 16.9945055,17.8879121 16.9945055,17.4 C16.9945055,16.9120879 16.8354396,16.5016484 16.5173077,16.1686813 C16.1991758,15.8357143 15.8027473,15.6692308 15.328022,15.6692308 L15.328022,15.6692308 L13.9532967,15.6692308 L13.9532967,19.1307692 L15.328022,19.1307692 Z M15.328022,18.478022 L14.6357143,18.478022 L14.6357143,16.321978 L15.328022,16.321978 C15.628022,16.321978 15.871978,16.4217033 16.0598901,16.6211538 C16.2478022,16.8206044 16.3417582,17.0802198 16.3417582,17.4 C16.3417582,17.7197802 16.2478022,17.9793956 16.0598901,18.1788462 C15.871978,18.3782967 15.628022,18.478022 15.328022,18.478022 L15.328022,18.478022 Z" id="USD" fill="#3C3A3E"></path>
                <g filter="url(#filter-1)" id="Logo/Crypto/Linear---white-Copy-2">
                    <g transform="translate(7.200000, 4.800000)">
                        <path d="M8.3882251,5.9764502 L8.3882251,7.1764502 L1.6,7.1764502 L1.6,5.9764502 L8.3882251,5.9764502 Z M8.3882251,3.9882251 L8.3882251,5.1882251 L1.6,5.1882251 L1.6,3.9882251 L8.3882251,3.9882251 Z M8.3882251,2 L8.3882251,3.2 L1.6,3.2 L1.6,2 L8.3882251,2 Z" id="Combined-Shape" fill="#3C3A3E" transform="translate(4.994113, 4.588225) rotate(-45.000000) translate(-4.994113, -4.588225) "></path>
                    </g>
                </g>
            </g>
        </g>
    </g>
</svg>