<?xml version="1.0" encoding="UTF-8"?>
<svg width="24px" height="24px" viewBox="0 0 24 24" version="1.1" xmlns="http://www.w3.org/2000/svg" xmlns:xlink="http://www.w3.org/1999/xlink">
    <title>lVet@1.5x</title>
    <g id="⭐️-04_Icon" stroke="none" stroke-width="1" fill="none" fill-rule="evenodd">
        <g id="Icon_Tokens-(Active)" transform="translate(-434.000000, -772.000000)">
            <g id="Icon/Crypto/vet" transform="translate(434.000000, 772.000000)">
                <circle id="Oval" fill="#9D4ABE" fill-rule="nonzero" cx="12" cy="12" r="12"></circle>
                <g id="Logo/Crypto/vet" transform="translate(4.800000, 4.800000)" fill="#FFFFFF" fill-rule="evenodd">
                    <path d="M6.35863303,12.61781 L1.22632315,2.1641936 C1.14292461,1.99739653 1.26832241,1.8 1.45311917,1.8 L3.23148794,1.8 C3.32688626,1.8 3.41628469,1.85399905 3.45828396,1.93739759 L7.20641814,9.52126442 C7.54061227,10.2016525 8.5071953,10.2016525 8.84138943,9.52126442 L12.5775238,1.94339748 C12.6195231,1.85999895 12.7089215,1.80599989 12.8043198,1.80599989 L13.025116,1.80599989 C13.1565137,1.80599989 13.2399122,1.94339748 13.1805132,2.05679549 L7.99420431,12.61781 C7.66001018,13.2975981 6.69282716,13.2975981 6.35863303,12.61781 Z" id="Path"></path>
                </g>
            </g>
        </g>
    </g>
</svg>