<?xml version="1.0" encoding="UTF-8"?>
<svg width="24px" height="24px" viewBox="0 0 24 24" version="1.1" xmlns="http://www.w3.org/2000/svg" xmlns:xlink="http://www.w3.org/1999/xlink">
    <title>FDB3E501-3B73-4DA9-AB3A-892AA40B7F9D</title>
    <defs>
        <filter id="filter-1">
            <feColorMatrix in="SourceGraphic" type="matrix" values="0 0 0 0 0.235294 0 0 0 0 0.227451 0 0 0 0 0.243137 0 0 0 1.000000 0"></feColorMatrix>
        </filter>
    </defs>
    <g id="🕹-Component" stroke="none" stroke-width="1" fill="none" fill-rule="evenodd">
        <g id="Market-Icon" transform="translate(-586.000000, -388.000000)">
            <g id="Icon/Commities/Silver---Inactive" transform="translate(586.000000, 388.000000)">
                <g id="Setup/Button/Filled---Grey" fill="#F6F5F6">
                    <circle id="Oval" cx="12" cy="12" r="12"></circle>
                </g>
                <g id="Logo/Crypto/Silver" transform="translate(4.800000, 4.800000)">
                    <g filter="url(#filter-1)" id="Group">
                        <g transform="translate(1.200000, 3.000000)">
                            <path d="M8.18461946,2.08695652 C9.00426785,2.08695652 9.74094948,2.58706974 10.0434396,3.34885922 L10.0434396,3.34885922 L10.941182,5.60972879 C11.0344565,5.84463057 11.0823619,6.09508321 11.0823619,6.34782609 C11.0823619,7.45239559 10.1869314,8.34782609 9.08236188,8.34782609 L9.08236188,8.34782609 L4.53969808,8.34782609 C4.2869552,8.34782609 4.03650256,8.29992066 3.80160078,8.20664624 C2.77500275,7.79900636 2.27323804,6.63632681 2.68087792,5.60972879 L2.68087792,5.60972879 L3.57862035,3.34885922 C3.88111048,2.58706974 4.61779211,2.08695652 5.43744051,2.08695652 L5.43744051,2.08695652 Z M8.72296473,3.13043478 L6.23210169,3.13043478 C5.4248647,3.13043478 4.69676638,3.61571466 4.38612198,4.36078622 L3.15885607,7.30434783 L8.72296473,3.13043478 Z" id="Combined-Shape" fill="#3C3A3E"></path>
                            <path d="M6.45097368,0 C7.12238821,-7.89470663e-16 7.72432334,0.413882415 7.96467672,1.04080165 L7.96467672,1.04080165 L7.96006521,1.043 L4.82927615,1.04347826 C3.99600216,1.04347826 3.25004106,1.56011652 2.95701647,2.34016916 L1.31506521,6.71 L1.21251461,6.7100719 C1.17724853,6.70735911 1.14220943,6.70223073 1.10764514,6.69472302 L1.00562448,6.66509818 C0.604491115,6.51806921 0.398498803,6.07369583 0.545527777,5.67256246 L0.545527777,5.67256246 L2.14392782,1.31171049 C2.43271318,0.523828738 3.1826218,1.04232579e-15 4.02176102,0 L4.02176102,0 Z" id="Combined-Shape-Copy" fill="#3C3A3E"></path>
                        </g>
                    </g>
                </g>
            </g>
        </g>
    </g>
</svg>