<?xml version="1.0" encoding="UTF-8"?>
<svg width="24px" height="24px" viewBox="0 0 24 24" version="1.1" xmlns="http://www.w3.org/2000/svg" xmlns:xlink="http://www.w3.org/1999/xlink">
    <title>3675469D-936F-41DA-B079-14874FB4C5F5</title>
    <g id="🕹-Component" stroke="none" stroke-width="1" fill="none" fill-rule="evenodd">
        <g id="Market-Icon" transform="translate(-500.000000, -316.000000)">
            <g id="Icon/Commities/Gold" transform="translate(500.000000, 316.000000)">
                <circle id="Oval" fill="#F0B623" cx="12" cy="12" r="12"></circle>
                <g id="Logo/Crypto/Gold" transform="translate(4.800000, 4.800000)" fill="#FFFFFF">
                    <path d="M9.31157572,3 C10.1312241,3 10.8679057,3.50011322 11.1703959,4.2619027 L11.1703959,4.2619027 L12.739691,8.21400685 C12.8329654,8.44890863 12.8808708,8.69936128 12.8808708,8.95210415 C12.8808708,10.0566737 11.9854403,10.9521042 10.8808708,10.9521042 L10.8808708,10.9521042 L3.51948272,10.9521042 C3.26673984,10.9521042 3.0162872,10.9041987 2.78138542,10.8109243 C1.75478739,10.4032844 1.25302268,9.24060488 1.66066256,8.21400685 L1.66066256,8.21400685 L3.22995768,4.2619027 C3.53244782,3.50011322 4.26912945,3 5.08877784,3 L5.08877784,3 Z M9.62857815,4.32535069 L6.10478186,4.32535069 C5.29754487,4.32535069 4.56944655,4.81063057 4.25880216,5.55570213 L2.56144936,9.62675346 L9.62857815,4.32535069 Z" id="Combined-Shape"></path>
                </g>
            </g>
        </g>
    </g>
</svg>