<svg xmlns="http://www.w3.org/2000/svg" width="24" height="24" viewBox="0 0 24 24">
    <g fill="none" fill-rule="evenodd">
        <g>
            <g transform="translate(-434 -884) translate(434 884)">
                <circle cx="12" cy="12" r="12" fill="#6800BF"/>
                <g fill="#FFF">
                    <path d="M2.132 3.125l5.181 7.713-1.849.01-1.797-2.613-1.797 2.612H0L2.701 6.83.255 3.125h1.877zM11.447 3c.778 0 1.377.17 1.803.508.432.353.668.89.637 1.447.012.415-.12.822-.373 1.15-.243.304-.582.515-.961.6.431.084.82.316 1.101.654.268.333.412.75.406 1.178.03.584-.21 1.15-.653 1.533-.436.372-1.06.558-1.874.558H7.987V3h3.46zm-.178 4.405H9.831v1.716h1.319c.68-.001 1.021-.282 1.021-.843v-.004c.01-.244-.093-.48-.277-.64-.182-.137-.4-.216-.625-.229zm-.253-2.939H9.827v1.637h1.21c.64 0 .961-.273.961-.82 0-.547-.327-.82-.982-.817zM7.15 3.125L5.174 6.07l-.982-1.401 1.071-1.544H7.15z" transform="translate(4.8 4.8)"/>
                </g>
            </g>
        </g>
    </g>
</svg>
