<?xml version="1.0" encoding="UTF-8"?>
<svg width="24px" height="24px" viewBox="0 0 24 24" version="1.1" xmlns="http://www.w3.org/2000/svg" xmlns:xlink="http://www.w3.org/1999/xlink">
    <title>7E9BB17C-6225-4533-A117-BFF58BDB6986</title>
    <g id="🕹-Component" stroke="none" stroke-width="1" fill="none" fill-rule="evenodd">
        <g id="Market-Icon" transform="translate(-586.000000, -244.000000)">
            <g id="Icon/Commities/Coffee---Inactive" transform="translate(586.000000, 244.000000)">
                <g id="Setup/Button/Filled---Grey" fill="#F6F5F6">
                    <circle id="Oval" cx="12" cy="12" r="12"></circle>
                </g>
                <g id="Logo/Crypto/Coffee" transform="translate(4.800000, 4.800000)" fill="#3C3A3E">
                    <path d="M6.57293986,1.21520282 C6.81840901,1.14974438 7.05842329,1.30248074 7.14570121,1.54249502 L7.53299698,2.59528494 C8.06587319,4.03345398 7.83823656,5.64331663 6.92750641,6.8773579 C5.79630645,8.40565925 5.5112519,10.4010411 6.16927948,12.1849464 C6.32201584,12.5995165 5.95108468,12.9868123 5.57469865,12.7522529 C4.05824478,11.8031055 3,9.67025135 3,7.19919523 C3,4.21538133 4.53827334,1.73341547 6.57293986,1.21520282 Z M9.15309338,1.64613755 C8.77125248,1.41157814 8.40577619,1.79887391 8.55305768,2.21344403 C9.21855182,3.99718653 8.93489858,5.99366896 7.80028562,7.52103256 C6.88955547,8.75507383 6.66191884,10.3649365 7.19479504,11.8031055 L7.58209081,12.8613503 C7.66936874,13.0959097 7.90938302,13.2431912 8.15485217,13.1886425 C10.1895187,12.6595201 11.727792,10.1830091 11.727792,7.19919523 C11.727792,4.72813911 10.6695472,2.59528494 9.15309338,1.64613755 Z" id="Shape"></path>
                </g>
            </g>
        </g>
    </g>
</svg>