<?xml version="1.0" encoding="UTF-8"?>
<svg width="24px" height="24px" viewBox="0 0 24 24" version="1.1" xmlns="http://www.w3.org/2000/svg" xmlns:xlink="http://www.w3.org/1999/xlink">
    <title>lBTC</title>
    <g id="⭐️-04_Icon" stroke="none" stroke-width="1" fill="none" fill-rule="evenodd">
        <g id="Icon_Commodities" transform="translate(-151.000000, -268.000000)">
            <g id="Icon/Commities/Copper" transform="translate(151.000000, 268.000000)">
                <circle id="Oval" fill="#AD5729" cx="12" cy="12" r="12"></circle>
                <g id="Logo/Crypto/Copper" transform="translate(4.800000, 4.800000)" fill="#FFFFFF">
                    <path d="M11.1923048,3.62264973 L7.99615242,1.77735027 C7.37735027,1.42008468 6.61495458,1.42008468 5.99615242,1.77735027 L2.8,3.62264973 C2.18119785,3.97991532 1.8,4.64016936 1.8,5.35470054 L1.8,9.04529946 C1.8,9.75983064 2.18119785,10.4200847 2.8,10.7773503 L5.99615242,12.6226497 C6.61495458,12.9799153 7.37735027,12.9799153 7.99615242,12.6226497 L11.1923048,10.7773503 C11.811107,10.4200847 12.1923048,9.75983064 12.1923048,9.04529946 L12.1923048,5.35470054 C12.1923048,4.64016936 11.811107,3.97991532 11.1923048,3.62264973 Z M9.61621108,10.4445782 L7.49607713,11.6684988 C7.18671523,11.8470887 6.8055834,11.8470995 6.4962114,11.6685271 L3.37547003,9.86720634 C3.06601733,9.68858738 2.87537842,9.35843143 2.87537842,9.00112805 L2.87537842,6.55290696 C2.87537842,6.00062221 3.32309367,5.55290696 3.87537842,5.55290696 C4.0509054,5.55290696 4.22334035,5.59910812 4.37535368,5.68686727 L9.616229,8.71248846 C10.0945295,8.98861717 10.2584221,9.6002029 9.98229342,10.0785034 C9.89451624,10.230548 9.76825747,10.3568041 9.61621108,10.4445782 Z" id="Polygon-Copy" transform="translate(6.996152, 7.200000) rotate(-270.000000) translate(-6.996152, -7.200000) "></path>
                </g>
            </g>
        </g>
    </g>
</svg>