<svg xmlns="http://www.w3.org/2000/svg" width="24" height="24" viewBox="0 0 24 24">
    <g fill="none" fill-rule="evenodd">
        <g>
            <g>
                <g fill="#F6F5F6" transform="translate(-688 -323) translate(688 323)">
                    <circle cx="12" cy="12" r="12"/>
                </g>
                <g fill="#5A575C">
                    <path d="M12.9 4.749v.956l-.404.205c-.307.157-.49.483-.463.826.009.12.013.24.013.36 0 1.766-.99 3.382-2.564 4.184-1.573.801-3.462.653-4.891-.384l.83-.423.046-.025c1.19.667 2.645.654 3.823-.036 1.178-.689 1.902-1.95 1.902-3.315 0-.17-.01-.338-.032-.506L4.699 9.883l-1.337.681-1.562.796v-.958L3.373 9.6l.765-.39L12.9 4.749zM5.217 2.912c1.573-.802 3.463-.654 4.892.384l-.115.058-.765.39c-1.19-.665-2.642-.65-3.818.04-1.176.688-1.9 1.948-1.901 3.311 0 .168.01.336.033.502L9.997 4.31l1.336-.681 1.567-.8v.96l-1.58.805-.765.39L3.751 8.45l-.379.193-.384.197-1.188.605v-.96l.403-.205c.307-.157.49-.482.464-.826-.009-.119-.013-.238-.013-.357 0-1.766.99-3.382 2.563-4.185z" transform="translate(-688 -323) translate(688 323) translate(4.8 4.8)"/>
                </g>
            </g>
        </g>
    </g>
</svg>
