<?xml version="1.0" encoding="UTF-8"?>
<svg width="24px" height="24px" viewBox="0 0 24 24" version="1.1" xmlns="http://www.w3.org/2000/svg" xmlns:xlink="http://www.w3.org/1999/xlink">
    <title>A54F967E-E0AD-414C-AA79-47C061C5A670</title>
    <g id="🕹-Component" stroke="none" stroke-width="1" fill="none" fill-rule="evenodd">
        <g id="Market-Icon" transform="translate(-180.000000, -676.000000)">
            <g id="Icon/Crypto/XRP" transform="translate(180.000000, 676.000000)">
                <circle id="Oval" fill="#23292F" cx="12" cy="12" r="12"></circle>
                <g id="Logo/Crypto/XRP" transform="translate(4.800000, 4.800000)" fill="#FFFFFF">
                    <path d="M9.5671875,8.8561309 L13.2,12.4 L11.465625,12.4 L8.7,9.70271415 C7.86865737,8.89518694 6.533452,8.89518694 5.70210938,9.70271415 L2.93554688,12.4 L1.2,12.4 L4.8328125,8.8561309 C6.13992188,7.5812897 8.25914063,7.5812897 9.5671875,8.8561309 Z M2.94238325,2.4 L5.69500059,5.08854531 C6.5295052,5.89998785 7.869789,5.89998785 8.70429361,5.08854531 L11.4590283,2.4 L13.2,2.4 L9.57689684,5.93923326 C8.2648159,7.22025558 6.13753676,7.22025558 4.82451476,5.93923326 L1.2,2.4 L2.94238325,2.4 Z" id="Combined-Shape"></path>
                </g>
            </g>
        </g>
    </g>
</svg>