<svg xmlns="http://www.w3.org/2000/svg" width="24" height="24" viewBox="0 0 24 24">
    <g fill="none" fill-rule="evenodd">
        <g>
            <g>
                <g fill="#F6F5F6" transform="translate(-688 -156) translate(688 156)">
                    <circle cx="12" cy="12" r="12"/>
                </g>
                <g fill="#5A575C">
                    <g>
                        <path d="M3.758 10.611L3.758 2.432 4.642 2.432 4.642 10.611z" transform="translate(-688 -156) translate(688 156) translate(4.8 4.8) translate(3 .6)"/>
                        <path d="M8.4 5.144l-2.757.728-.615-2.846.82-.184.323 1.348s.745-1.215-.248-2.473c-.586-.647-.864-.675-1.52-.776-.577-.083-1.92.111-2.32 1.67-.169 1.003.022 1.746 1.323 2.718L3.333 6.41S1.88 5.393 1.506 4.68c-.29-.564-.786-1.68.11-3.232C2.1.672 3.051-.072 4.728.006c.844.035 2.903 1.06 2.584 3.455-.055.449-.29 1.046-.29 1.046l1.132-.25.246.887zM6.734 11.441c-.509.766-1.488 1.489-3.174 1.367-.85-.058-2.895-1.142-2.51-3.539.068-.449.32-1.041.32-1.041l-1.146.22L0 7.552l2.798-.657.544 2.874-.832.164-.29-1.365s-.782 1.2.183 2.491c.572.666.85.7 1.51.82.579.098 1.937-.064 2.382-1.617.196-1.002.024-1.755-1.26-2.767l.104-1.084S6.575 7.47 6.932 8.196c.274.577.745 1.711-.198 3.245z" transform="translate(-688 -156) translate(688 156) translate(4.8 4.8) translate(3 .6)"/>
                    </g>
                </g>
            </g>
        </g>
    </g>
</svg>
