<?xml version="1.0" encoding="UTF-8"?>
<svg width="24px" height="24px" viewBox="0 0 24 24" version="1.1" xmlns="http://www.w3.org/2000/svg" xmlns:xlink="http://www.w3.org/1999/xlink">
    <title>EDC5146A-BDA4-402D-96B7-AB8095C0F565</title>
    <g id="🕹-Component" stroke="none" stroke-width="1" fill="none" fill-rule="evenodd">
        <g id="Market-Icon" transform="translate(-180.000000, -964.000000)">
            <g id="Icon/Crypto/Zec" transform="translate(180.000000, 964.000000)">
                <circle id="Oval" fill="#E3B459" cx="12" cy="12" r="12"></circle>
                <g id="Logo/Crypto/Zec" transform="translate(4.800000, 4.800000)" fill="#FFFFFF">
                    <path d="M6.52914023,9.50800067 L10.5378052,9.50800067 L10.5378052,11.5183564 L8.06954407,11.5183564 C8.10971106,12.0936028 8.1318029,12.626758 8.17196988,13.2 L6.09533681,13.2 L6.09533681,11.5383999 L3.62707564,11.5383999 C3.62707564,10.8809754 3.54473332,10.2255554 3.66724262,9.61022215 C3.72950145,9.28150994 4.0990377,8.99488893 4.32598116,8.70826791 C5.107229,7.78426591 5.88847684,6.88231168 6.68980817,5.95830967 C6.99909395,5.60955403 7.30637138,5.28084182 7.65582414,4.89199933 L3.81184377,4.89199933 L3.81184377,2.88164356 L6.09332846,2.88164356 L6.09332846,1.2 L8.08761921,1.2 L8.08761921,2.84155671 L10.5759639,2.84155671 C10.5759639,3.51902455 10.6583062,4.17444463 10.5357969,4.79178219 C10.4735381,5.1204944 10.1040018,5.40711542 9.85697486,5.69373643 C9.07572702,6.61773843 8.29447918,7.51969267 7.49314785,8.44369467 C7.18787877,8.81048939 6.88060134,9.13719726 6.52914023,9.50800067 L6.52914023,9.50800067 Z" id="Path"></path>
                </g>
            </g>
        </g>
    </g>
</svg>