<svg width="160" height="160" viewBox="0 0 160 160" fill="none" xmlns="http://www.w3.org/2000/svg">
<path opacity="0.3" fill-rule="evenodd" clip-rule="evenodd" d="M109.267 11H33.7333C26.1486 11 20 17.1785 20 24.8V135.2C20 142.822 26.1486 149 33.7333 149H109.267C116.851 149 123 142.822 123 135.2V88.7968L116.133 95.8197V135.2C116.133 139.011 113.059 142.1 109.267 142.1H33.7333C29.941 142.1 26.8667 139.011 26.8667 135.2V24.8C26.8667 20.9892 29.941 17.9 33.7333 17.9H109.267C113.059 17.9 116.133 20.9892 116.133 24.8V34.144L123 27.3253V24.8C123 17.1785 116.851 11 109.267 11ZM90.8004 59.3H43.69L43.1346 59.3556C41.6931 59.6477 40.6 61.0563 40.6 62.75C40.6 64.6554 41.9834 66.2 43.69 66.2H83.8518L90.8004 59.3ZM77.2423 80H43.69L43.1346 80.0556C41.6931 80.3477 40.6 81.7563 40.6 83.45C40.6 85.3554 41.9834 86.9 43.69 86.9H74.1617L77.2423 80ZM64.9767 100.7C66.6832 100.7 68.0667 102.245 68.0667 104.15C68.0667 105.844 66.9736 107.252 65.5321 107.544L64.9767 107.6H43.69C41.9834 107.6 40.6 106.055 40.6 104.15C40.6 102.456 41.6931 101.048 43.1346 100.756L43.69 100.7H64.9767ZM99.31 38.6C101.017 38.6 102.4 40.1446 102.4 42.05C102.4 43.7437 101.307 45.1523 99.8654 45.4444L99.31 45.5H43.69C41.9834 45.5 40.6 43.9554 40.6 42.05C40.6 40.3563 41.6931 38.9477 43.1346 38.6556L43.69 38.6H99.31Z" fill="#99999A"/>
<path opacity="0.3" fill-rule="evenodd" clip-rule="evenodd" d="M134.821 26.8784C136.387 25.2942 138.945 25.2942 140.511 26.8784L154.221 40.7499C155.761 42.3082 155.761 44.8154 154.221 46.3736L109.154 91.9703C108.83 92.2985 108.451 92.568 108.035 92.7671L82.0781 105.18C78.6903 106.801 75.1389 103.281 76.7283 99.8788L89.0371 73.5312C89.2308 73.1165 89.4944 72.738 89.8162 72.4124L134.821 26.8784Z" fill="#99999A"/>
</svg>
