<svg width="16" height="16" viewBox="0 0 16 16" fill="none" xmlns="http://www.w3.org/2000/svg">
<path fill-rule="evenodd" clip-rule="evenodd" d="M9.8091 3.69162L9.87191 3.74708L13.3678 7.24293C13.6081 7.48325 13.6266 7.86141 13.4232 8.12293L13.3678 8.18574L9.87191 11.6816C9.61156 11.9419 9.18945 11.9419 8.9291 11.6816C8.68878 11.4413 8.67029 11.0631 8.87364 10.8016L8.9291 10.7388L11.4413 8.226L2.66667 8.22651C2.29848 8.22651 2 7.92803 2 7.55984C2 7.21795 2.25736 6.93617 2.58892 6.89766L2.66667 6.89317L11.132 6.89266L8.9291 4.68989C8.66875 4.42954 8.66875 4.00743 8.9291 3.74708C9.16942 3.50676 9.54758 3.48827 9.8091 3.69162Z" fill="#3851F0"/>
</svg>
