<svg width="12" height="12" viewBox="0 0 12 12" fill="none" xmlns="http://www.w3.org/2000/svg">
<path fill-rule="evenodd" clip-rule="evenodd" d="M5.86765 8.25C5.66054 8.25 5.49265 8.41789 5.49265 8.625C5.49265 8.80909 5.6253 8.96221 5.80024 8.99396L5.86765 9H8.86765C9.07475 9 9.24265 8.83211 9.24265 8.625C9.24265 8.44091 9.10999 8.28779 8.93505 8.25604L8.86765 8.25H5.86765ZM3 6C2.79289 6 2.625 6.16789 2.625 6.375C2.625 6.55909 2.75766 6.71221 2.93259 6.74396L3 6.75H9C9.20711 6.75 9.375 6.58211 9.375 6.375C9.375 6.19091 9.24234 6.03779 9.06741 6.00604L9 6H3ZM3 3.75C2.79289 3.75 2.625 3.91789 2.625 4.125C2.625 4.30909 2.75766 4.46221 2.93259 4.49396L3 4.5H9C9.20711 4.5 9.375 4.33211 9.375 4.125C9.375 3.94091 9.24234 3.78779 9.06741 3.75604L9 3.75H3Z" fill="white"/>
</svg>
