<svg width="16" height="17" viewBox="0 0 16 17" fill="none" xmlns="http://www.w3.org/2000/svg">
<circle cx="8.00065" cy="8.32878" r="6.16667" fill="#313131" stroke="#E5E5E5"/>
<path fill-rule="evenodd" clip-rule="evenodd" d="M8.00065 6.32943C8.36884 6.32943 8.66732 6.03095 8.66732 5.66276C8.66732 5.29457 8.36884 4.99609 8.00065 4.99609C7.63246 4.99609 7.33398 5.29457 7.33398 5.66276C7.33398 6.03095 7.63246 6.32943 8.00065 6.32943ZM8.66283 7.49375C8.62432 7.21357 8.34254 6.99609 8.00065 6.99609C7.63246 6.99609 7.33398 7.24832 7.33398 7.55945V11.0994L7.33847 11.1651C7.37698 11.4453 7.65876 11.6628 8.00065 11.6628C8.36884 11.6628 8.66732 11.4105 8.66732 11.0994V7.55945L8.66283 7.49375Z" fill="#E5E5E5"/>
</svg>
