<svg width="40" height="40" viewBox="0 0 40 40" fill="none" xmlns="http://www.w3.org/2000/svg">
<circle cx="20" cy="20" r="20" fill="#050D20"/>
<circle cx="20" cy="20" r="19.5" stroke="#99999A" stroke-opacity="0.2"/>
<path fill-rule="evenodd" clip-rule="evenodd" d="M19.3573 30.1807L28.9756 20.5624C28.9756 20.5624 29.7846 19.6983 29.5921 18.6116C29.3996 17.525 28.4078 16.6784 28.4078 16.6784L18.7634 26.3228C18.7634 26.3228 18.0925 27.0247 18.0873 28.1006C18.0821 29.1766 19.3573 30.1807 19.3573 30.1807ZM15.9192 26.7426L25.5375 17.1243C25.5375 17.1243 26.3466 16.2602 26.1541 15.1736C25.9616 14.0869 24.9698 13.2404 24.9698 13.2404L15.3254 22.8848C15.3254 22.8848 14.6544 23.5866 14.6492 24.6626C14.644 25.7385 15.9192 26.7426 15.9192 26.7426ZM22.0995 13.6863L12.4812 23.3046C12.4812 23.3046 11.206 22.3005 11.2112 21.2245C11.2164 20.1486 11.8873 19.4468 11.8873 19.4468L21.5317 9.80237C21.5317 9.80237 22.5236 10.6489 22.7161 11.7355C22.9086 12.8222 22.0995 13.6863 22.0995 13.6863Z" fill="url(#paint0_linear_217_25712)"/>
<defs>
<linearGradient id="paint0_linear_217_25712" x1="12.0677" y1="21.5218" x2="20.0419" y2="29.4961" gradientUnits="userSpaceOnUse">
<stop stop-color="#7EB5FF"/>
<stop offset="0.999683" stop-color="#1A38F8"/>
</linearGradient>
</defs>
</svg>
