<svg width="40" height="40" viewBox="0 0 40 40" fill="none" xmlns="http://www.w3.org/2000/svg">
<circle cx="20" cy="20" r="19.5" fill="#050D20" stroke="#313131"/>
<path fill-rule="evenodd" clip-rule="evenodd" d="M15 12C16.6569 12 18 13.3431 18 15C18 16.6569 16.6569 18 15 18C13.3431 18 12 16.6569 12 15C12 13.3431 13.3431 12 15 12ZM15 13C13.8954 13 13 13.8954 13 15C13 16.1046 13.8954 17 15 17C16.1046 17 17 16.1046 17 15C17 13.8954 16.1046 13 15 13ZM26.7774 12.6467C26.9725 12.4513 27.2891 12.4511 27.4845 12.6462C27.6582 12.8196 27.6777 13.089 27.5428 13.284L27.485 13.3533L13.3538 27.5063C13.1587 27.7018 12.8421 27.702 12.6467 27.5069C12.473 27.3335 12.4535 27.064 12.5884 26.8691L12.6462 26.7998L26.7774 12.6467ZM28 25C28 23.3431 26.6569 22 25 22C23.3431 22 22 23.3431 22 25C22 26.6569 23.3431 28 25 28C26.6569 28 28 26.6569 28 25ZM23 25C23 23.8954 23.8954 23 25 23C26.1046 23 27 23.8954 27 25C27 26.1046 26.1046 27 25 27C23.8954 27 23 26.1046 23 25Z" fill="#E5E5E5"/>
</svg>
