<svg width="40" height="40" viewBox="0 0 40 40" fill="none" xmlns="http://www.w3.org/2000/svg">
<circle cx="20" cy="20" r="19.5" fill="#050D20" stroke="#E5E5E5"/>
<path fill-rule="evenodd" clip-rule="evenodd" d="M27 11.5C27.7797 11.5 28.4204 12.0949 28.4931 12.8555L28.5 13V15V15.4772V27C28.5 27.8284 27.8284 28.5 27 28.5H13C12.1716 28.5 11.5 27.8284 11.5 27V15C11.5 14.1716 12.1716 13.5 13 13.5H14.5V13C14.5 12.2203 15.0949 11.5796 15.8555 11.5069L16 11.5H27ZM27.5 13V13.5854C27.3436 13.5301 27.1753 13.5 27 13.5H15.5V13L15.5081 12.9101C15.5504 12.6769 15.7545 12.5 16 12.5H27L27.0899 12.5081C27.3231 12.5504 27.5 12.7545 27.5 13ZM27 14.5H13C12.7239 14.5 12.5 14.7239 12.5 15V18.5H18C18.7797 18.5 19.4204 19.0949 19.4931 19.8555L19.5 20V21C19.5 21.7797 18.9051 22.4204 18.1445 22.4931L18 22.5H12.5V27C12.5 27.2761 12.7239 27.5 13 27.5H27C27.2761 27.5 27.5 27.2761 27.5 27V15.4772V15C27.5 14.7239 27.2761 14.5 27 14.5ZM12.5 21.5H18C18.2455 21.5 18.4496 21.3231 18.4919 21.0899L18.5 21V20C18.5 19.7545 18.3231 19.5504 18.0899 19.5081L18 19.5H12.5V21.5Z" fill="#99999A"/>
</svg>
