<svg width="42" height="42" viewBox="0 0 42 42" fill="none" xmlns="http://www.w3.org/2000/svg">
<circle cx="21" cy="21" r="20" fill="#050D20" stroke="#99999A" stroke-opacity="0.2"/>
<path fill-rule="evenodd" clip-rule="evenodd" d="M22.3997 11.7908L15.9876 18.203C15.9876 18.203 15.1374 17.5336 15.1409 16.8163C15.1443 16.099 15.5916 15.6311 15.5916 15.6311L22.0212 9.2015C22.0212 9.2015 22.6825 9.76585 22.8108 10.4903C22.9391 11.2147 22.3997 11.7908 22.3997 11.7908ZM18.2796 20.495L24.6918 14.0828C24.6918 14.0828 25.2311 13.5067 25.1028 12.7823C24.9745 12.0579 24.3133 11.4935 24.3133 11.4935L17.8837 17.9231C17.8837 17.9231 17.4364 18.391 17.4329 19.1083C17.4294 19.8256 18.2796 20.495 18.2796 20.495ZM20.5716 22.787L26.9838 16.3748C26.9838 16.3748 27.5232 15.7988 27.3948 15.0743C27.2665 14.3499 26.6053 13.7856 26.6053 13.7856L20.1757 20.2151C20.1757 20.2151 19.7284 20.683 19.7249 21.4003C19.7215 22.1176 20.5716 22.787 20.5716 22.787Z" fill="url(#paint0_linear_217_25716)"/>
<path fill-rule="evenodd" clip-rule="evenodd" d="M13.582 31.194C13.918 31.194 14.198 31.117 14.429 30.97C14.625 30.844 14.821 30.627 15.024 30.333L14.457 29.983C14.212 30.347 13.96 30.536 13.708 30.536C13.54 30.536 13.428 30.431 13.372 30.235C13.358 30.207 13.351 30.179 13.351 30.151C13.729 29.955 14.072 29.724 14.366 29.451C15.052 28.807 15.395 28.009 15.395 27.057C15.395 26.763 15.325 26.518 15.199 26.329C15.045 26.105 14.821 26 14.534 26C13.876 26 13.351 26.483 12.966 27.456C12.665 28.198 12.511 28.982 12.497 29.808C12.336 29.864 12.168 29.913 12 29.962L12 29.962L12 29.962V30.613C12.196 30.571 12.385 30.522 12.567 30.466C12.609 30.592 12.665 30.711 12.742 30.809C12.931 31.061 13.211 31.194 13.582 31.194ZM13.33 29.444C13.358 28.94 13.463 28.401 13.652 27.813C13.904 27.022 14.17 26.63 14.457 26.63C14.639 26.63 14.737 26.791 14.737 27.113C14.737 27.89 14.464 28.527 13.918 29.024C13.743 29.178 13.547 29.318 13.33 29.444ZM22.8985 31.091C23.4165 31.091 23.8353 30.9615 24.155 30.7025C24.4747 30.4435 24.6345 30.0923 24.6345 29.649C24.6345 29.4903 24.6158 29.348 24.5785 29.222C24.5412 29.096 24.477 28.984 24.386 28.886C24.295 28.788 24.2098 28.7063 24.1305 28.641C24.0512 28.5757 23.9333 28.5103 23.777 28.445C23.6207 28.3797 23.4993 28.3318 23.413 28.3015C23.3267 28.2712 23.1902 28.2257 23.0035 28.165C22.6302 28.0483 22.3723 27.9375 22.23 27.8325C22.0877 27.7275 22.0165 27.584 22.0165 27.402C22.0165 27.2153 22.0865 27.0672 22.2265 26.9575C22.3665 26.8478 22.5532 26.793 22.7865 26.793C23.2672 26.793 23.6102 27.0217 23.8155 27.479L24.4945 27.087C24.3358 26.751 24.1095 26.4873 23.8155 26.296C23.5215 26.1047 23.1785 26.009 22.7865 26.009C22.3525 26.009 21.9815 26.1362 21.6735 26.3905C21.3655 26.6448 21.2115 26.989 21.2115 27.423C21.2115 27.6423 21.2512 27.8337 21.3305 27.997C21.4098 28.1603 21.53 28.2968 21.691 28.4065C21.852 28.5162 22.0048 28.6013 22.1495 28.662C22.2942 28.7227 22.4832 28.788 22.7165 28.858C23.1318 28.984 23.4212 29.0995 23.5845 29.2045C23.7478 29.3095 23.8295 29.4623 23.8295 29.663C23.8295 29.8543 23.7537 30.0095 23.602 30.1285C23.4503 30.2475 23.2228 30.307 22.9195 30.307C22.3035 30.307 21.8975 30.0317 21.7015 29.481L21.0085 29.887C21.1392 30.2603 21.369 30.5543 21.698 30.769C22.027 30.9837 22.4272 31.091 22.8985 31.091ZM18.4885 31.091C19.0345 31.091 19.4802 30.937 19.8255 30.629C20.1708 30.3163 20.3435 29.8987 20.3435 29.376V26.1H19.5385V29.327C19.5385 29.6257 19.451 29.8637 19.276 30.041C19.101 30.2183 18.8385 30.307 18.4885 30.307C18.1385 30.307 17.876 30.2183 17.701 30.041C17.526 29.8637 17.4385 29.6257 17.4385 29.327V26.1H16.6335V29.376C16.6335 29.8987 16.8062 30.3152 17.1515 30.6255C17.4968 30.9358 17.9425 31.091 18.4885 31.091ZM28.894 30.2895C28.4483 30.7632 27.8895 31 27.2175 31H25.2925V26.1H27.2175C27.8895 26.1 28.4483 26.3357 28.894 26.807C29.3397 27.2783 29.5625 27.8593 29.5625 28.55C29.5625 29.236 29.3397 29.8158 28.894 30.2895ZM27.2175 30.23H26.0975V26.87H27.2175C27.6795 26.87 28.0563 27.0275 28.348 27.3425C28.6397 27.6575 28.7855 28.06 28.7855 28.55C28.7855 29.0353 28.6397 29.4367 28.348 29.754C28.0563 30.0713 27.6795 30.23 27.2175 30.23Z" fill="white"/>
<defs>
<linearGradient id="paint0_linear_217_25716" x1="15.7119" y1="17.0144" x2="21.028" y2="22.3306" gradientUnits="userSpaceOnUse">
<stop stop-color="#7EB5FF"/>
<stop offset="0.999683" stop-color="#1A38F8"/>
</linearGradient>
</defs>
</svg>
