<?xml version="1.0" encoding="utf-8"?>
<svg width="24px" height="24px" viewBox="0 0 24 24" version="1.1" xmlns:xlink="http://www.w3.org/1999/xlink" xmlns="http://www.w3.org/2000/svg">
  <desc>Created with Lunacy</desc>
  <g id="Icon/Copy">
    <path d="M12.9947 2.33562C12.91 1.03154 11.8255 0 10.5 0L2.5 0L2.33562 0.00531768C1.03154 0.0899613 0 1.17452 0 2.5L0 10.5L0.00531768 10.6644C0.0899613 11.9685 1.17452 13 2.5 13L4.44938 13L4.44938 12L2.5 12L2.35554 11.9931C1.59489 11.9204 1 11.2797 1 10.5L1 2.5L1.00687 2.35554C1.07955 1.59489 1.7203 1 2.5 1L10.5 1L10.6445 1.00687C11.4051 1.07955 12 1.7203 12 2.5L12 4.69901L13 4.69901L13 2.5L12.9947 2.33562ZM16.5 6L8.5 6C7.11929 6 6 7.11929 6 8.5L6 16.5C6 17.8807 7.11929 19 8.5 19L16.5 19C17.8807 19 19 17.8807 19 16.5L19 8.5C19 7.11929 17.8807 6 16.5 6ZM8.5 7L16.5 7C17.3284 7 18 7.67157 18 8.5L18 16.5C18 17.3284 17.3284 18 16.5 18L8.5 18C7.67157 18 7 17.3284 7 16.5L7 8.5C7 7.67157 7.67157 7 8.5 7Z" transform="translate(2.5 2.5)" id="Combined-Shape" fill="#C6C4C7" fill-rule="evenodd" stroke="none" />
  </g>
</svg>