<?xml version="1.0" encoding="utf-8"?>
    <svg width="50px" height="48px" viewBox="0 0 50 48" version="1.1" xmlns:xlink="http://www.w3.org/1999/xlink" xmlns="http://www.w3.org/2000/svg">
    <desc>Created with Lunacy</desc>
    <defs>
        <path d="M25 48C38.8071 48 50 37.2548 50 24C50 10.7452 38.8071 0 25 0C11.1929 0 0 10.7452 0 24C0 37.2548 11.1929 48 25 48Z" id="path_1" />
        <clipPath id="clip_1">
        <use xlink:href="#path_1" />
        </clipPath>
    </defs>
    <g id="Button/Refresh-Copy-6">
        <g id="Setup/Icon-Button/Outline">
        <g id="Oval">
            <g clip-path="url(#clip_1)">
            <use xlink:href="#path_1" fill="none" stroke="#1B05A1" stroke-width="2" />
            </g>
        </g>
        </g>
        <g id="Icon/Arrow-Left" transform="translate(10 9.6)">
        <path d="M17.2594 0.503141C17.1867 0.0609663 16.6286 -0.162111 16.2475 0.136038L11.2437 4.05114L6.06745 0.130109L5.97696 0.0724848C5.5746 -0.139207 5.0553 0.135706 5.0553 0.601136L5.0553 4.20114L1.875 4.20114C0.839466 4.20114 0 5.00702 0 6.00114C0 6.99525 0.839466 7.80114 1.875 7.80114L2.5 7.80114L2.5 18.6011C2.5 19.9266 3.61929 21.0011 5 21.0011L17.5 21.0011C18.8807 21.0011 20 19.9266 20 18.6011L20 7.80114L20.625 7.80114C21.6605 7.80114 22.5 6.99525 22.5 6.00114C22.5 5.00702 21.6605 4.20114 20.625 4.20114L17.2673 4.20114L17.2673 0.601136L17.2594 0.503141ZM16.4857 5.40114C16.5358 5.41353 16.5883 5.42012 16.6423 5.42012C16.6964 5.42012 16.7489 5.41353 16.7989 5.40114L20.625 5.40114C20.9702 5.40114 21.25 5.66977 21.25 6.00114C21.25 6.33251 20.9702 6.60114 20.625 6.60114L1.875 6.60114C1.52982 6.60114 1.25 6.33251 1.25 6.00114C1.25 5.66977 1.52982 5.40114 1.875 5.40114L5.52371 5.40114C5.57375 5.41353 5.62622 5.42012 5.6803 5.42012L5.79264 5.41046C5.80758 5.40785 5.82234 5.40474 5.83689 5.40114L11.0938 5.40114C11.1962 5.42646 11.3039 5.42644 11.4062 5.40114L16.4857 5.40114ZM16.0171 4.20114L16.0163 1.86354L13.0298 4.20114L16.0171 4.20114ZM9.42399 4.20114L6.305 1.83834L6.30524 4.20114L9.42399 4.20114ZM10.625 7.80114L3.75 7.80114L3.75 18.6011C3.75 19.2639 4.30964 19.8011 5 19.8011L10.625 19.8011L10.625 14.4261L4.05 14.4261L4.05 13.1761L10.625 13.1761L10.625 7.80114ZM11.875 19.8011L11.875 14.4261L18.45 14.4261L18.45 13.1761L11.875 13.1761L11.875 7.80114L18.75 7.80114L18.75 18.6011C18.75 19.2639 18.1904 19.8011 17.5 19.8011L11.875 19.8011Z" transform="translate(3.75 3.6000001)" id="Combined-Shape" fill="#1B05A1" fill-rule="evenodd" stroke="none" />
        </g>
    </g>
    </svg>