<svg xmlns="http://www.w3.org/2000/svg" width="48" height="48" viewBox="0 0 48 48">
    <g fill="none" fill-rule="evenodd">
        <g>
            <g>
                <g>
                    <g>
                        <g>
                            <g fill="#1A38F8" transform="translate(-146 -248) translate(96 160) translate(32 88) translate(18)">
                                <circle cx="24" cy="24" r="23.5"/>
                            </g>
                            <g fill="#FFF">
                                <path d="M20.169 4.103l.008.098-.001 3.6H23.4c.944 0 1.719.727 1.794 1.653l.006.147c0 .994-.806 1.8-1.8 1.8h-.6v10.8c0 1.27-.987 2.31-2.236 2.395l-.164.005h-12c-1.325 0-2.4-1.074-2.4-2.4v-10.8h-.6c-.944 0-1.719-.727-1.794-1.652L3.6 9.6c0-.994.806-1.8 1.8-1.8h3.053v-3.6c0-.465.499-.74.885-.529l.087.058 4.969 3.921 4.804-3.915c.365-.298.901-.075.971.367zM13.8 18.001H7.2v4.2c0 .663.537 1.2 1.2 1.2h5.4v-5.4zm7.8 0H15v5.4h5.4c.663 0 1.2-.537 1.2-1.2v-4.2zm0-6.6H15v5.4h6.6v-5.4zm-7.8 0H7.2v5.4h6.6v-5.4zm9.6-2.4l-3.682.002c-.045.011-.093.017-.141.017-.05 0-.098-.006-.143-.017H14.54c-.092.023-.19.023-.282 0H9.195l-.034.007-.108.01c-.05 0-.097-.006-.143-.017L5.4 9.001c-.331 0-.6.269-.6.6 0 .332.269.6.6.6h18c.331 0 .6-.268.6-.6 0-.331-.269-.6-.6-.6zM9.653 5.438v2.363h2.994L9.653 5.438zm9.323.026L16.108 7.8h2.868V5.464z" transform="translate(-146 -248) translate(96 160) translate(32 88) translate(18) translate(9.6 9.6)"/>
                            </g>
                        </g>
                    </g>
                </g>
            </g>
        </g>
    </g>
</svg>
