<svg xmlns="http://www.w3.org/2000/svg" width="64" height="64" viewBox="0 0 64 64">
    <g fill="none" fill-rule="evenodd">
        <g>
            <g>
                <g stroke="#E5E5E5" transform="translate(-1110 -917) translate(1110 917)">
                    <circle cx="32" cy="32" r="31.5"/>
                </g>
                <g fill="#99999A">
                    <path d="M9.062 22.422C10.185 27.514 14.718 31.2 20 31.2c4.593 0 8.646-2.79 10.353-6.917l-6.214 1.094c-.387.068-.758-.154-.89-.51l-.037-.139c-.068-.387.154-.757.51-.889l.14-.038 7.878-1.389c.386-.068.757.154.889.51l.037.14 1.39 7.878c.076.435-.214.85-.65.926-.386.069-.757-.153-.889-.51l-.037-.139-.984-5.581C29.385 29.943 24.97 32.8 20 32.8c-6.037 0-11.217-4.212-12.5-10.033-.095-.432.178-.859.609-.954.432-.095.858.178.953.61zm11.22-16.628c6.037 0 11.216 4.213 12.5 10.034.094.431-.178.858-.61.953-.431.095-.858-.178-.953-.609-1.122-5.091-5.655-8.778-10.938-8.778-4.593 0-8.646 2.79-10.352 6.918l6.213-1.095c.387-.068.758.154.89.51l.037.14c.068.386-.154.757-.51.889l-.139.037-7.878 1.39c-.387.068-.758-.154-.89-.51l-.037-.14-1.39-7.878c-.076-.435.215-.85.65-.927.386-.068.757.154.889.51l.037.14.984 5.58c2.112-4.307 6.527-7.164 11.496-7.164z" transform="translate(-1110 -917) translate(1110 917) translate(11.8 12.8)"/>
                </g>
            </g>
        </g>
    </g>
</svg>
