<svg xmlns="http://www.w3.org/2000/svg" width="64" height="64" viewBox="0 0 64 64">
    <g fill="none" fill-rule="evenodd">
        <circle cx="32" cy="32" r="31.5" stroke="#DEDDDE"/>
        <path fill="#DEDDDE" d="M21.345 34.789c1.186 6.082 6.913 10.09 12.794 8.95 3.522-.683 6.395-3.09 7.8-6.371l-5.702 1.104c-.596.115-1.177-.255-1.36-.841l-.035-.14c-.12-.618.23-1.214.794-1.396l.134-.034 7.644-1.482c.595-.115 1.176.255 1.36.84l.035.14 1.59 8.162c.13.665-.284 1.306-.926 1.431-.595.117-1.177-.253-1.36-.84l-.036-.138-.808-4.144c-1.888 3.149-4.986 5.407-8.663 6.12-7.161 1.388-14.139-3.495-15.584-10.908-.13-.666.285-1.307.927-1.432.641-.125 1.266.313 1.396.979zm24.45-8.076c.233.637-.076 1.335-.69 1.56-.614.223-1.3-.112-1.533-.749-2.125-5.822-8.411-8.888-14.04-6.845-2.657.964-4.764 2.924-5.948 5.413l4.955-1.798c.57-.207 1.203.068 1.475.619l.057.132c.215.592-.038 1.235-.567 1.503l-.127.055-7.317 2.655c-.57.207-1.201-.067-1.474-.617l-.057-.131-2.852-7.814c-.232-.637.077-1.335.691-1.56.57-.207 1.202.066 1.476.617l.057.131 1.725 4.73c1.493-2.889 3.976-5.122 7.067-6.243 6.856-2.488 14.512 1.246 17.102 8.342z"/>
    </g>
</svg>
