<?xml version="1.0" encoding="utf-8"?>
    <svg width="50px" height="48px" viewBox="0 0 50 48" version="1.1" xmlns:xlink="http://www.w3.org/1999/xlink" xmlns="http://www.w3.org/2000/svg">
      <desc>Created with Lunacy</desc>
      <defs>
        <path d="M25 48C38.8071 48 50 37.2548 50 24C50 10.7452 38.8071 0 25 0C11.1929 0 0 10.7452 0 24C0 37.2548 11.1929 48 25 48Z" id="path_1" />
        <clipPath id="clip_1">
          <use xlink:href="#path_1" />
        </clipPath>
      </defs>
      <g id="Button/Refresh-Copy-6">
        <g id="Setup/Icon-Button/Outline">
          <g id="Oval">
            <g clip-path="url(#clip_1)">
              <use xlink:href="#path_1" fill="none" stroke="#DEDDDE" stroke-width="2" />
            </g>
          </g>
        </g>
        <g id="Icon/Arrow-Left" transform="translate(10 9.6)">
          <path d="M20 0L2.5 0C1.11929 0 0 1.07452 0 2.4L0 19.2C0 20.5255 1.11929 21.6 2.5 21.6L20 21.6C21.3807 21.6 22.5 20.5255 22.5 19.2L22.5 2.4C22.5 1.07452 21.3807 0 20 0ZM20 1.2C20.6904 1.2 21.25 1.73726 21.25 2.4L21.25 19.2C21.25 19.8627 20.6904 20.4 20 20.4L2.5 20.4C1.80964 20.4 1.25 19.8627 1.25 19.2L1.25 2.4C1.25 1.73726 1.80964 1.2 2.5 1.2L20 1.2ZM18.5895 7.8C18.8963 7.8 19.1515 8.01225 19.2044 8.29215L19.2145 8.4L19.2145 12.0555C19.2145 12.3868 18.9347 12.6555 18.5895 12.6555C18.2827 12.6555 18.0275 12.4432 17.9746 12.1633L17.9645 12.0555L17.964 10.1177L13.4077 14.6315C13.2117 14.8197 12.9146 14.8586 12.6767 14.7394L12.5789 14.6785L7.1175 10.5468L4.19194 13.3558C3.97498 13.5641 3.6382 13.5873 3.39462 13.4253L3.30806 13.3558C3.0911 13.1476 3.06699 12.8243 3.23574 12.5904L3.30806 12.5073L6.6265 9.32162C6.82246 9.13349 7.11957 9.09452 7.35744 9.21379L7.45529 9.27462L12.9163 13.4052L17.3536 8.99905L15 9C14.6932 9 14.438 8.78775 14.3851 8.50785L14.375 8.4C14.375 8.10545 14.5961 7.86047 14.8877 7.80967L15 7.8L18.5895 7.8Z" transform="translate(3.75 3.6000001)" id="Combined-Shape" fill="#DEDDDE" fill-rule="evenodd" stroke="none" />
        </g>
      </g>
    </svg>