<svg xmlns="http://www.w3.org/2000/svg" width="48" height="48" viewBox="0 0 48 48">
    <g fill="none" fill-rule="evenodd">
        <g>
            <g>
                <g>
                    <g>
                        <g stroke="#E5E5E5" transform="translate(-146 -248) translate(96 160) translate(32 88) translate(18)">
                            <circle cx="24" cy="24" r="23.5"/>
                        </g>
                        <g fill="#BABABA">
                            <path d="M22.8 3.6c1.325 0 2.4 1.075 2.4 2.4v16.8c0 1.325-1.075 2.4-2.4 2.4H6c-1.325 0-2.4-1.075-2.4-2.4V6c0-1.325 1.075-2.4 2.4-2.4zm0 1.2H6c-.663 0-1.2.537-1.2 1.2v16.8c0 .663.537 1.2 1.2 1.2h16.8c.663 0 1.2-.537 1.2-1.2V6c0-.663-.537-1.2-1.2-1.2zm-1.354 6.6c.294 0 .54.212.59.492l.01.108v3.655c0 .332-.269.6-.6.6-.295 0-.54-.212-.59-.492l-.01-.108-.001-1.938-4.374 4.515c-.188.188-.473.227-.701.107l-.094-.06-5.243-4.132-2.809 2.809c-.208.208-.531.231-.765.07l-.083-.07c-.209-.208-.232-.532-.07-.766l.07-.083 3.185-3.185c.189-.189.474-.227.702-.108l.094.06L16 17.006l4.259-4.407L18 12.6c-.295 0-.54-.212-.59-.492L17.4 12c0-.295.212-.54.492-.59L18 11.4h3.446z" transform="translate(-146 -248) translate(96 160) translate(32 88) translate(18) translate(9.6 9.6)"/>
                        </g>
                    </g>
                </g>
            </g>
        </g>
    </g>
</svg>
