<?xml version="1.0" encoding="utf-8"?>
    <svg width="50px" height="48px" viewBox="0 0 50 48" version="1.1" xmlns:xlink="http://www.w3.org/1999/xlink" xmlns="http://www.w3.org/2000/svg">
    <desc>Created with Lunacy</desc>
    <defs>
        <path d="M25 48C38.8071 48 50 37.2548 50 24C50 10.7452 38.8071 0 25 0C11.1929 0 0 10.7452 0 24C0 37.2548 11.1929 48 25 48Z" id="path_1" />
        <clipPath id="clip_1">
        <use xlink:href="#path_1" />
        </clipPath>
    </defs>
    <g id="Button/Refresh-Copy-6">
        <g id="Setup/Icon-Button/Outline">
        <g id="Oval">
            <g clip-path="url(#clip_1)">
            <use xlink:href="#path_1" fill="none" stroke="#1B05A1" stroke-width="2" />
            </g>
        </g>
        </g>
        <g id="Icon/Arrow-Left" transform="translate(10 9.6)">
        <path d="M20 0L2.5 0C1.11929 0 0 1.07452 0 2.4L0 21.6C0 22.9255 1.11929 24 2.5 24L20 24C21.3807 24 22.5 22.9255 22.5 21.6L22.5 2.4C22.5 1.07452 21.3807 0 20 0ZM20 1.2C20.6904 1.2 21.25 1.73726 21.25 2.4L21.25 21.6C21.25 22.2627 20.6904 22.8 20 22.8L2.5 22.8C1.80964 22.8 1.25 22.2627 1.25 21.6L1.25 2.4C1.25 1.73726 1.80964 1.2 2.5 1.2L20 1.2ZM16.875 4.8C17.2202 4.8 17.5 5.06863 17.5 5.4C17.5 5.69455 17.2789 5.93953 16.9873 5.99033L16.875 6L5.625 6C5.27982 6 5 5.73137 5 5.4C5 5.10545 5.22109 4.86047 5.51266 4.80967L5.625 4.8L16.875 4.8ZM17.5 9C17.5 8.66863 17.2202 8.4 16.875 8.4L5.625 8.4L5.51266 8.40967C5.22109 8.46047 5 8.70545 5 9C5 9.33137 5.27982 9.6 5.625 9.6L16.875 9.6L16.9873 9.59033C17.2789 9.53953 17.5 9.29455 17.5 9ZM17.5 12.6C17.5 12.2686 17.2202 12 16.875 12L5.625 12L5.51266 12.0097C5.22109 12.0605 5 12.3054 5 12.6C5 12.9314 5.27982 13.2 5.625 13.2L16.875 13.2L16.9873 13.1903C17.2789 13.1395 17.5 12.8946 17.5 12.6Z" transform="translate(3.75 2.4)" id="Combined-Shape" fill="#1B05A1" fill-rule="evenodd" stroke="none" />
        </g>
    </g>
    </svg>