<svg xmlns="http://www.w3.org/2000/svg" width="48" height="48" viewBox="0 0 48 48">
    <g fill="none" fill-rule="evenodd">
        <g>
            <g>
                <g>
                    <g>
                        <g>
                            <g stroke="#E5E5E5" transform="translate(-146 -248) translate(96 160) translate(32 88) translate(18)">
                                <circle cx="24" cy="24" r="23.5"/>
                            </g>
                            <g fill="#99999A">
                                <path d="M22.8 2.4c1.325 0 2.4 1.075 2.4 2.4V24c0 1.325-1.075 2.4-2.4 2.4H6c-1.325 0-2.4-1.075-2.4-2.4V4.8c0-1.325 1.075-2.4 2.4-2.4zm0 1.2H6c-.663 0-1.2.537-1.2 1.2V24c0 .663.537 1.2 1.2 1.2h16.8c.663 0 1.2-.537 1.2-1.2V4.8c0-.663-.537-1.2-1.2-1.2zm-3 10.8c.331 0 .6.269.6.6 0 .295-.212.54-.492.59l-.108.01H9c-.331 0-.6-.269-.6-.6 0-.295.212-.54.492-.59L9 14.4h10.8zm0-3.6c.331 0 .6.269.6.6 0 .295-.212.54-.492.59L19.8 12H9c-.331 0-.6-.269-.6-.6 0-.295.212-.54.492-.59L9 10.8h10.8zm0-3.6c.331 0 .6.269.6.6 0 .295-.212.54-.492.59l-.108.01H9c-.331 0-.6-.269-.6-.6 0-.295.212-.54.492-.59L9 7.2h10.8z" transform="translate(-146 -248) translate(96 160) translate(32 88) translate(18) translate(9.6 9.6)"/>
                            </g>
                        </g>
                    </g>
                </g>
            </g>
        </g>
    </g>
</svg>
