<svg xmlns="http://www.w3.org/2000/svg" width="16" height="16" viewBox="0 0 16 16">
    <g fill="none" fill-rule="evenodd">
        <g fill="#BABABA">
            <g>
                <g>
                    <g>
                        <path d="M8.828 3.322l.057.05L12.03 6.52c.216.216.233.556.05.792l-.05.056-3.146 3.146c-.235.235-.614.235-.849 0-.216-.216-.233-.556-.05-.792l.05-.056 2.261-2.262H2.4c-.331 0-.6-.268-.6-.6 0-.307.232-.56.53-.595l.07-.004h7.619L8.036 4.22c-.234-.234-.234-.614 0-.849.216-.216.557-.233.792-.05z" transform="translate(-505 -675) translate(313 623) translate(188 48) translate(4.8 4.8)"/>
                    </g>
                </g>
            </g>
        </g>
    </g>
</svg>
