<?xml version="1.0" encoding="utf-8"?>
<svg width="18px" height="16px" viewBox="0 0 18 16" version="1.1" xmlns:xlink="http://www.w3.org/1999/xlink" xmlns="http://www.w3.org/2000/svg">
  <desc>Created with Lunacy</desc>
  <g id="Icon/Arrow-Left" opacity="1">
    <path d="M8.78524 0.139803L8.8559 0.195262L12.7887 3.69111C13.0591 3.93143 13.0799 4.30959 12.8511 4.57112L12.7887 4.63392L8.8559 8.12977C8.563 8.39012 8.08813 8.39012 7.79524 8.12977C7.52487 7.88945 7.50408 7.51129 7.73284 7.24976L7.79524 7.18696L10.6215 4.67418L0.75 4.67469C0.335786 4.67469 0 4.37621 0 4.00802C0 3.66613 0.28953 3.38435 0.662534 3.34584L0.75 3.34135L10.2735 3.34084L7.79524 1.13807C7.50234 0.877722 7.50234 0.455612 7.79524 0.195262C8.0656 -0.0450605 8.49102 -0.0635469 8.78524 0.139803Z" transform="translate(2.25 3.551824)" id="Combined-Shape" fill="#1a38f8" stroke="none" />
  </g>
</svg>