<svg xmlns="http://www.w3.org/2000/svg" width="136" height="136" viewBox="0 0 136 136">
    <g fill="none" fill-rule="evenodd">
        <g>
            <g>
                <g>
                    <path fill="#99999A" d="M76.444 0c3.812 0 6.945 2.908 7.3 6.627l.034.706v19.555h-4.89v-9.777c0-1.35-1.094-2.444-2.444-2.444H8c-1.296 0-2.356 1.008-2.44 2.283l-.004.161-.001 17.111h26.89c3.811 0 6.944 2.909 7.3 6.627l.033.707v4.888c0 3.812-2.909 6.945-6.627 7.3l-.707.034-26.89-.001.002 22c0 1.297 1.008 2.357 2.283 2.44l.161.005h26.889v4.889H8c-3.97 0-7.202-3.153-7.33-7.091l-.003-.242V17.11c0-3.969 3.153-7.202 7.09-7.33L8 9.779l7.333-.001V7.333c0-3.812 2.909-6.944 6.627-7.3L22.667 0h53.777zm-44 39.111H5.554v9.777h26.89c1.2 0 2.199-.864 2.406-2.004l.039-.44v-4.888c0-1.2-.865-2.199-2.005-2.406l-.44-.039zm44-34.222H22.667c-1.2 0-2.198.865-2.405 2.005l-.04.44v2.443h56.222c.858 0 1.68.148 2.446.418l-.001-2.862c0-1.2-.865-2.198-2.005-2.405l-.44-.04z" transform="translate(-265 -436) translate(245 416) translate(36 44)"/>
                    <g fill="#F0B90B">
                        <path d="M42.452 57.852v7.062l-6.356 3.53-6.355-3.53v-7.062l6.355 3.53 6.356-3.53zm21.185-24.363v19.067l-16.948 9.533v-7.044l10.717-6.011V37.01l6.231-3.522zm-55.081 0l6.23 3.522v12.023l10.718 6.011v7.044L8.556 52.556V33.489zm38.257-10.593l6.231 3.6v7.201l-10.717 6.145v12.291l-6.23 3.6-6.232-3.6v-12.29l-10.717-6.146v-7.2l6.231-3.6 10.717 6.144 10.717-6.145zm6.231 15.89v7.06l-6.355 3.532v-7.062l6.355-3.53zm-33.896 0l6.356 3.53v7.062l-6.356-3.531v-7.062zM57.282 16.54l6.355 3.707v7.415l-6.355 3.707v-7.414l-6.356-3.708 6.356-3.707zm-42.37 0l6.355 3.707-6.356 3.708v7.414l-6.355-3.707v-7.415l6.355-3.707zm21.184 0l6.356 3.707-6.356 3.708-6.355-3.708 6.355-3.707zm0-11.652l16.948 10.055-6.23 3.715-10.718-6.34-10.717 6.34-6.23-3.715L36.095 4.89z" transform="translate(-265 -436) translate(245 416) translate(36 44) translate(44.667 36.667)"/>
                    </g>
                </g>
            </g>
        </g>
    </g>
</svg>
