<svg xmlns="http://www.w3.org/2000/svg" width="38" height="38" viewBox="0 0 34	34">
    <g fill="none" fill-rule="evenodd">
        <g>
            <g>
                <g>
                    <g>
                        <g>
                            <path fill="#E5E5E5" d="M20 3.333C10.795 3.333 3.333 10.795 3.333 20c0 9.205 7.462 16.667 16.667 16.667 9.205 0 16.667-7.462 16.667-16.667 0-9.205-7.462-16.667-16.667-16.667z" transform="translate(-318 -634) translate(263 290) translate(21 341) translate(31.108)"/>
                            <path fill="#FFF" d="M25.89 14.72c.345-.366.907-.368 1.255-.004.321.336.348.866.078 1.234l-.073.088-8.713 9.241c-.316.336-.816.366-1.165.087l-.084-.076-4.327-4.44c-.351-.36-.359-.951-.017-1.321.316-.342.82-.374 1.171-.094l.085.077 3.696 3.792 8.094-8.583z" transform="translate(-318 -634) translate(263 290) translate(21 341) translate(31.108)"/>
                        </g>
                    </g>
                </g>
            </g>
        </g>
    </g>
</svg>
