<svg xmlns="http://www.w3.org/2000/svg" width="38" height="38" viewBox="0 0 34 34">
    <g fill="none" fill-rule="evenodd">
        <g>
            <g>
                <g>
                    <g>
                        <g>
                            <path fill="#DF434C" d="M20 3.333C10.795 3.333 3.333 10.795 3.333 20c0 9.205 7.462 16.667 16.667 16.667 9.205 0 16.667-7.462 16.667-16.667 0-9.205-7.462-16.667-16.667-16.667z" transform="translate(-492 -634) translate(263 290) translate(21 341) translate(165) translate(40.096)"/>
                            <path fill="#FFF" d="M20.01 11.48c.455 0 .833.328.912.76l.014.166-.069 6.65 6.738.02c.512 0 .926.414.926.925 0 .455-.327.833-.76.911l-.166.015-6.738-.019-.053 6.81c0 .512-.414.926-.926.926-.454 0-.832-.327-.91-.76l-.016-.166.053-6.81-6.722.141c-.51 0-.925-.414-.925-.925 0-.455.327-.833.759-.911l.166-.015 6.722-.141.07-6.65c0-.512.414-.926.926-.926z" transform="translate(-492 -634) translate(263 290) translate(21 341) translate(165) translate(40.096) rotate(45 19.95 20.062)"/>
                        </g>
                    </g>
                </g>
            </g>
        </g>
    </g>
</svg>
