<svg xmlns="http://www.w3.org/2000/svg" width="38" height="38" viewBox="0 0 34 34">
    <g fill="none" fill-rule="evenodd">
        <g>
            <g>
                <g>
                    <g>
                        <g>
                            <g>
                                <path fill="#E5E5E5" d="M16.667 0C7.462 0 0 7.462 0 16.667c0 9.204 7.462 16.666 16.667 16.666 9.204 0 16.666-7.462 16.666-16.666C33.333 7.462 25.871 0 16.667 0zm0 3.704c7.159 0 12.963 5.803 12.963 12.963 0 7.159-5.804 12.963-12.963 12.963-7.16 0-12.963-5.804-12.963-12.963 0-7.16 5.803-12.963 12.963-12.963z" transform="translate(-491 -634) translate(263 290) translate(21 341) translate(165) translate(39) translate(3.333 3.333)"/>
                                <path fill="#1A38F8" d="M16.233 0c9.433 0 17.1 7.45 17.1 16.667 0 9.217-7.667 16.666-17.1 16.666-4.526 0-8.28-1.96-11.454-4.986-.74-.706-.769-1.878-.063-2.618.705-.74 1.878-.769 2.618-.063 2.49 2.373 5.33 3.964 8.9 3.964 7.41 0 13.396-5.816 13.396-12.963 0-7.147-5.986-12.963-13.397-12.963-1.023 0-1.852-.83-1.852-1.852 0-1.023.83-1.852 1.852-1.852z" transform="translate(-491 -634) translate(263 290) translate(21 341) translate(165) translate(39) translate(3.333 3.333)"/>
                            </g>
                        </g>
                    </g>
                </g>
            </g>
        </g>
    </g>
</svg>
