<svg xmlns="http://www.w3.org/2000/svg" width="148" height="20" viewBox="0 0 148 20">
    <g fill="none" fill-rule="evenodd">
        <g fill="#BABABA">
            <g>
                <path d="M278.454 79.357l.107.097 8.485 8.485c.551.552.584 1.425.097 2.015l-.097.107-8.485 8.485c-.586.586-1.536.586-2.122 0-.551-.551-.583-1.425-.097-2.014l.097-.107L283.864 89l-7.425-7.425c-.551-.55-.583-1.425-.097-2.014l.097-.107c.552-.551 1.425-.584 2.015-.097zM147.5 87c.828 0 1.5.672 1.5 1.5s-.672 1.5-1.5 1.5h-6c-.828 0-1.5-.672-1.5-1.5s.672-1.5 1.5-1.5zm18 0c.828 0 1.5.672 1.5 1.5s-.672 1.5-1.5 1.5h-6c-.828 0-1.5-.672-1.5-1.5s.672-1.5 1.5-1.5zm18 0c.828 0 1.5.672 1.5 1.5s-.672 1.5-1.5 1.5h-6c-.828 0-1.5-.672-1.5-1.5s.672-1.5 1.5-1.5zm18 0c.828 0 1.5.672 1.5 1.5s-.672 1.5-1.5 1.5h-6c-.828 0-1.5-.672-1.5-1.5s.672-1.5 1.5-1.5zm18 0c.828 0 1.5.672 1.5 1.5s-.672 1.5-1.5 1.5h-6c-.828 0-1.5-.672-1.5-1.5s.672-1.5 1.5-1.5zm18 0c.828 0 1.5.672 1.5 1.5s-.672 1.5-1.5 1.5h-6c-.828 0-1.5-.672-1.5-1.5s.672-1.5 1.5-1.5zm18 0c.828 0 1.5.672 1.5 1.5s-.672 1.5-1.5 1.5h-6c-.828 0-1.5-.672-1.5-1.5s.672-1.5 1.5-1.5zm18 0c.828 0 1.5.672 1.5 1.5s-.672 1.5-1.5 1.5h-6c-.828 0-1.5-.672-1.5-1.5s.672-1.5 1.5-1.5z" transform="translate(-441 -515) translate(301 436)"/>
            </g>
        </g>
    </g>
</svg>
