<svg xmlns="http://www.w3.org/2000/svg" width="136" height="136" viewBox="0 0 136 136">
    <g fill="none" fill-rule="evenodd">
        <g>
            <g>
                <g>
                    <path fill="#99999A" d="M76.444 0c3.812 0 6.945 2.908 7.3 6.627l.034.706v19.555h-4.89v-9.777c0-1.35-1.094-2.444-2.444-2.444H8c-1.296 0-2.356 1.008-2.44 2.283l-.004.161-.001 17.111h26.89c3.811 0 6.944 2.909 7.3 6.627l.033.707v4.888c0 3.812-2.909 6.945-6.627 7.3l-.707.034-26.89-.001.002 22c0 1.297 1.008 2.357 2.283 2.44l.161.005h34.222v4.889H8c-3.97 0-7.202-3.153-7.33-7.091l-.003-.242V17.11c0-3.969 3.153-7.202 7.09-7.33L8 9.779l7.333-.001V7.333c0-3.812 2.909-6.944 6.627-7.3L22.667 0h53.777zm-44 39.111H5.554v9.777h26.89c1.2 0 2.199-.864 2.406-2.004l.039-.44v-4.888c0-1.2-.865-2.199-2.005-2.406l-.44-.039zm44-34.222H22.667c-1.2 0-2.198.865-2.405 2.005l-.04.44v2.443h56.222c.858 0 1.68.148 2.446.418l-.001-2.862c0-1.2-.865-2.198-2.005-2.405l-.44-.04z" transform="translate(-585 -436) translate(565 416) translate(36 44)"/>
                    <g fill-rule="nonzero" stroke-linecap="round" stroke-linejoin="round">
                        <g>
                            <path fill="#E17726" stroke="#E17726" d="M60.378 0L36.015 19.067 40.54 7.818z" transform="translate(-585 -436) translate(565 416) translate(36 44) translate(49.556 34.222) translate(4.889 7.333)"/>
                            <path fill="#E27625" stroke="#E27625" d="M3.178 0L27.541 19.067 23.198 7.744zM51.034 43.43L44.489 53.379 58.494 57.2 62.496 43.649zM1.059 43.649L5.043 57.2 19.067 53.379 12.537 43.43z" transform="translate(-585 -436) translate(565 416) translate(36 44) translate(49.556 34.222) translate(4.889 7.333)"/>
                            <path fill="#E27625" stroke="#E27625" d="M17.641 25.306L13.77 31.165 27.541 31.778 27.075 16.948zM45.914 25.38L36.333 16.948 36.015 31.778 49.785 31.172zM19.067 52.963L27.541 48.958 20.241 43.43zM36.015 48.958L44.489 52.963 43.315 43.43z" transform="translate(-585 -436) translate(565 416) translate(36 44) translate(49.556 34.222) translate(4.889 7.333)"/>
                            <path fill="#D5BFB2" stroke="#D5BFB2" d="M44.489 53.683L36.015 49.785 36.689 55.004 36.616 57.2zM19.067 53.683L26.94 57.2 26.891 55.004 27.541 49.785z" transform="translate(-585 -436) translate(565 416) translate(36 44) translate(49.556 34.222) translate(4.889 7.333)"/>
                            <path fill="#233447" stroke="#233447" d="M26.481 39.193L19.067 37.172 24.298 34.956zM37.074 39.193L39.25 34.956 44.489 37.172z" transform="translate(-585 -436) translate(565 416) translate(36 44) translate(49.556 34.222) translate(4.889 7.333)"/>
                            <path fill="#CC6228" stroke="#CC6228" d="M18.966 52.963L20.126 42.37 12.711 42.604zM43.43 42.37L44.586 52.963 50.844 42.604zM49.785 31.778L36.015 32.369 37.289 39.193 39.323 35.084 44.222 37.234zM19.357 37.234L24.232 35.084 26.267 39.193 27.541 32.369 13.77 31.778z" transform="translate(-585 -436) translate(565 416) translate(36 44) translate(49.556 34.222) translate(4.889 7.333)"/>
                            <path fill="#E27525" stroke="#E27525" d="M13.77 31.778L20.126 43.43 19.911 37.629zM43.671 37.629L43.43 43.43 49.785 31.778zM27.859 32.837L26.481 40.124 28.23 48.726 28.6 37.401zM35.679 32.837L34.956 37.376 35.304 48.726 37.074 40.124z" transform="translate(-585 -436) translate(565 416) translate(36 44) translate(49.556 34.222) translate(4.889 7.333)"/>
                            <path fill="#F5841F" stroke="#F5841F" d="M36.558 39.189L34.956 47.885 36.12 48.726 43.212 42.914 43.43 37.074zM20.126 37.074L20.32 42.914 27.432 48.726 28.6 47.885 26.993 39.189z" transform="translate(-585 -436) translate(565 416) translate(36 44) translate(49.556 34.222) translate(4.889 7.333)"/>
                            <path fill="#C0AC9D" stroke="#C0AC9D" d="M36.552 56.827L36.626 54.414 35.998 53.845 26.498 53.845 25.895 54.414 25.944 56.827 18.007 52.963 20.78 55.296 26.423 59.319 36.073 59.319 41.717 55.296 44.489 52.963z" transform="translate(-585 -436) translate(565 416) translate(36 44) translate(49.556 34.222) translate(4.889 7.333)"/>
                            <path fill="#161616" stroke="#161616" d="M36.403 49.551L35.21 48.726 28.321 48.726 27.128 49.551 26.481 55.081 27.077 54.532 36.454 54.532 37.074 55.081z" transform="translate(-585 -436) translate(565 416) translate(36 44) translate(49.556 34.222) translate(4.889 7.333)"/>
                            <path fill="#763E1A" stroke="#763E1A" d="M61.429 19.781L63.556 9.527 60.367 0 36.015 17.947 45.382 25.812 58.619 29.659 61.531 26.265 60.264 25.361 62.289 23.524 60.746 22.319 62.77 20.786zM0 9.527L2.152 19.781.785 20.786 2.81 22.319 1.267 23.524 3.291 25.361 2.025 26.265 4.937 29.659 18.173 25.812 27.541 17.947 3.189 0z" transform="translate(-585 -436) translate(565 416) translate(36 44) translate(49.556 34.222) translate(4.889 7.333)"/>
                            <path fill="#F5841F" stroke="#F5841F" d="M58.196 29.365L45.346 25.422 49.229 31.58 43.43 43.43 51.095 43.326 62.496 43.326zM18.207 25.422L5.341 29.365 1.059 43.326 12.476 43.326 20.126 43.43 14.32 31.58zM35.607 31.996L36.46 17.641 40.252 7.415 23.304 7.415 27.096 17.641 27.949 31.996 28.275 36.522 28.3 47.667 35.255 47.667 35.28 36.522z" transform="translate(-585 -436) translate(565 416) translate(36 44) translate(49.556 34.222) translate(4.889 7.333)"/>
                        </g>
                    </g>
                </g>
            </g>
        </g>
    </g>
</svg>
