<svg xmlns="http://www.w3.org/2000/svg" width="120" height="120" viewBox="0 0 120 120">
    <g fill="none" fill-rule="evenodd">
        <g>
            <g>
                <g fill-rule="nonzero" stroke-linecap="round" stroke-linejoin="round">
                    <g>
                        <path fill="#E17726" stroke="#E17726" d="M80.836 0L48.218 25.527 54.276 10.467z" transform="translate(-613 -464) translate(613 464) translate(6.545 9.818)"/>
                        <path fill="#E27625" stroke="#E27625" d="M4.255 0L36.873 25.527 31.059 10.369zM68.326 58.145L59.564 71.466 78.314 76.582 83.673 58.44zM1.418 58.44L6.751 76.582 25.527 71.466 16.785 58.145z" transform="translate(-613 -464) translate(613 464) translate(6.545 9.818)"/>
                        <path fill="#E27625" stroke="#E27625" d="M23.619 33.88L18.436 41.725 36.873 42.545 36.249 22.691zM61.472 33.979L48.645 22.691 48.218 42.545 66.655 41.734zM25.527 70.909L36.873 65.548 27.1 58.145zM48.218 65.548L59.564 70.909 57.991 58.145z" transform="translate(-613 -464) translate(613 464) translate(6.545 9.818)"/>
                        <path fill="#D5BFB2" stroke="#D5BFB2" d="M59.564 71.874L48.218 66.655 49.121 73.642 49.022 76.582zM25.527 71.874L36.068 76.582 36.003 73.642 36.873 66.655z" transform="translate(-613 -464) translate(613 464) translate(6.545 9.818)"/>
                        <path fill="#233447" stroke="#233447" d="M35.455 52.473L25.527 49.768 32.531 46.8zM49.636 52.473L52.549 46.8 59.564 49.768z" transform="translate(-613 -464) translate(613 464) translate(6.545 9.818)"/>
                        <path fill="#CC6228" stroke="#CC6228" d="M25.392 70.909L26.945 56.727 17.018 57.04zM58.145 56.727L59.694 70.909 68.073 57.04zM66.655 42.545L48.218 43.337 49.924 52.473 52.648 46.972 59.207 49.85zM25.916 49.85L32.443 46.972 35.167 52.473 36.873 43.337 18.436 42.545z" transform="translate(-613 -464) translate(613 464) translate(6.545 9.818)"/>
                        <path fill="#E27525" stroke="#E27525" d="M18.436 42.545L26.945 58.145 26.658 50.379zM58.469 50.379L58.145 58.145 66.655 42.545zM37.299 43.964L35.455 53.72 37.795 65.236 38.291 50.074zM47.769 43.964L46.8 50.041 47.267 65.236 49.636 53.72z" transform="translate(-613 -464) translate(613 464) translate(6.545 9.818)"/>
                        <path fill="#F5841F" stroke="#F5841F" d="M48.945 52.468L46.8 64.11 48.359 65.236 57.854 57.455 58.145 49.636zM26.945 49.636L27.206 57.455 36.727 65.236 38.291 64.11 36.139 52.468z" transform="translate(-613 -464) translate(613 464) translate(6.545 9.818)"/>
                        <path fill="#C0AC9D" stroke="#C0AC9D" d="M48.937 76.082L49.037 72.852 48.196 72.089 35.476 72.089 34.669 72.852 34.735 76.082 24.109 70.909 27.821 74.033 35.377 79.418 48.296 79.418 55.852 74.033 59.564 70.909z" transform="translate(-613 -464) translate(613 464) translate(6.545 9.818)"/>
                        <path fill="#161616" stroke="#161616" d="M48.738 66.342L47.14 65.236 37.918 65.236 36.32 66.342 35.455 73.745 36.252 73.01 48.807 73.01 49.636 73.745z" transform="translate(-613 -464) translate(613 464) translate(6.545 9.818)"/>
                        <path fill="#763E1A" stroke="#763E1A" d="M82.244 26.484L85.091 12.755 80.821 0 48.218 24.028 60.759 34.558 78.481 39.709 82.38 35.165 80.685 33.955 83.395 31.495 81.329 29.881 84.039 27.83zM0 12.755L2.881 26.484 1.052 27.83 3.762 29.881 1.696 31.495 4.406 33.955 2.711 35.165 6.609 39.709 24.331 34.558 36.873 24.028 4.269 0z" transform="translate(-613 -464) translate(613 464) translate(6.545 9.818)"/>
                        <path fill="#F5841F" stroke="#F5841F" d="M77.915 39.315L60.712 34.036 65.909 42.281 58.145 58.145 68.408 58.006 83.673 58.006zM24.376 34.036L7.151 39.315 1.418 58.006 16.703 58.006 26.945 58.145 19.172 42.281zM47.672 42.837L48.814 23.618 53.891 9.927 31.2 9.927 36.277 23.618 37.419 42.837 37.856 48.897 37.889 63.818 47.202 63.818 47.235 48.897z" transform="translate(-613 -464) translate(613 464) translate(6.545 9.818)"/>
                    </g>
                </g>
                <path fill="#F0B90B" d="M108.272 113.94v4.04l-3.597 2.02-3.596-2.02v-4.04l3.596 2.02 3.597-2.02zM120.26 100v10.91l-9.59 5.454v-4.03l6.064-3.44v-6.879L120.26 100zm-31.17 0l3.527 2.015v6.879l6.064 3.44v4.03l-9.59-5.455V100zm21.65-6.06l3.526 2.06v4.12l-6.065 3.515v7.032l-3.526 2.06-3.526-2.06v-7.032l-6.064-3.516V96l3.526-2.06 6.064 3.516 6.065-3.516zm3.526 9.09v4.04l-3.597 2.02v-4.04l3.597-2.02zm-19.181 0l3.596 2.02v4.04l-3.596-2.02v-4.04zm21.578-12.727l3.597 2.121v4.243l-3.597 2.12v-4.242l-3.596-2.12 3.596-2.122zm-23.976 0l3.597 2.121-3.597 2.121v4.243l-3.596-2.121v-4.243l3.596-2.121zm11.988 0l3.597 2.121-3.597 2.121-3.596-2.12 3.596-2.122zm0-6.667l9.59 5.754-3.525 2.125-6.065-3.628-6.064 3.628-3.526-2.125 9.59-5.754z" transform="translate(-613 -464) translate(613 464)"/>
            </g>
        </g>
    </g>
</svg>
