<svg xmlns="http://www.w3.org/2000/svg" width="16" height="16" viewBox="0 0 16 16">
    <g fill="none" fill-rule="evenodd">
        <g fill="#99999a">
            <g>
                <g>
                    <g>
                        <path d="M3.56 9.162c.494 2.534 2.88 4.204 5.331 3.73 1.467-.285 2.664-1.288 3.25-2.655l-2.376.46c-.248.048-.49-.107-.566-.351l-.015-.058c-.05-.257.096-.506.33-.582l.057-.014 3.185-.617c.248-.048.49.106.566.35l.015.058.663 3.4c.054.278-.119.545-.386.597-.248.049-.49-.105-.567-.35l-.015-.058-.336-1.728c-.786 1.313-2.078 2.255-3.61 2.552-2.984.578-5.891-1.456-6.493-4.545-.054-.278.118-.545.386-.597.267-.052.527.13.581.408zm10.188-3.365c.097.265-.032.556-.288.65-.255.093-.541-.046-.638-.312-.886-2.426-3.505-3.703-5.85-2.852-1.108.402-1.985 1.218-2.479 2.256l2.065-.75c.238-.086.501.029.615.258l.023.055c.09.247-.015.515-.236.626l-.053.023-3.049 1.107c-.237.086-.5-.028-.614-.257l-.024-.055L2.032 3.29c-.097-.265.032-.556.288-.65.238-.086.501.028.615.257l.024.055.718 1.972C4.3 3.719 5.334 2.789 6.622 2.32c2.857-1.036 6.047.52 7.126 3.476z" transform="translate(-544 -904) translate(466 904) translate(78)"/>
                    </g>
                </g>
            </g>
        </g>
    </g>
</svg>
