<svg xmlns="http://www.w3.org/2000/svg" width="76" height="20" viewBox="0 0 76 20">
    <g fill="none" fill-rule="evenodd">
        <g fill="#BABABA">
            <path d="M541.454 402.342l.107.097 8.485 8.486c.551.551.584 1.425.097 2.014l-.097.107-8.485 8.485c-.586.586-1.536.586-2.122 0-.551-.551-.583-1.425-.097-2.014l.097-.107 7.425-7.425-7.425-7.424c-.551-.552-.583-1.425-.097-2.015l.097-.107c.552-.551 1.425-.583 2.015-.097zm-58.954 7.643c.828 0 1.5.672 1.5 1.5 0 .829-.672 1.5-1.5 1.5h-6c-.828 0-1.5-.671-1.5-1.5 0-.828.672-1.5 1.5-1.5zm18 0c.828 0 1.5.672 1.5 1.5 0 .829-.672 1.5-1.5 1.5h-6c-.828 0-1.5-.671-1.5-1.5 0-.828.672-1.5 1.5-1.5zm18 0c.828 0 1.5.672 1.5 1.5 0 .829-.672 1.5-1.5 1.5h-6c-.828 0-1.5-.671-1.5-1.5 0-.828.672-1.5 1.5-1.5zm18 0c.828 0 1.5.672 1.5 1.5 0 .829-.672 1.5-1.5 1.5h-6c-.828 0-1.5-.671-1.5-1.5 0-.828.672-1.5 1.5-1.5z" transform="translate(-475 -402)"/>
        </g>
    </g>
</svg>
