<svg xmlns="http://www.w3.org/2000/svg" width="160" height="160" viewBox="0 0 160 160">
    <g fill="none" fill-rule="evenodd">
        <g fill="#BABABA">
            <g>
                <path d="M109.267 11c7.48 0 13.564 6.01 13.73 13.488l.003.312v2.524l-6.867 6.819V24.8c0-3.81-3.074-6.9-6.866-6.9H33.733c-3.713 0-6.738 2.962-6.862 6.663l-.004.237v110.4c0 3.731 2.947 6.771 6.63 6.896l.236.004h75.534c3.713 0 6.738-2.962 6.862-6.663l.004-.237V95.82L123 88.796V135.2c0 7.517-5.981 13.63-13.422 13.797l-.311.003H33.733c-7.48 0-13.564-6.01-13.73-13.488L20 135.2V24.8c0-7.517 5.981-13.63 13.422-13.797l.311-.003h75.534zm-44.29 89.7c1.706 0 3.09 1.545 3.09 3.45 0 1.694-1.093 3.102-2.535 3.394l-.555.056H43.69c-1.707 0-3.09-1.545-3.09-3.45 0-1.694 1.093-3.102 2.535-3.394l.555-.056h21.287zM77.242 80l-3.081 6.9H43.69c-1.707 0-3.09-1.545-3.09-3.45 0-1.694 1.093-3.102 2.535-3.394L43.69 80h33.552zm13.557-20.7l-6.948 6.9H43.69c-1.707 0-3.09-1.545-3.09-3.45 0-1.694 1.093-3.102 2.535-3.394l.555-.056h47.109zm8.511-20.7c1.707 0 3.09 1.545 3.09 3.45 0 1.694-1.093 3.102-2.535 3.394l-.555.056H43.69c-1.707 0-3.09-1.545-3.09-3.45 0-1.694 1.093-3.102 2.535-3.394l.555-.056h55.62z" transform="translate(-433 -461) translate(433 461)"/>
                <path d="M140.51 26.878l13.71 13.872c1.541 1.558 1.541 4.065 0 5.624L109.155 91.97c-.324.328-.703.598-1.119.797L82.078 105.18c-1.993.954-4.381.11-5.334-1.882-.517-1.08-.522-2.335-.016-3.42l12.31-26.347c.193-.415.456-.793.778-1.119l45.005-45.534c1.553-1.57 4.085-1.586 5.657-.033l.033.033z" transform="translate(-433 -461) translate(433 461)"/>
            </g>
        </g>
    </g>
</svg>
