<svg xmlns="http://www.w3.org/2000/svg" width="40" height="40" viewBox="0 0 40 40">
    <g fill="none" fill-rule="evenodd">
        <g fill="#F0B90B">
            <g>
                <g>
                    <path d="M23.077 30.308v3.419L20 35.436l-3.077-1.71v-3.418L20 32.018l3.077-1.71zm10.256-11.795v9.23l-8.205 4.616v-3.41l5.189-2.91v-5.821l3.016-1.705zm-26.666 0l3.016 1.705v5.82l5.189 2.91v3.411l-8.205-4.615v-9.231zm18.521-5.128l3.017 1.743v3.486l-5.188 2.975v5.95L20 29.282l-3.017-1.743v-5.95l-5.188-2.975v-3.486l3.016-1.743L20 16.36l5.188-2.975zm3.017 7.692v3.419l-3.077 1.71v-3.42l3.077-1.71zm-16.41 0l3.077 1.71v3.418l-3.077-1.71v-3.418zm18.461-10.77l3.077 1.796v3.59l-3.077 1.794v-3.59l-3.077-1.794 3.077-1.795zm-20.512 0l3.077 1.796-3.077 1.794v3.59l-3.077-1.795v-3.59l3.077-1.794zm10.256 0l3.077 1.796L20 13.897l-3.077-1.794L20 10.308zm0-5.64l8.205 4.868-3.017 1.798L20 8.263l-5.189 3.07-3.016-1.798L20 4.667z" transform="translate(-473 -492) translate(433 425) translate(40 67)"/>
                </g>
            </g>
        </g>
    </g>
</svg>
