<?xml version="1.0" encoding="UTF-8"?>
<svg width="80px" height="81px" viewBox="0 0 80 81" version="1.1" xmlns="http://www.w3.org/2000/svg" xmlns:xlink="http://www.w3.org/1999/xlink">
    <title>93063EDF-1A9E-4A01-B68E-A09E046A664B</title>
    <g id="🖥-Buildr" stroke="none" stroke-width="1" fill="none" fill-rule="evenodd" stroke-linecap="round" stroke-linejoin="round">
        <g id="Home-/-Updated" transform="translate(-1187.000000, -325.000000)" fill-rule="nonzero">
            <g id="Group-7" transform="translate(1074.000000, 224.000000)">
                <g id="Wallet-Button/Default">
                    <g id="Group" transform="translate(74.000000, 101.171569)">
                        <g id="Logo/Wallet/Metamask" transform="translate(39.000000, 0.000000)">
                            <g id="Group" transform="translate(5.333333, 8.000000)">
                                <polygon id="Path" stroke="#E17726" fill="#E17726" points="65.8666667 0 39.2888889 20.8 44.2249121 8.52849907"></polygon>
                                <polygon id="Path" stroke="#E27625" fill="#E27625" points="3.46666667 0 30.0444444 20.8 25.307128 8.44854087"></polygon>
                                <polygon id="Path" stroke="#E27625" fill="#E27625" points="55.6733895 47.3777778 48.5333333 58.2316954 63.8114609 62.4 68.1777778 47.617396"></polygon>
                                <polygon id="Path" stroke="#E27625" fill="#E27625" points="1.15555556 47.617396 5.50120116 62.4 20.8 58.2316954 13.6768622 47.3777778"></polygon>
                                <polygon id="Path" stroke="#E27625" fill="#E27625" points="19.2450831 27.6061714 15.0222222 33.9977499 30.0444444 34.6666667 29.5363321 18.4888889"></polygon>
                                <polygon id="Path" stroke="#E27625" fill="#E27625" points="50.0882502 27.6868433 39.6364061 18.4888889 39.2888889 34.6666667 54.3111111 34.0053928"></polygon>
                                <polygon id="Path" stroke="#E27625" fill="#E27625" points="20.8 57.7777778 30.0444444 53.4092565 22.0811156 47.3777778"></polygon>
                                <polygon id="Path" stroke="#E27625" fill="#E27625" points="39.2888889 53.4092565 48.5333333 57.7777778 47.2522177 47.3777778"></polygon>
                                <polygon id="Path" stroke="#D5BFB2" fill="#D5BFB2" points="48.5333333 58.5636136 39.2888889 54.3111111 40.0247918 60.0047958 39.9442185 62.4"></polygon>
                                <polygon id="Path" stroke="#D5BFB2" fill="#D5BFB2" points="20.8 58.5636136 29.3891149 62.4 29.3353993 60.0047958 30.0444444 54.3111111"></polygon>
                                <polygon id="Path" stroke="#233447" fill="#233447" points="28.8888889 42.7555556 20.8 40.5517554 26.5071448 38.1333333"></polygon>
                                <polygon id="Path" stroke="#233447" fill="#233447" points="40.4444444 42.7555556 42.8178984 38.1333333 48.5333333 40.5517554"></polygon>
                                <polygon id="Path" stroke="#CC6228" fill="#CC6228" points="20.6901549 57.7777778 21.9555556 46.2222222 13.8666667 46.4773303"></polygon>
                                <polygon id="Path" stroke="#CC6228" fill="#CC6228" points="47.3777778 46.2222222 48.6392079 57.7777778 55.4666667 46.4773303"></polygon>
                                <polygon id="Path" stroke="#CC6228" fill="#CC6228" points="54.3111111 34.6666667 39.2888889 35.3113412 40.6789578 42.7555556 42.8983292 38.2732908 48.2427231 40.6184848"></polygon>
                                <polygon id="Path" stroke="#CC6228" fill="#CC6228" points="21.1169373 40.6184848 26.4350041 38.2732908 28.6543755 42.7555556 30.0444444 35.3113412 15.0222222 34.6666667"></polygon>
                                <polygon id="Path" stroke="#E27525" fill="#E27525" points="15.0222222 34.6666667 21.9555556 47.3777778 21.7211649 41.0494409"></polygon>
                                <polygon id="Path" stroke="#E27525" fill="#E27525" points="47.6411055 41.0494409 47.3777778 47.3777778 54.3111111 34.6666667"></polygon>
                                <polygon id="Path" stroke="#E27525" fill="#E27525" points="30.3916804 35.8222222 28.8888889 43.7719746 30.7958402 53.1555556 31.2 40.8013205"></polygon>
                                <polygon id="Path" stroke="#E27525" fill="#E27525" points="38.9229149 35.8222222 38.1333333 40.774216 38.5137157 53.1555556 40.4444444 43.7719746"></polygon>
                                <polygon id="Path" stroke="#F5841F" fill="#F5841F" points="39.8815066 42.75157 38.1333333 52.2376374 39.4040204 53.1555556 47.1403393 46.8150703 47.3777778 40.4444444"></polygon>
                                <polygon id="Path" stroke="#F5841F" fill="#F5841F" points="21.9555556 40.4444444 22.1675001 46.8150703 29.9257163 53.1555556 31.2 52.2376374 29.4468786 42.75157"></polygon>
                                <polygon id="Path" stroke="#C0AC9D" fill="#C0AC9D" points="39.8747891 61.9929768 39.9560137 59.3612652 39.2710195 58.7395791 28.9067583 58.7395791 28.2488389 59.3612652 28.3029886 61.9929768 19.6444444 57.7777778 22.6687077 60.3230666 28.8255337 64.7111111 39.3522441 64.7111111 45.5090701 60.3230666 48.5333333 57.7777778"></polygon>
                                <polygon id="Path" stroke="#161616" fill="#161616" points="39.7122006 54.056163 38.4107308 53.1555556 30.8958783 53.1555556 29.5944085 54.056163 28.8888889 60.0888889 29.5382876 59.48938 39.7683215 59.48938 40.4444444 60.0888889"></polygon>
                                <polygon id="Path" stroke="#763E1A" fill="#763E1A" points="67.0132255 21.579373 69.3333333 10.3926693 65.8545316 0 39.2888889 19.578082 49.5076991 28.158516 63.9478544 32.3555556 67.124743 28.652762 65.7430141 27.6669709 67.9516044 25.662979 66.2679623 24.3476906 68.4765526 22.6758969"></polygon>
                                <polygon id="Path" stroke="#763E1A" fill="#763E1A" points="0 10.3926693 2.34730722 21.579373 0.856780735 22.6758969 3.06537107 24.3476906 1.38172893 25.662979 3.59031927 27.6669709 2.20859034 28.652762 5.38547891 32.3555556 19.8256342 28.158516 30.0444444 19.578082 3.47880178 0"></polygon>
                                <polygon id="Path" stroke="#F5841F" fill="#F5841F" points="63.4860286 32.034794 49.4688669 27.7333333 53.7038504 34.4512517 47.3777778 47.3777778 55.7394939 47.2642901 68.1777778 47.2642901"></polygon>
                                <polygon id="Path" stroke="#F5841F" fill="#F5841F" points="19.8618087 27.7333333 5.82683161 32.034794 1.15555556 47.2642901 13.6096481 47.2642901 21.9555556 47.3777778 15.6214427 34.4512517"></polygon>
                                <polygon id="Path" stroke="#F5841F" fill="#F5841F" points="38.8436661 34.9044469 39.7745865 19.244439 43.9111111 8.08888889 25.4222222 8.08888889 29.5587468 19.244439 30.4896673 34.9044469 30.8458455 39.8419741 30.8728287 52 38.4605046 52 38.4874878 39.8419741"></polygon>
                            </g>
                        </g>
                    </g>
                </g>
            </g>
        </g>
    </g>
</svg>