<svg xmlns="http://www.w3.org/2000/svg" width="40" height="40" viewBox="0 0 40 40">
    <g fill="none" fill-rule="evenodd" stroke-linecap="round" stroke-linejoin="round">
        <g fill-rule="nonzero">
            <g>
                <g>
                    <g>
                        <path fill="#E17726" stroke="#E17726" d="M26.884 0L16.036 8.49 18.051 3.481z" transform="translate(-473 -492) translate(433 425) translate(40 67) translate(6 6.667)"/>
                        <path fill="#E27625" stroke="#E27625" d="M1.415 0L12.263 8.49 10.329 3.448zM22.724 19.338L19.81 23.768 26.045 25.469 27.828 19.436zM.472 19.436L2.245 25.469 8.49 23.768 5.582 19.338z" transform="translate(-473 -492) translate(433 425) translate(40 67) translate(6 6.667)"/>
                        <path fill="#E27625" stroke="#E27625" d="M7.855 11.268L6.132 13.877 12.263 14.15 12.056 7.546zM20.444 11.301L16.178 7.546 16.036 14.15 22.168 13.88zM8.49 23.583L12.263 21.8 9.013 19.338zM16.036 21.8L19.81 23.583 19.287 19.338z" transform="translate(-473 -492) translate(433 425) translate(40 67) translate(6 6.667)"/>
                        <path fill="#D5BFB2" stroke="#D5BFB2" d="M19.81 23.904L16.036 22.168 16.337 24.492 16.304 25.469zM8.49 23.904L11.996 25.469 11.974 24.492 12.263 22.168z" transform="translate(-473 -492) translate(433 425) translate(40 67) translate(6 6.667)"/>
                        <path fill="#233447" stroke="#233447" d="M11.791 17.451L8.49 16.552 10.819 15.565zM16.508 17.451L17.477 15.565 19.81 16.552z" transform="translate(-473 -492) translate(433 425) translate(40 67) translate(6 6.667)"/>
                        <path fill="#CC6228" stroke="#CC6228" d="M8.445 23.583L8.961 18.866 5.66 18.97zM19.338 18.866L19.853 23.583 22.639 18.97zM22.168 14.15L16.036 14.413 16.604 17.451 17.51 15.622 19.691 16.579zM8.619 16.579L10.79 15.622 11.696 17.451 12.263 14.413 6.132 14.15z" transform="translate(-473 -492) translate(433 425) translate(40 67) translate(6 6.667)"/>
                        <path fill="#E27525" stroke="#E27525" d="M6.132 14.15L8.961 19.338 8.866 16.755zM19.445 16.755L19.338 19.338 22.168 14.15zM12.405 14.621L11.791 17.866 12.57 21.696 12.735 16.654zM15.887 14.621L15.565 16.643 15.72 21.696 16.508 17.866z" transform="translate(-473 -492) translate(433 425) translate(40 67) translate(6 6.667)"/>
                        <path fill="#F5841F" stroke="#F5841F" d="M16.278 17.45L15.565 21.321 16.083 21.696 19.241 19.108 19.338 16.508zM8.961 16.508L9.048 19.108 12.215 21.696 12.735 21.321 12.019 17.45z" transform="translate(-473 -492) translate(433 425) translate(40 67) translate(6 6.667)"/>
                        <path fill="#C0AC9D" stroke="#C0AC9D" d="M16.275 25.303L16.309 24.229 16.029 23.975 11.799 23.975 11.53 24.229 11.552 25.303 8.018 23.583 9.253 24.622 11.766 26.413 16.062 26.413 18.575 24.622 19.81 23.583z" transform="translate(-473 -492) translate(433 425) translate(40 67) translate(6 6.667)"/>
                        <path fill="#161616" stroke="#161616" d="M16.209 22.064L15.678 21.696 12.611 21.696 12.079 22.064 11.791 24.526 12.056 24.281 16.232 24.281 16.508 24.526z" transform="translate(-473 -492) translate(433 425) translate(40 67) translate(6 6.667)"/>
                        <path fill="#763E1A" stroke="#763E1A" d="M27.352 8.808L28.299 4.242 26.879 0 16.036 7.991 20.207 11.493 26.101 13.206 27.398 11.695 26.834 11.293 27.735 10.475 27.048 9.938 27.95 9.255zM0 4.242L.958 8.808.35 9.255 1.251 9.938.564 10.475 1.465 11.293.901 11.695 2.198 13.206 8.092 11.493 12.263 7.991 1.42 0z" transform="translate(-473 -492) translate(433 425) translate(40 67) translate(6 6.667)"/>
                        <path fill="#F5841F" stroke="#F5841F" d="M25.913 13.075L20.191 11.32 21.92 14.062 19.338 19.338 22.751 19.292 27.828 19.292zM8.107 11.32L2.378 13.075.472 19.292 5.555 19.292 8.961 19.338 6.376 14.062zM15.855 14.247L16.235 7.855 17.923 3.302 10.376 3.302 12.065 7.855 12.445 14.247 12.59 16.262 12.601 21.224 15.698 21.224 15.709 16.262z" transform="translate(-473 -492) translate(433 425) translate(40 67) translate(6 6.667)"/>
                    </g>
                </g>
            </g>
        </g>
    </g>
</svg>
