<svg xmlns="http://www.w3.org/2000/svg" width="40" height="40" viewBox="0 0 40 40">
    <g fill="none" fill-rule="evenodd">
        <g fill="#F0B90B">
            <g>
                <g>
                    <path d="M26.476 22.657l3.769 3.764-.002.002L20 36.667 9.76 26.427l-.006-.006 3.772-3.761L20 29.133l6.476-6.476zM20 16.175l3.822 3.822h-.002l.004.002L20 23.824l-3.819-3.819-.005-.005L20 16.176zm12.9.059L36.667 20 32.9 23.768l-3.767-3.766 3.767-3.767zm-25.8-.002l3.767 3.766L7.1 23.766l-3.767-3.767L7.1 16.233zM20 3.333l10.243 10.244-3.767 3.767L20 10.867l-6.474 6.473-3.766-3.766L20 3.334z" transform="translate(-513 -492) translate(433 425) translate(80 67)"/>
                </g>
            </g>
        </g>
    </g>
</svg>
