<svg xmlns="http://www.w3.org/2000/svg" width="16" height="16" viewBox="0 0 16 16">
    <g fill="none" fill-rule="evenodd">
        <g fill="#1A38F8">
            <g>
                <g>
                    <path d="M7.2 2.1c.147 0 .27.106.295.246L7.5 2.4v4.5H12c.166 0 .3.134.3.3 0 .147-.106.27-.246.295L12 7.5H7.5V12c0 .166-.134.3-.3.3-.147 0-.27-.106-.295-.246L6.9 12V7.5H2.4c-.166 0-.3-.134-.3-.3 0-.147.106-.27.246-.295L2.4 6.9h4.5V2.4c0-.166.134-.3.3-.3z" transform="translate(-44 -155) translate(40 151) translate(4.8 4.8)"/>
                </g>
            </g>
        </g>
    </g>
</svg>
