<svg xmlns="http://www.w3.org/2000/svg" width="24" height="24" viewBox="0 0 24 24">
    <g fill="none" fill-rule="evenodd">
        <g fill="#1A38F8">
            <g>
                <g>
                    <path d="M15.516 4.236c.422-.356 1.053-.303 1.409.12.329.389.308.956-.029 1.322l-.09.086-7.263 6.125 7.418 6.351c.387.332.459.895.185 1.31l-.076.1c-.331.388-.895.46-1.31.185l-.1-.075-8.31-7.117c-.438-.374-.464-1.03-.083-1.44l.088-.084 8.16-6.883z" transform="translate(-443 -432) translate(313 384) translate(130 48) scale(1 -1) rotate(90 24.155 0)"/>
                </g>
            </g>
        </g>
    </g>
</svg>
