<?xml version="1.0" encoding="UTF-8"?>
<svg width="20px" height="20px" viewBox="0 0 20 20" version="1.1" xmlns="http://www.w3.org/2000/svg" xmlns:xlink="http://www.w3.org/1999/xlink">
    <title>F3357156-856E-44EC-AA54-9422D1648175</title>
    <g id="🕹-Zeplin-Guideline" stroke="none" stroke-width="1" fill="none" fill-rule="evenodd">
        <g id="Component_03" transform="translate(-624.000000, -2003.000000)" fill="#BABABA">
            <g id="Group-2" transform="translate(586.000000, 1831.000000)">
                <g id="Switch/Chainlink---ETH-(32)" transform="translate(0.000000, 166.000000)">
                    <g id="Logo/Wallet/BSC" transform="translate(38.000000, 6.000000)">
                        <path d="M11.5777778,15.7777778 L11.5777778,17.7037275 L9.84447418,18.6666667 L8.11111111,17.7037275 L8.11111111,15.7777778 L9.84447418,16.740717 L11.5777778,15.7777778 Z M17.3555556,9.13333333 L17.3555556,14.333357 L12.7333333,16.9333333 L12.7333333,15.0123132 L15.656252,13.3728114 L15.656252,10.0938079 L17.3555556,9.13333333 Z M2.33333333,9.13333333 L4.03267847,10.0938079 L4.03267847,13.3728114 L6.95555556,15.0123132 L6.95555556,16.9333333 L2.33333333,14.333357 L2.33333333,9.13333333 Z M12.7672943,6.24444444 L14.4666667,7.22633799 L14.4666667,9.19011054 L11.5437549,10.8660995 L11.5437549,14.2180774 L9.84445537,15.2 L8.14509756,14.2180774 L8.14509756,10.8660995 L5.22222222,9.19011054 L5.22222222,7.22633799 L6.92157275,6.24444444 L9.84445537,7.92040433 L12.7672943,6.24444444 Z M14.4666667,10.5777778 L14.4666667,12.50368 L12.7333333,13.4666667 L12.7333333,11.5406932 L14.4666667,10.5777778 Z M5.22222222,10.5777778 L6.95555556,11.5406932 L6.95555556,13.4666667 L5.22222222,12.50368 L5.22222222,10.5777778 Z M15.6222594,4.51111111 L17.3555556,5.52221848 L17.3555556,7.54442574 L15.6222594,8.55555556 L15.6222594,6.53331837 L13.8888889,5.52221848 L15.6222594,4.51111111 Z M4.0666634,4.51111111 L5.8,5.52221848 L4.0666634,6.53331837 L4.0666634,8.55555556 L2.33333333,7.54442574 L2.33333333,5.52221848 L4.0666634,4.51111111 Z M9.84447418,4.51111111 L11.5777778,5.52222596 L9.84447418,6.53333333 L8.11111111,5.52222596 L9.84447418,4.51111111 Z M9.84445537,1.33333333 L14.4666667,4.07575976 L12.7672943,5.08888889 L9.84445537,3.35958409 L6.92157275,5.08888889 L5.22222222,4.07575976 L9.84445537,1.33333333 Z" id="Combined-Shape"></path>
                    </g>
                </g>
            </g>
        </g>
    </g>
</svg>