<svg xmlns="http://www.w3.org/2000/svg" width="24" height="24" viewBox="0 0 24 24">
    <g fill="none" fill-rule="evenodd">
        <g fill="#1A38F8" fill-rule="nonzero">
            <g>
                <g>
                    <path d="M12 4c4.418 0 8 3.582 8 8s-3.582 8-8 8-8-3.582-8-8 3.582-8 8-8zm0 1c-3.866 0-7 3.134-7 7s3.134 7 7 7 7-3.134 7-7-3.134-7-7-7zM9.81 9.324l.069.058L12 11.502l2.121-2.12c.196-.196.512-.196.707 0 .174.173.193.443.058.638l-.058.069-2.12 2.121 2.12 2.121c.196.196.196.512 0 .708-.173.173-.443.192-.637.057l-.07-.057-2.12-2.122-2.122 2.122c-.196.195-.512.195-.707 0-.174-.174-.193-.443-.058-.638l.058-.07 2.121-2.121-2.121-2.121c-.196-.195-.196-.512 0-.707.173-.174.443-.193.637-.058z" transform="translate(-241 -184) translate(213 168) translate(28 16)"/>
                </g>
            </g>
        </g>
    </g>
</svg>
