<svg xmlns="http://www.w3.org/2000/svg" width="40" height="40" viewBox="0 0 40 40">
    <g fill="none" fill-rule="evenodd">
        <circle cx="20" cy="20" r="19.5" stroke="#1a38f8" fill="#1a38f8"/>
        <path fill="white" d="M26.01 13.99c.174.173.193.443.058.637l-.058.07L20.707 20l5.303 5.303c.196.196.196.512 0 .707-.173.174-.443.193-.637.058l-.07-.058L20 20.707l-5.303 5.303c-.196.196-.512.196-.707 0-.174-.173-.193-.443-.058-.637l.058-.07L19.293 20l-5.303-5.303c-.196-.196-.196-.512 0-.707.173-.174.443-.193.637-.058l.07.058L20 19.293l5.303-5.303c.196-.196.512-.196.707 0z"/>
    </g>
</svg>
