<svg xmlns="http://www.w3.org/2000/svg" width="41" height="40" viewBox="0 0 41 40">
    <g fill="#1a38f8" fill-rule="evenodd">
        <path d="M25.3 15.249c.312-.33.817-.332 1.13-.005.29.303.313.78.07 1.11l-.065.08-7.841 8.317c-.285.303-.735.33-1.05.079l-.075-.069-3.894-3.995c-.316-.324-.323-.857-.015-1.19.284-.307.737-.337 1.054-.085l.076.07 3.327 3.413 7.284-7.725z" transform="translate(1)"/>
        <path d="M20 5C11.716 5 5 11.716 5 20c0 8.284 6.716 15 15 15 8.284 0 15-6.716 15-15 0-8.284-6.716-15-15-15zm0 1.667c7.364 0 13.333 5.97 13.333 13.333 0 7.364-5.97 13.333-13.333 13.333-7.364 0-13.333-5.97-13.333-13.333 0-7.364 5.97-13.333 13.333-13.333z" transform="translate(1)"/>
    </g>
</svg>
