<?xml version="1.0" encoding="utf-8"?>
<svg width="13px" height="13px" viewBox="0 0 13 13" version="1.1" xmlns:xlink="http://www.w3.org/1999/xlink" xmlns="http://www.w3.org/2000/svg">
  <desc>Created with Lunacy</desc>
  <path d="M8.66312 1.55708C8.60669 0.687691 7.88366 0 7 0L1.66667 0L1.55708 0.00354512C0.687691 0.0599742 0 0.783011 0 1.66667L0 7L0.00354512 7.10958C0.0599742 7.97898 0.783011 8.66667 1.66667 8.66667L2.96625 8.66667L2.96625 8L1.66667 8L1.57036 7.99542C1.06326 7.94697 0.666667 7.5198 0.666667 7L0.666667 1.66667L0.671244 1.57036C0.719701 1.06326 1.14687 0.666667 1.66667 0.666667L7 0.666667L7.09631 0.671244C7.60341 0.719701 8 1.14687 8 1.66667L8 3.13268L8.66667 3.13268L8.66667 1.66667L8.66312 1.55708ZM11 4L5.66667 4C4.74619 4 4 4.74619 4 5.66667L4 11C4 11.9205 4.74619 12.6667 5.66667 12.6667L11 12.6667C11.9205 12.6667 12.6667 11.9205 12.6667 11L12.6667 5.66667C12.6667 4.74619 11.9205 4 11 4ZM5.66667 4.66667L11 4.66667C11.5523 4.66667 12 5.11438 12 5.66667L12 11C12 11.5523 11.5523 12 11 12L5.66667 12C5.11438 12 4.66667 11.5523 4.66667 11L4.66667 5.66667C4.66667 5.11438 5.11438 4.66667 5.66667 4.66667Z" id="Combined-Shape" fill="#BABABA" fill-rule="evenodd" stroke="none" />
</svg>