<svg xmlns="http://www.w3.org/2000/svg" width="16" height="16" viewBox="0 0 16 16">
    <g fill="none" fill-rule="evenodd">
        <g fill="#1A38F8">
            <g>
                <g>
                    <g>
                        <path d="M8.667 1.333H7.333C6.597 1.333 6 1.93 6 2.667v8.49c0 .231.06.46.176.66l1.245 2.181c.256.448.902.448 1.158 0l1.245-2.18c.115-.202.176-.43.176-.662v-8.49c0-.736-.597-1.333-1.333-1.333zm0 .667c.368 0 .666.298.666.667v8.49c0 .115-.03.23-.087.33L8 13.667l-1.246-2.18c-.057-.1-.087-.215-.087-.33v-8.49c0-.369.298-.667.666-.667h1.334z" transform="translate(-477 -703) translate(313 623) translate(41 80) translate(123) rotate(45 8 7.834)"/>
                    </g>
                </g>
            </g>
        </g>
    </g>
</svg>
