<svg xmlns="http://www.w3.org/2000/svg" width="24" height="24" viewBox="0 0 24 24">
    <g fill="none" fill-rule="evenodd">
        <g fill="#DF434C">
            <g>
                <g>
                    <path d="M10.658 5.565c.37-.74 1.272-1.041 2.013-.67.29.145.525.38.67.67l6.383 11.764c.37.741.07 1.642-.671 2.013-.208.104-.438.158-.671.158H5.618c-.828 0-1.5-.672-1.5-1.5 0-.233.054-.463.158-.67zm1.482.19c-.228-.066-.477.038-.587.257L5.17 17.776c-.035.07-.053.146-.053.224 0 .276.224.5.5.5h12.764c.078 0 .154-.018.224-.053.247-.123.347-.424.223-.67L12.447 6.011c-.048-.096-.127-.175-.223-.223zM12 12.5c.256 0 .468.163.497.373l.003.05v2.654c0 .234-.224.423-.5.423-.256 0-.468-.163-.497-.373l-.003-.05v-2.654c0-.234.224-.423.5-.423zm0-1.5c.276 0 .5.224.5.5s-.224.5-.5.5-.5-.224-.5-.5.224-.5.5-.5z" transform="translate(-64 -167) translate(48 151) translate(16 16)"/>
                </g>
            </g>
        </g>
    </g>
</svg>
