<svg xmlns="http://www.w3.org/2000/svg" width="40" height="40" viewBox="0 0 40 40">
    <g fill="#DF434C" fill-rule="evenodd">
        <path d="M26.633 13.455c.29.29.322.738.097 1.063l-.097.116L21.18 20l5.454 5.479c.326.325.326.853 0 1.178-.289.29-.738.322-1.063.097l-.115-.097L20 21.18l-5.546 5.478c-.325.326-.853.326-1.178 0-.29-.289-.322-.738-.097-1.063l.097-.115L18.82 20l-5.545-5.366c-.326-.326-.326-.853 0-1.179.289-.29.738-.321 1.063-.096l.115.096L20 18.821l5.455-5.366c.325-.325.853-.325 1.178 0z"/>
        <path d="M20 5C11.716 5 5 11.716 5 20c0 8.284 6.716 15 15 15 8.284 0 15-6.716 15-15 0-8.284-6.716-15-15-15zm0 1.667c7.364 0 13.333 5.97 13.333 13.333 0 7.364-5.97 13.333-13.333 13.333-7.364 0-13.333-5.97-13.333-13.333 0-7.364 5.97-13.333 13.333-13.333z"/>
    </g>
</svg>
