<svg xmlns="http://www.w3.org/2000/svg" width="16" height="16" viewBox="0 0 16 16">
    <g fill="none" fill-rule="evenodd">
        <g fill="#1A38F8">
            <g>
                <g>
                    <g>
                        <path d="M9.81 3.692l.062.055 3.496 3.496c.24.24.259.618.055.88l-.055.063-3.496 3.496c-.26.26-.683.26-.943 0-.24-.24-.259-.619-.055-.88l.055-.063 2.512-2.513H2.667C2.298 8.227 2 7.929 2 7.56c0-.342.257-.624.589-.662l.078-.005h8.465L8.929 4.69c-.26-.26-.26-.683 0-.943.24-.24.619-.259.88-.055z" transform="translate(-343 -87) translate(276 87) translate(67)"/>
                    </g>
                </g>
            </g>
        </g>
    </g>
</svg>
