<svg xmlns="http://www.w3.org/2000/svg" width="16" height="16" viewBox="0 0 16 16">
    <g fill="none" fill-rule="evenodd">
        <g fill="#BABABA">
            <g>
                <g>
                    <path d="M8.176 11c.277 0 .5.224.5.5 0 .245-.176.45-.41.492l-.09.008h-4c-.276 0-.5-.224-.5-.5 0-.245.177-.45.41-.492l.09-.008h4zM12 8c.276 0 .5.224.5.5 0 .245-.177.45-.41.492L12 9H4c-.276 0-.5-.224-.5-.5 0-.245.177-.45.41-.492L4 8h8zm0-3c.276 0 .5.224.5.5 0 .245-.177.45-.41.492L12 6H4c-.276 0-.5-.224-.5-.5 0-.245.177-.45.41-.492L4 5h8z" transform="translate(-335 -87) translate(327 79) translate(8 8) matrix(-1 0 0 1 16 0)"/>
                </g>
            </g>
        </g>
    </g>
</svg>
