<svg xmlns="http://www.w3.org/2000/svg" width="24" height="24" viewBox="0 0 24 24">
    <g fill="none" fill-rule="evenodd">
        <g fill="#1A38F8">
            <g>
                <g>
                    <path d="M19 3.5c.78 0 1.42.595 1.493 1.356L20.5 5v14c0 .828-.672 1.5-1.5 1.5H5c-.828 0-1.5-.672-1.5-1.5V7c0-.828.672-1.5 1.5-1.5h1.5V5c0-.78.595-1.42 1.356-1.493L8 3.5h11zm0 3H5c-.276 0-.5.224-.5.5v3.5H10c.78 0 1.42.595 1.493 1.356L11.5 12v1c0 .78-.595 1.42-1.356 1.493L10 14.5H4.5V19c0 .245.177.45.41.492L5 19.5h14c.276 0 .5-.224.5-.5V7c0-.276-.224-.5-.5-.5zm-14.5 7H10c.245 0 .45-.177.492-.41L10.5 13v-1c0-.245-.177-.45-.41-.492L10 11.5H4.5v2zm14.5-9H8c-.245 0-.45.177-.492.41L7.5 5v.5H19c.176 0 .344.03.5.086V5c0-.245-.177-.45-.41-.492L19 4.5z" transform="translate(-64 -567) translate(48 547) translate(16 20)"/>
                </g>
            </g>
        </g>
    </g>
</svg>
