<svg xmlns="http://www.w3.org/2000/svg" width="40" height="40" viewBox="0 0 40 40">
    <g fill="none" fill-rule="evenodd">
        <g>
            <g>
                <g>
                    <g stroke="#E5E5E5" transform="translate(-337 -676) translate(313 636) translate(24 40)">
                        <circle cx="20" cy="20" r="19.5"/>
                    </g>
                    <path fill="#5A575C" d="M17 14c1.657 0 3 1.343 3 3s-1.343 3-3 3-3-1.343-3-3 1.343-3 3-3zm2.484-9.354c.174.174.194.443.059.638l-.058.07L5.354 19.505c-.195.196-.512.196-.707 0-.174-.173-.193-.442-.059-.637l.058-.07L18.777 4.648c.195-.196.512-.196.707 0zM17 15c-1.105 0-2 .895-2 2s.895 2 2 2 2-.895 2-2-.895-2-2-2zM7 4c1.657 0 3 1.343 3 3s-1.343 3-3 3-3-1.343-3-3 1.343-3 3-3zm0 1c-1.105 0-2 .895-2 2s.895 2 2 2 2-.895 2-2-.895-2-2-2z" transform="translate(-337 -676) translate(313 636) translate(24 40) translate(8 8)"/>
                </g>
            </g>
        </g>
    </g>
</svg>
