<svg xmlns="http://www.w3.org/2000/svg" width="80" height="80" viewBox="0 0 80 80">
    <defs>
        <linearGradient id="9ff3x460ja" x1="87.611%" x2="0%" y1="50%" y2="50%">
            <stop offset="0%" stop-color="#7EB5FF"/>
            <stop offset="99.968%" stop-color="#1A38F8"/>
        </linearGradient>
    </defs>
    <g fill="none" fill-rule="evenodd">
        <g>
            <g>
                <g>
                    <g>
                        <g>
                            <g fill="#FFF" transform="translate(-579 -509) translate(120 120) translate(193 333) translate(212) translate(54 56)">
                                <circle cx="40" cy="40" r="40"/>
                            </g>
                            <g stroke="#E5E5E5" transform="translate(-579 -509) translate(120 120) translate(193 333) translate(212) translate(54 56)">
                                <circle cx="40" cy="40" r="39.5"/>
                            </g>
                            <path fill="#5A575C" d="M26.401 64c1.297 0 2.357-.363 3.181-1.088.825-.725 1.237-1.698 1.237-2.917V52.23h-2.275v7.582c0 .605-.173 1.083-.52 1.434-.345.352-.887.528-1.623.528s-1.277-.176-1.624-.528c-.346-.351-.519-.83-.519-1.434v-7.582H22v7.764c0 1.22.412 2.192 1.236 2.917.824.725 1.88 1.088 3.165 1.088zm12.462 0c1.241 0 2.25-.313 3.024-.94.775-.626 1.162-1.472 1.162-2.538 0-.33-.04-.635-.123-.915-.083-.28-.181-.52-.297-.717-.115-.198-.283-.39-.503-.577-.22-.187-.414-.335-.585-.445-.17-.11-.412-.228-.725-.354-.313-.127-.56-.22-.742-.28-.181-.06-.448-.146-.8-.256-.856-.264-1.436-.508-1.738-.733-.302-.226-.454-.52-.454-.882 0-.341.135-.618.404-.833.27-.214.64-.321 1.113-.321 1.01 0 1.747.494 2.209 1.483l1.912-1.104c-.396-.813-.948-1.448-1.657-1.904-.709-.456-1.53-.684-2.464-.684-1.044 0-1.937.31-2.679.931-.741.621-1.112 1.454-1.112 2.498 0 .527.093.989.28 1.384.187.396.459.723.816.981.357.258.714.464 1.071.618.357.154.794.308 1.31.462.935.263 1.583.508 1.946.733.362.225.544.541.544.948 0 .352-.149.643-.445.874-.297.23-.764.346-1.401.346-1.32 0-2.204-.588-2.654-1.764l-1.945 1.137c.318.88.868 1.575 1.648 2.086.78.51 1.742.766 2.885.766zm12.23-.23c1.583 0 2.904-.556 3.965-1.666 1.06-1.11 1.59-2.478 1.59-4.104s-.53-2.995-1.59-4.104c-1.06-1.11-2.382-1.665-3.965-1.665h-4.582v11.538h4.582zm0-2.177h-2.307v-7.186h2.307c1 0 1.814.332 2.44.997.626.665.94 1.53.94 2.596s-.314 1.931-.94 2.596c-.626.665-1.44.997-2.44.997z" transform="translate(-579 -509) translate(120 120) translate(193 333) translate(212) translate(54 56)"/>
                            <g fill="url(#9ff3x460ja)" fill-rule="nonzero" transform="translate(-579 -509) translate(120 120) translate(193 333) translate(212) translate(54 56) translate(24 16)">
                                <path d="M8 5.385c1.433-.17 2.485.084 3.158.763.673.68 1.02 1.451 1.04 2.314v18.186c-1.156.09-2.136-.144-2.94-.706-.804-.563-1.223-1.37-1.258-2.421zm6.483 0c1.432-.17 2.485.084 3.158.763.673.68 1.02 1.451 1.039 2.314v18.186c-1.156.09-2.135-.144-2.94-.706-.803-.563-1.223-1.37-1.257-2.421zm6.483 0c1.432-.17 2.485.084 3.158.763.673.68 1.02 1.451 1.039 2.314v18.186c-1.156.09-2.135-.144-2.94-.706-.803-.563-1.223-1.37-1.257-2.421z" transform="rotate(-135 16.581 16)"/>
                            </g>
                        </g>
                    </g>
                </g>
            </g>
        </g>
    </g>
</svg>
