<svg width="163" height="32" viewBox="0 0 163 32" fill="none" xmlns="http://www.w3.org/2000/svg">
<path fill-rule="evenodd" clip-rule="evenodd" d="M10.5592 24.9901L23.3835 12.1658C23.3835 12.1658 24.4623 11.0136 24.2056 9.56474C23.949 8.11587 22.6265 6.98717 22.6265 6.98717L9.76732 19.8464C9.76732 19.8464 8.87275 20.7821 8.8658 22.2167C8.85885 23.6513 10.5592 24.9901 10.5592 24.9901ZM15.1432 29.5742L27.9676 16.7498C27.9676 16.7498 29.0463 15.5977 28.7897 14.1488C28.533 12.6999 27.2106 11.5712 27.2106 11.5712L14.3514 24.4304C14.3514 24.4304 13.4568 25.3662 13.4499 26.8008C13.4429 28.2354 15.1432 29.5742 15.1432 29.5742ZM18.7995 7.5817L5.9751 20.4061C5.9751 20.4061 4.2748 19.0673 4.28175 17.6327C4.2887 16.1981 5.18326 15.2623 5.18326 15.2623L18.0425 2.40312C18.0425 2.40312 19.3649 3.53182 19.6216 4.98068C19.8782 6.42955 18.7995 7.5817 18.7995 7.5817Z" fill="url(#paint0_linear_334_32119)"/>
<path fill-rule="evenodd" clip-rule="evenodd" d="M51.306 21.048V23.864H44.666C43.5614 23.864 42.666 22.9686 42.666 21.864V7.81604H45.61V20.048C45.61 20.6003 46.0577 21.048 46.61 21.048H51.306ZM55.594 13.1974V23.864H52.842V13.1974H55.594ZM60.8633 23.864V18.104C60.8633 17.2223 61.0767 16.5609 61.5034 16.12C61.93 15.6792 62.4989 15.4587 63.21 15.4587C63.85 15.4587 64.362 15.6472 64.746 16.024C65.13 16.4009 65.322 16.9449 65.322 17.656V23.864H68.074V17.3147C68.074 15.9352 67.6936 14.8543 66.9327 14.072C66.1718 13.2898 65.2082 12.8987 64.042 12.8987C62.5914 12.8987 61.5318 13.3965 60.8633 14.392V13.1974H58.1114V23.864H60.8633ZM87.4447 24.1627C88.938 24.1627 90.0971 23.6436 90.922 22.6054V23.864H93.674V13.1974H90.922V14.456C90.0971 13.4178 88.938 12.8987 87.4447 12.8987C86.0225 12.8987 84.8029 13.4427 83.786 14.5307C82.7691 15.6187 82.2607 16.952 82.2607 18.5307C82.2607 20.1094 82.7691 21.4427 83.786 22.5307C84.8029 23.6187 86.0225 24.1627 87.4447 24.1627ZM87.9567 21.5387C87.1034 21.5387 86.3994 21.2614 85.8447 20.7067C85.29 20.1378 85.0127 19.4125 85.0127 18.5307C85.0127 17.6489 85.29 16.9272 85.8447 16.3654C86.3994 15.8036 87.1034 15.5227 87.9567 15.5227C88.81 15.5227 89.5176 15.8036 90.0794 16.3654C90.6411 16.9272 90.922 17.6489 90.922 18.5307C90.922 19.4125 90.6411 20.1343 90.0794 20.696C89.5176 21.2578 88.81 21.5387 87.9567 21.5387ZM80.2887 21.8811C79.4997 23.1618 77.7594 24.1627 75.7114 24.1627C73.9478 24.1627 72.5327 23.6294 71.466 22.5627C70.3994 21.496 69.866 20.152 69.866 18.5307C69.866 16.9236 70.3922 15.5832 71.4447 14.5094C72.4971 13.4356 73.8482 12.8987 75.498 12.8987C77.0625 12.8987 78.3531 13.4392 79.37 14.52C80.3869 15.6009 80.8954 16.9378 80.8954 18.5307C80.8954 18.8863 80.8598 19.2632 80.7887 19.6614H72.746C73.1158 20.9983 74.1185 21.6667 75.754 21.6667C76.8065 21.6667 77.6029 21.3112 78.1434 20.6H80.7887C80.6181 21.2924 80.5748 21.3851 80.2887 21.8811ZM72.7034 17.528H78.1434C77.9869 16.8027 77.6634 16.2623 77.1727 15.9067C76.682 15.5512 76.1238 15.3734 75.498 15.3734C74.7585 15.3734 74.1469 15.5618 73.6634 15.9387C73.1798 16.3156 72.8598 16.8454 72.7034 17.528ZM98.922 18.7654V23.864H96.17V13.1974H98.922V15.032C99.178 14.3494 99.6011 13.8374 100.191 13.496C100.782 13.1547 101.439 12.984 102.165 12.984V16.056C101.326 15.9565 100.575 16.1272 99.914 16.568C99.2527 17.0089 98.922 17.7414 98.922 18.7654Z" fill="white"/>
<path d="M60.4238 7.89869C60.4238 9.3045 59.336 10.4562 57.9562 10.558L57.7572 10.5654L52.7065 10.5654V10.48C52.7065 9.07421 53.7943 7.92247 55.1741 7.82067L55.3732 7.81335L60.4238 7.81335V7.89869Z" fill="url(#paint1_linear_334_32119)"/>
<path fill-rule="evenodd" clip-rule="evenodd" d="M114.3 23.7023C115.601 23.7023 116.697 23.2984 117.588 22.4905C118.479 21.6826 118.925 20.6479 118.925 19.3864C118.925 17.8698 118.274 16.7359 116.973 15.9846C117.907 15.2334 118.373 14.2413 118.373 13.0081C118.373 11.7892 117.938 10.7864 117.069 9.99971C116.199 9.21306 115.128 8.81973 113.855 8.81973H108V21.7023C108 22.8069 108.895 23.7023 110 23.7023H114.3ZM113.855 14.8366H110.927V11.5624H113.855C114.322 11.5624 114.703 11.7183 115 12.0301C115.297 12.342 115.446 12.7317 115.446 13.1995C115.446 13.6672 115.294 14.057 114.99 14.3688C114.686 14.6806 114.307 14.8366 113.855 14.8366ZM114.3 20.9597H110.927V17.4517H114.3C114.795 17.4517 115.205 17.6182 115.531 17.9513C115.856 18.2844 116.019 18.699 116.019 19.195C116.019 19.7053 115.856 20.127 115.531 20.4601C115.205 20.7932 114.795 20.9597 114.3 20.9597ZM124.546 24C125.989 24 127.042 23.5039 127.707 22.5117V23.7023H130.444V13.0719H127.707V18.8123C127.707 19.6911 127.495 20.3502 127.071 20.7896C126.646 21.229 126.081 21.4487 125.374 21.4487C124.737 21.4487 124.228 21.2609 123.846 20.8853C123.464 20.5097 123.274 19.9675 123.274 19.2588V13.0719H120.537V19.599C120.537 20.9739 120.915 22.0511 121.672 22.8307C122.429 23.6102 123.387 24 124.546 24ZM134.385 11.3805C134.852 11.3805 135.251 11.2139 135.584 10.8808C135.916 10.5478 136.082 10.1544 136.082 9.70087C136.082 9.2473 135.916 8.85044 135.584 8.51026C135.251 8.17009 134.852 8 134.385 8C133.933 8 133.54 8.17009 133.208 8.51026C132.876 8.85044 132.709 9.2473 132.709 9.70087C132.709 10.1544 132.876 10.5478 133.208 10.8808C133.54 11.2139 133.933 11.3805 134.385 11.3805ZM135.683 23.7023V13.0719H132.947V23.7023H135.683ZM140.923 23.7023V8.18191H138.187V23.7023H140.923ZM148.029 24C149.514 24 150.66 23.4827 151.466 22.448V23.7023H154.203V8.81973H151.466V14.3263C150.66 13.2916 149.514 12.7743 148.029 12.7743C146.601 12.7743 145.381 13.3164 144.37 14.4007C143.359 15.485 142.853 16.8138 142.853 18.3871C142.853 19.9604 143.359 21.2892 144.37 22.3735C145.381 23.4578 146.601 24 148.029 24ZM148.539 21.3849C147.69 21.3849 146.983 21.1085 146.417 20.5557C145.866 19.9888 145.59 19.2659 145.59 18.3871C145.59 17.5083 145.869 16.789 146.428 16.2291C146.987 15.6693 147.69 15.3893 148.539 15.3893C149.387 15.3893 150.087 15.6693 150.639 16.2291C151.19 16.789 151.466 17.5083 151.466 18.3871C151.466 19.2659 151.19 19.9852 150.639 20.5451C150.087 21.105 149.387 21.3849 148.539 21.3849ZM159.442 23.7023V18.621C159.442 17.6005 159.771 16.8705 160.429 16.4311C161.086 15.9917 161.832 15.8216 162.667 15.9209V12.8593C161.945 12.8593 161.291 13.0294 160.704 13.3696C160.118 13.7097 159.697 14.22 159.442 14.9003V13.0719H156.706V23.7023H159.442Z" fill="white"/>
<defs>
<linearGradient id="paint0_linear_334_32119" x1="5.42371" y1="18.029" x2="16.056" y2="28.6614" gradientUnits="userSpaceOnUse">
<stop stop-color="#7EB5FF"/>
<stop offset="0.999683" stop-color="#1A38F8"/>
</linearGradient>
<linearGradient id="paint1_linear_334_32119" x1="59.9458" y1="7.81335" x2="53.1846" y2="7.81335" gradientUnits="userSpaceOnUse">
<stop stop-color="#7EB5FF"/>
<stop offset="0.999525" stop-color="#1A38F8"/>
</linearGradient>
</defs>
</svg>
