<?xml version="1.0" encoding="utf-8"?>
<svg width="36px" height="36px" viewBox="0 0 36 36" version="1.1" xmlns:xlink="http://www.w3.org/1999/xlink" xmlns="http://www.w3.org/2000/svg">
  <desc>Created with Lunacy</desc>
  <path d="M32 0L4 0C1.79086 0 0 1.79086 0 4L0 32C0 34.2091 1.79086 36 4 36L32 36C34.2091 36 36 34.2091 36 32L36 4C36 1.79086 34.2091 0 32 0ZM32 2C33.1046 2 34 2.89543 34 4L34 32C34 33.1046 33.1046 34 32 34L4 34C2.89543 34 2 33.1046 2 32L2 4C2 2.89543 2.89543 2 4 2L32 2ZM29.7432 13C30.2341 13 30.6424 13.3538 30.7271 13.8202L30.7432 14L30.7432 20.0924C30.7432 20.6447 30.2955 21.0924 29.7432 21.0924C29.2523 21.0924 28.844 20.7387 28.7593 20.2722L28.7432 20.0924L28.7424 16.8628L21.4523 24.3859C21.1387 24.6994 20.6634 24.7644 20.2828 24.5656L20.1262 24.4642L11.388 17.578L6.70711 22.2597C6.35997 22.6069 5.82113 22.6455 5.43139 22.3755L5.29289 22.2597C4.94576 21.9126 4.90719 21.3738 5.17718 20.984L5.29289 20.8455L10.6024 15.536C10.9159 15.2225 11.3913 15.1575 11.7719 15.3563L11.9285 15.4577L20.666 22.342L27.7658 14.9984L24 15C23.5091 15 23.1008 14.6462 23.0161 14.1798L23 14C23 13.5091 23.3538 13.1008 23.8202 13.0161L24 13L29.7432 13Z" id="Combined-Shape" fill="#78757A" fill-rule="evenodd" stroke="none" />
</svg>