<svg xmlns="http://www.w3.org/2000/svg" width="763" height="150" viewBox="0 0 763 150">
    <defs>
        <linearGradient id="86uexvn7fa" x1="87.611%" x2="0%" y1="50%" y2="50%">
            <stop offset="0%" stop-color="#7EB5FF"/>
            <stop offset="99.968%" stop-color="#1A38F8"/>
        </linearGradient>
        <linearGradient id="prxtumav4b" x1="43.805%" x2="43.805%" y1="6.195%" y2="93.805%">
            <stop offset="0%" stop-color="#7EB5FF"/>
            <stop offset="99.952%" stop-color="#1A38F8"/>
        </linearGradient>
    </defs>
    <g fill="none" fill-rule="evenodd">
        <g>
            <g>
                <g>
                    <g fill="url(#86uexvn7fa)" fill-rule="nonzero" transform="translate(-339 -173) translate(339 173)">
                        <path d="M37.5 25.24c6.716-.799 11.65.395 14.805 3.58 3.155 3.186 4.778 6.8 4.869 10.845v85.245c-5.416.428-10.009-.675-13.778-3.31-3.768-2.634-5.734-6.416-5.896-11.345zm30.388 0c6.716-.799 11.651.395 14.806 3.58 3.154 3.186 4.777 6.8 4.868 10.845v85.245c-5.416.428-10.009-.675-13.777-3.31-3.77-2.634-5.735-6.416-5.897-11.345zm30.389 0c6.715-.799 11.65.395 14.805 3.58 3.155 3.186 4.778 6.8 4.869 10.845v85.245c-5.417.428-10.01-.675-13.778-3.31-3.769-2.634-5.734-6.416-5.896-11.345z" transform="rotate(-135 77.725 75)"/>
                    </g>
                    <g>
                        <path fill="#050E26" d="M209.9 29.212c6.844 0 12.191 2.327 16.04 6.98l.26.32v-5.9h12.9v50h-12.9v-5.9l-.26.321c-3.849 4.653-9.196 6.98-16.04 6.98-6.667 0-12.383-2.55-17.15-7.65-4.767-5.1-7.15-11.35-7.15-18.75s2.383-13.65 7.15-18.75 10.483-7.65 17.15-7.65zm-56 0c7.333 0 13.383 2.534 18.15 7.6 4.767 5.067 7.15 11.334 7.15 18.8 0 1.459-.128 2.994-.383 4.605l-.117.696H141c1.733 6.266 6.433 9.4 14.1 9.4 4.933 0 8.667-1.667 11.2-5h12.4c-.8 3.245-1.002 3.68-2.343 6.004-3.7 6.004-11.857 10.696-21.457 10.696-8.267 0-14.9-2.5-19.9-7.5-5-5-7.5-11.3-7.5-18.9 0-7.534 2.467-13.817 7.4-18.85 4.933-5.034 11.267-7.55 19-7.55zM13.8 5.387v61.025c0 .553.448 1 1 1h25.7v13.2H2c-1.105 0-2-.895-2-2V5.388h13.8zm46.8 25.226v50H47.7v-50h12.9zm39.6-1.4c5.467 0 9.983 1.833 13.55 5.5 3.567 3.666 5.35 8.733 5.35 15.2v30.7h-12.9v-29.1l-.004-.397c-.07-3.14-.968-5.557-2.696-7.254-1.8-1.766-4.2-2.65-7.2-2.65-3.333 0-6 1.034-8 3.1-2 2.067-3 5.167-3 9.3v27H72.4v-50h12.9v5.6l.212-.307c3.143-4.462 8.04-6.693 14.688-6.693zm178.7.4v14.4l-.435-.047c-3.758-.36-7.13.456-10.115 2.447-3.1 2.066-4.65 5.5-4.65 10.3v23.9h-12.9v-50h12.9v8.6l.154-.396c1.213-3.003 3.145-5.271 5.796-6.804 2.767-1.6 5.85-2.4 9.25-2.4zm-66.6 11.9c-4 0-7.3 1.316-9.9 3.95-2.6 2.633-3.9 6.016-3.9 10.15 0 4.133 1.3 7.533 3.9 10.2 2.6 2.6 5.9 3.9 9.9 3.9s7.317-1.317 9.95-3.95c2.633-2.634 3.95-6.017 3.95-10.15 0-4.134-1.317-7.517-3.95-10.15-2.633-2.634-5.95-3.95-9.95-3.95zm-58.4-.7c-3.467 0-6.333.883-8.6 2.65-2.168 1.69-3.635 4.035-4.4 7.036l-.1.413h25.5c-.733-3.4-2.25-5.933-4.55-7.6-2.3-1.666-4.917-2.5-7.85-2.5z" transform="translate(-339 -173) translate(339 173) translate(200 31.25)"/>
                        <path fill="url(#prxtumav4b)" fill-rule="nonzero" d="M59.1-6.263c6.59 0 11.989 5.1 12.466 11.568l.034.933v23.675h-.4c-6.59 0-11.989-5.1-12.466-11.568l-.034-.932V-6.262h.4z" transform="translate(-339 -173) translate(339 173) translate(200 31.25) rotate(90 65.15 11.825)"/>
                    </g>
                </g>
                <path fill="#1A38F8" d="M535.783 111.105c6.099 0 11.236-1.894 15.413-5.68 4.176-3.788 6.264-8.638 6.264-14.551 0-7.11-3.05-12.425-9.148-15.946 4.375-3.521 6.563-8.172 6.563-13.952 0-5.714-2.039-10.415-6.116-14.102-4.076-3.688-9.098-5.531-15.064-5.531H506.25v67.762c0 1.104.895 2 2 2h27.533zm-2.088-41.559h-13.723V54.2h13.723c2.187 0 3.977.73 5.37 2.192 1.391 1.462 2.088 3.289 2.088 5.482 0 2.192-.713 4.02-2.138 5.48-1.426 1.463-3.199 2.193-5.32 2.193zm2.088 28.703h-15.81V81.805h15.81c2.32 0 4.243.78 5.767 2.342 1.525 1.561 2.287 3.504 2.287 5.83 0 2.392-.762 4.368-2.287 5.93-1.524 1.56-3.447 2.342-5.767 2.342zM583.81 112.5c6.762 0 11.7-2.325 14.816-6.976v5.58h12.828v-49.83h-12.828v26.909c0 4.12-.994 7.209-2.983 9.268-1.989 2.06-4.64 3.09-7.955 3.09-2.983 0-5.37-.88-7.16-2.641-1.79-1.76-2.684-4.302-2.684-7.624V61.275h-12.828V91.87c0 6.445 1.774 11.494 5.32 15.149 3.547 3.654 8.038 5.481 13.474 5.481zm46.12-59.154c2.187 0 4.06-.78 5.618-2.342 1.558-1.561 2.337-3.405 2.337-5.531s-.78-3.987-2.337-5.581c-1.558-1.595-3.43-2.392-5.618-2.392-2.122 0-3.961.797-5.52 2.392-1.557 1.594-2.336 3.455-2.336 5.58 0 2.127.779 3.97 2.337 5.532 1.558 1.561 3.397 2.342 5.519 2.342zm6.085 57.759v-49.83h-12.828v49.83h12.828zm24.56 0V38.353H647.75v72.752h12.828zm33.312 1.395c6.96 0 12.33-2.425 16.11-7.275v5.88h12.827V41.343h-12.828v25.812c-3.779-4.85-9.148-7.276-16.109-7.276-6.695 0-12.413 2.542-17.153 7.624-4.74 5.083-7.11 11.312-7.11 18.687 0 7.375 2.37 13.603 7.11 18.686s10.458 7.624 17.153 7.624zm2.387-12.258c-3.978 0-7.292-1.296-9.944-3.887-2.585-2.658-3.878-6.046-3.878-10.165 0-4.12 1.31-7.491 3.928-10.116 2.618-2.624 5.916-3.936 9.894-3.936 3.977 0 7.259 1.312 9.844 3.936 2.585 2.625 3.878 5.996 3.878 10.116 0 4.119-1.293 7.49-3.878 10.115s-5.867 3.937-9.844 3.937zm51.11 10.863v-23.82c0-4.783 1.542-8.204 4.624-10.264 3.083-2.06 6.58-2.857 10.491-2.392V60.278c-3.38 0-6.447.797-9.198 2.392-2.751 1.594-4.723 3.986-5.916 7.175v-8.57h-12.828v49.83h12.828z" transform="translate(-339 -173) translate(339 173)"/>
            </g>
        </g>
    </g>
</svg>
