<svg xmlns="http://www.w3.org/2000/svg" width="48" height="48" viewBox="0 0 48 48">
    <g fill="none" fill-rule="evenodd">
        <g fill="#BABABA">
            <g>
                <g>
                    <g>
                        <g>
                            <path d="M38 6c2.21 0 4 1.79 4 4v28c0 2.21-1.79 4-4 4H10c-2.21 0-4-1.79-4-4V10c0-2.21 1.79-4 4-4zm0 2H10c-1.105 0-2 .895-2 2v28c0 1.105.895 2 2 2h28c1.105 0 2-.895 2-2V10c0-1.105-.895-2-2-2zm-2.257 11c.491 0 .9.354.984.82l.016.18v6.092c0 .553-.447 1-1 1-.49 0-.899-.353-.984-.82l-.016-.18-.001-3.23-7.29 7.524c-.313.313-.789.378-1.17.18l-.156-.102-8.738-6.886-4.68 4.682c-.348.347-.887.385-1.277.115l-.138-.115c-.347-.347-.386-.886-.116-1.276l.116-.138 5.31-5.31c.313-.314.788-.378 1.169-.18l.156.102 8.738 6.884 7.099-7.344L30 21c-.49 0-.9-.354-.984-.82L29 20c0-.49.354-.9.82-.984L30 19h5.743z" transform="translate(-372 -754) translate(263 678) translate(109 76)"/>
                        </g>
                    </g>
                </g>
            </g>
        </g>
    </g>
</svg>
