<svg width="163" height="32" viewBox="0 0 163 32" fill="none" xmlns="http://www.w3.org/2000/svg">
<path fill-rule="evenodd" clip-rule="evenodd" d="M15.1431 29.5741L27.9675 16.7497C27.9675 16.7497 29.0462 15.5975 28.7896 14.1487C28.5329 12.6998 27.2104 11.5711 27.2104 11.5711L14.3513 24.4303C14.3513 24.4303 13.4567 25.366 13.4497 26.8007C13.4428 28.2353 15.1431 29.5741 15.1431 29.5741ZM10.5591 24.99L23.3834 12.1656C23.3834 12.1656 24.4622 11.0135 24.2055 9.56462C23.9489 8.11575 22.6264 6.98705 22.6264 6.98705L9.76721 19.8462C9.76721 19.8462 8.87265 20.782 8.8657 22.2166C8.85875 23.6512 10.5591 24.99 10.5591 24.99ZM18.7994 7.58158L5.97502 20.406C5.97502 20.406 4.27471 19.0672 4.28166 17.6325C4.28861 16.1979 5.18318 15.2622 5.18318 15.2622L18.0424 2.40299C18.0424 2.40299 19.3648 3.5317 19.6215 4.98056C19.8782 6.42943 18.7994 7.58158 18.7994 7.58158Z" fill="url(#paint0_linear_174_1883)"/>
<path fill-rule="evenodd" clip-rule="evenodd" d="M51.3066 21.0479V23.8639H44.6666C43.5621 23.8639 42.6666 22.9685 42.6666 21.8639V7.81592H45.6106V20.0479C45.6106 20.6002 46.0583 21.0479 46.6106 21.0479H51.3066ZM55.5946 13.1973V23.8639H52.8426V13.1973H55.5946ZM60.864 23.8639V18.1039C60.864 17.2221 61.0773 16.5608 61.504 16.1199C61.9306 15.679 62.4995 15.4586 63.2106 15.4586C63.8506 15.4586 64.3626 15.647 64.7466 16.0239C65.1306 16.4008 65.3226 16.9448 65.3226 17.6559V23.8639H68.0746V17.3146C68.0746 15.935 67.6942 14.8541 66.9333 14.0719C66.1724 13.2897 65.2088 12.8986 64.0426 12.8986C62.592 12.8986 61.5324 13.3964 60.864 14.3919V13.1973H58.112V23.8639H60.864ZM87.4452 24.1626C88.9386 24.1626 90.0977 23.6435 90.9226 22.6053V23.8639H93.6746V13.1973H90.9226V14.4559C90.0977 13.4177 88.9386 12.8986 87.4452 12.8986C86.023 12.8986 84.8035 13.4426 83.7866 14.5306C82.7697 15.6186 82.2612 16.9519 82.2612 18.5306C82.2612 20.1093 82.7697 21.4426 83.7866 22.5306C84.8035 23.6186 86.023 24.1626 87.4452 24.1626ZM87.9572 21.5386C87.1039 21.5386 86.3999 21.2613 85.8452 20.7066C85.2906 20.1377 85.0132 19.4124 85.0132 18.5306C85.0132 17.6488 85.2906 16.927 85.8452 16.3653C86.3999 15.8035 87.1039 15.5226 87.9572 15.5226C88.8106 15.5226 89.5181 15.8035 90.0799 16.3653C90.6417 16.927 90.9226 17.6488 90.9226 18.5306C90.9226 19.4124 90.6417 20.1341 90.0799 20.6959C89.5181 21.2577 88.8106 21.5386 87.9572 21.5386ZM80.2893 21.881C79.5003 23.1617 77.7599 24.1626 75.7119 24.1626C73.9484 24.1626 72.5333 23.6293 71.4666 22.5626C70.3999 21.4959 69.8666 20.1519 69.8666 18.5306C69.8666 16.9235 70.3928 15.583 71.4453 14.5093C72.4977 13.4355 73.8488 12.8986 75.4986 12.8986C77.063 12.8986 78.3537 13.439 79.3706 14.5199C80.3875 15.6008 80.8959 16.9377 80.8959 18.5306C80.8959 18.8861 80.8604 19.263 80.7893 19.6613H72.7466C73.1164 20.9981 74.119 21.6666 75.7546 21.6666C76.807 21.6666 77.6035 21.311 78.1439 20.5999H80.7893C80.6187 21.2922 80.5754 21.385 80.2893 21.881ZM72.7039 17.5279H78.1439C77.9875 16.8026 77.6639 16.2621 77.1732 15.9066C76.6826 15.551 76.1244 15.3733 75.4986 15.3733C74.759 15.3733 74.1475 15.5617 73.6639 15.9386C73.1804 16.3155 72.8604 16.8453 72.7039 17.5279ZM98.9226 18.7653V23.8639H96.1706V13.1973H98.9226V15.0319C99.1786 14.3493 99.6017 13.8373 100.192 13.4959C100.782 13.1546 101.44 12.9839 102.165 12.9839V16.0559C101.326 15.9564 100.576 16.127 99.9146 16.5679C99.2533 17.0088 98.9226 17.7413 98.9226 18.7653Z" fill="white"/>
<path d="M60.424 7.89857C60.424 9.30438 59.3361 10.4561 57.9563 10.5579L57.7573 10.5652L52.7066 10.5652V10.4799C52.7066 9.07408 53.7944 7.92235 55.1743 7.82055L55.3733 7.81323L60.424 7.81323V7.89857Z" fill="url(#paint1_linear_174_1883)"/>
<path fill-rule="evenodd" clip-rule="evenodd" d="M114.3 23.7023C115.601 23.7023 116.697 23.2984 117.588 22.4905C118.479 21.6826 118.925 20.6479 118.925 19.3864C118.925 17.8698 118.274 16.7359 116.973 15.9846C117.907 15.2334 118.373 14.2413 118.373 13.0081C118.373 11.7892 117.938 10.7864 117.069 9.99971C116.199 9.21306 115.128 8.81973 113.855 8.81973H108V21.7023C108 22.8069 108.895 23.7023 110 23.7023H114.3ZM113.855 14.8366H110.928V11.5624H113.855C114.322 11.5624 114.703 11.7183 115 12.0301C115.297 12.342 115.446 12.7317 115.446 13.1995C115.446 13.6672 115.294 14.057 114.99 14.3688C114.686 14.6806 114.308 14.8366 113.855 14.8366ZM114.3 20.9597H110.928V17.4517H114.3C114.795 17.4517 115.206 17.6182 115.531 17.9513C115.856 18.2844 116.019 18.699 116.019 19.195C116.019 19.7053 115.856 20.127 115.531 20.4601C115.206 20.7932 114.795 20.9597 114.3 20.9597ZM124.546 24C125.989 24 127.042 23.5039 127.707 22.5117V23.7023H130.444V13.0719H127.707V18.8123C127.707 19.6911 127.495 20.3502 127.071 20.7896C126.646 21.229 126.081 21.4487 125.374 21.4487C124.737 21.4487 124.228 21.2609 123.846 20.8853C123.465 20.5097 123.274 19.9675 123.274 19.2588V13.0719H120.537V19.599C120.537 20.9739 120.915 22.0511 121.672 22.8307C122.429 23.6102 123.387 24 124.546 24ZM134.385 11.3805C134.852 11.3805 135.251 11.2139 135.584 10.8808C135.916 10.5478 136.082 10.1544 136.082 9.70087C136.082 9.2473 135.916 8.85044 135.584 8.51026C135.251 8.17009 134.852 8 134.385 8C133.933 8 133.54 8.17009 133.208 8.51026C132.876 8.85044 132.709 9.2473 132.709 9.70087C132.709 10.1544 132.876 10.5478 133.208 10.8808C133.54 11.2139 133.933 11.3805 134.385 11.3805ZM135.683 23.7023V13.0719H132.947V23.7023H135.683ZM140.923 23.7023V8.18191H138.186V23.7023H140.923ZM148.03 24C149.514 24 150.66 23.4827 151.466 22.448V23.7023H154.203V8.81973H151.466V14.3263C150.66 13.2916 149.514 12.7743 148.03 12.7743C146.601 12.7743 145.381 13.3164 144.37 14.4007C143.359 15.485 142.853 16.8138 142.853 18.3871C142.853 19.9604 143.359 21.2892 144.37 22.3735C145.381 23.4578 146.601 24 148.03 24ZM148.539 21.3849C147.69 21.3849 146.983 21.1085 146.417 20.5557C145.866 19.9888 145.59 19.2659 145.59 18.3871C145.59 17.5083 145.869 16.789 146.428 16.2291C146.986 15.6693 147.69 15.3893 148.539 15.3893C149.387 15.3893 150.087 15.6693 150.639 16.2291C151.19 16.789 151.466 17.5083 151.466 18.3871C151.466 19.2659 151.19 19.9852 150.639 20.5451C150.087 21.105 149.387 21.3849 148.539 21.3849ZM159.442 23.7023V18.621C159.442 17.6005 159.771 16.8705 160.429 16.4311C161.086 15.9917 161.832 15.8216 162.667 15.9209V12.8593C161.945 12.8593 161.291 13.0294 160.704 13.3696C160.118 13.7097 159.697 14.22 159.442 14.9003V13.0719H156.706V23.7023H159.442Z" fill="white"/>
<defs>
<linearGradient id="paint0_linear_174_1883" x1="6.9049" y1="10.7321" x2="11.6882" y2="26.2093" gradientUnits="userSpaceOnUse">
<stop offset="0.000475084" stop-color="#1A38F8"/>
<stop offset="1" stop-color="#7EB5FF"/>
</linearGradient>
<linearGradient id="paint1_linear_174_1883" x1="57.6969" y1="10.8836" x2="58.3475" y2="8.09845" gradientUnits="userSpaceOnUse">
<stop offset="0.000475084" stop-color="#1A38F8"/>
<stop offset="1" stop-color="#7EB5FF"/>
</linearGradient>
</defs>
</svg>
