<esc>Created with Lunacy</desc>
  <path d="M32 0L4 0C1.79086 0 0 1.79086 0 4L0 32C0 34.2091 1.79086 36 4 36L32 36C34.2091 36 36 34.2091 36 32L36 4C36 1.79086 34.2091 0 32 0ZM32 2C33.1046 2 34 2.89543 34 4L34 32C34 33.1046 33.1046 34 32 34L4 34C2.89543 34 2 33.1046 2 32L2 4C2 2.89543 2.89543 2 4 2L32 2ZM29.7432 13C30.2341 13 30.6424 13.3538 30.7271 13.8202L30.7432 14L30.7432 20.0924C30.7432 20.6447 30.2955 21.0924 29.7432 21.0924C29.2523 21.0924 28.844 20.7387 28.7593 20.2722L28.7432 20.0924L28.7424 16.8628L21.4523 24.3859C21.1387 24.6994 20.6634 24.7644 20.2828 24.5656L20.1262 24.4642L11.388 17.578L6.70711 22.2597C6.35997 22.6069 5.82113 22.6455 5.43139 22.3755L5.29289 22.2597C4.94576 21.9126 4.90719 21.3738 5.17718 20.984L5.29289 20.8455L10.6024 15.536C10.9159 15.2225 11.3913 15.1575 11.7719 15.3563L11.9285 15.4577L20.666 22.342L27.7658 14.9984L24 15C23.5091 15 23.1008 14.6462 23.0161 14.1798L23 14C23 13.5091 23.3538 13.1008 23.8202 13.0161L24 13L29.7432 13Z" id="Combined-Shape" fill="#78757A" fill-rule="evenodd" stroke="none" />
=======
<?xml version="1.0" encoding="UTF-8"?>
<svg width="48px" height="48px" viewBox="0 0 48 48" version="1.1" xmlns="http://www.w3.org/2000/svg" xmlns:xlink="http://www.w3.org/1999/xlink">
    <title>430061D4-2486-45C6-BD56-C1A9C54780D3</title>
    <g id="🖥-Design" stroke="none" stroke-width="1" fill="none" fill-rule="evenodd" opacity="0.200000003">
        <g id="Wallet-/-Track-/-Empty" transform="translate(-372.000000, -754.000000)" fill="#78757A">
            <g id="Card/No-Debts" transform="translate(263.000000, 678.000000)">
                <g id="Group-2" transform="translate(109.000000, 76.000000)">
                    <g id="Group-3">
                        <g id="Icon/Graph-Line">
                            <path d="M38,6 C40.209139,6 42,7.790861 42,10 L42,10 L42,38 C42,40.209139 40.209139,42 38,42 L38,42 L10,42 C7.790861,42 6,40.209139 6,38 L6,38 L6,10 C6,7.790861 7.790861,6 10,6 L10,6 Z M38,8 L10,8 C8.8954305,8 8,8.8954305 8,10 L8,10 L8,38 C8,39.1045695 8.8954305,40 10,40 L10,40 L38,40 C39.1045695,40 40,39.1045695 40,38 L40,38 L40,10 C40,8.8954305 39.1045695,8 38,8 L38,8 Z M35.7432242,19 C36.234144,19 36.6424409,19.3537503 36.7271129,19.8202487 L36.7432242,20 L36.7432242,26.0924286 C36.7432242,26.6447133 36.2955089,27.0924286 35.7432242,27.0924286 C35.2523044,27.0924286 34.8440075,26.7386783 34.7593355,26.2721799 L34.7432242,26.0924286 L34.742,22.862 L27.4522683,30.3858918 C27.1387337,30.6994265 26.6633538,30.7643819 26.2827683,30.5655997 L26.1262121,30.4642159 L17.388,23.578 L12.7071068,28.2597482 C12.3599741,28.6068809 11.8211253,28.6454512 11.431389,28.3754591 L11.2928932,28.2597482 C10.9457605,27.9126155 10.9071902,27.3737667 11.1771823,26.9840304 L11.2928932,26.8455347 L16.6024022,21.5360257 C16.9159368,21.2224911 17.3913166,21.1575356 17.7719022,21.3563178 L17.9284583,21.4577016 L26.666,28.342 L33.765,20.998 L30,21 C29.5090802,21 29.1007833,20.6462497 29.0161113,20.1797513 L29,20 C29,19.5090802 29.3537503,19.1007833 29.8202487,19.0161113 L30,19 L35.7432242,19 Z" id="Combined-Shape"></path>
                        </g>
                    </g>
                </g>
            </g>
        </g>
    </g>
>>>>>>> new-dev
</svg>