<svg xmlns="http://www.w3.org/2000/svg" width="163" height="32" viewBox="0 0 163 32">
    <defs>
        <linearGradient id="uw60lhvexa" x1="87.611%" x2="0%" y1="50%" y2="50%">
            <stop offset="0%" stop-color="#7EB5FF"/>
            <stop offset="99.968%" stop-color="#1A38F8"/>
        </linearGradient>
        <linearGradient id="bv0x6joolb" x1="43.805%" x2="43.805%" y1="6.195%" y2="93.805%">
            <stop offset="0%" stop-color="#7EB5FF"/>
            <stop offset="99.952%" stop-color="#1A38F8"/>
        </linearGradient>
    </defs>
    <g fill="none" fill-rule="evenodd">
        <g>
            <g>
                <g>
                    <g fill="url(#uw60lhvexa)" fill-rule="nonzero" transform="translate(-16 -79) translate(16 79)">
                        <path d="M8 5.385c1.433-.17 2.485.084 3.158.763.673.68 1.02 1.451 1.04 2.314v18.186c-1.156.09-2.136-.144-2.94-.706-.804-.563-1.223-1.37-1.258-2.421zm6.483 0c1.432-.17 2.485.084 3.158.763.673.68 1.02 1.451 1.039 2.314v18.186c-1.156.09-2.135-.144-2.94-.706-.803-.563-1.223-1.37-1.257-2.421zm6.483 0c1.432-.17 2.485.084 3.158.763.673.68 1.02 1.451 1.039 2.314v18.186c-1.156.09-2.135-.144-2.94-.706-.803-.563-1.223-1.37-1.257-2.421z" transform="rotate(-135 16.581 16)"/>
                    </g>
                    <g>
                        <path fill="#050E26" d="M44.779 6.232c1.4 0 2.506.456 3.318 1.369l.159.188V6.531h2.752v10.666h-2.752V15.94l-.159.188c-.812.913-1.918 1.369-3.318 1.369-1.423 0-2.642-.544-3.659-1.632-1.017-1.088-1.525-2.421-1.525-4 0-1.579.508-2.912 1.525-4s2.236-1.632 3.659-1.632zm-11.947 0c1.564 0 2.855.54 3.872 1.621s1.525 2.418 1.525 4.011c0 .267-.02.545-.06.836l-.046.295H30.08C30.45 14.332 31.452 15 33.088 15c.977 0 1.734-.307 2.27-.92l.12-.147h2.645c-.17.693-.214.785-.5 1.281-.79 1.281-2.53 2.282-4.578 2.282-1.763 0-3.178-.533-4.245-1.6-1.067-1.067-1.6-2.41-1.6-4.032 0-1.607.526-2.948 1.579-4.021 1.052-1.074 2.403-1.611 4.053-1.611zM2.944 1.149v12.232c0 .553.448 1 1 1H8.64v2.816H2c-1.105 0-2-.895-2-2V1.15h2.944zm9.984 5.382v10.666h-2.752V6.531h2.752zm8.448-.299c1.166 0 2.13.391 2.89 1.173.762.783 1.142 1.863 1.142 3.243v6.55h-2.752v-6.209l-.006-.208c-.034-.61-.224-1.084-.57-1.424-.384-.377-.896-.565-1.536-.565-.711 0-1.28.22-1.707.661-.426.441-.64 1.103-.64 1.984v5.76h-2.752V6.531h2.752v1.194l.122-.17c.673-.882 1.692-1.323 3.057-1.323zm38.123.085V9.39l-.25-.021c-.739-.041-1.406.137-2.001.533-.661.441-.992 1.174-.992 2.198v5.098h-2.752V6.531h2.752v1.834l.092-.22c.26-.574.653-1.012 1.177-1.316.59-.341 1.248-.512 1.974-.512zM45.29 8.856c-.854 0-1.558.28-2.112.843-.555.561-.832 1.283-.832 2.165 0 .882.277 1.607.832 2.176.554.555 1.258.832 2.112.832.853 0 1.56-.28 2.122-.843.562-.561.843-1.283.843-2.165 0-.882-.28-1.604-.843-2.165-.561-.562-1.269-.843-2.122-.843zm-12.459-.15c-.74 0-1.351.19-1.835.566-.43.335-.73.79-.901 1.367l-.059.222h5.44c-.156-.725-.48-1.265-.97-1.621-.491-.356-1.05-.533-1.675-.533z" transform="translate(-16 -79) translate(16 79) translate(42.667 6.667)"/>
                        <path fill="url(#bv0x6joolb)" fill-rule="nonzero" d="M12.608-1.336c1.406 0 2.558 1.088 2.66 2.468l.007.199v5.05h-.086c-1.405 0-2.557-1.088-2.659-2.467l-.007-.2v-5.05h.085z" transform="translate(-16 -79) translate(16 79) translate(42.667 6.667) rotate(90 13.899 2.523)"/>
                    </g>
                </g>
                <path fill="#1A38F8" d="M114.3 23.702c1.301 0 2.397-.404 3.288-1.212.891-.807 1.337-1.842 1.337-3.104 0-1.516-.65-2.65-1.952-3.401.934-.752 1.4-1.744 1.4-2.977 0-1.219-.435-2.222-1.304-3.008-.87-.787-1.941-1.18-3.214-1.18H108v12.882c0 1.105.895 2 2 2h4.3zm-.445-8.865h-2.928v-3.275h2.928c.467 0 .848.156 1.145.468.297.312.446.702.446 1.17 0 .467-.152.857-.456 1.169-.304.312-.683.468-1.135.468zm.445 6.123h-3.373v-3.508h3.373c.495 0 .905.166 1.23.5.326.332.489.747.489 1.243 0 .51-.163.932-.488 1.265-.326.333-.736.5-1.23.5zM124.546 24c1.443 0 2.496-.496 3.161-1.488v1.19h2.737v-10.63h-2.737v5.74c0 .88-.212 1.538-.636 1.978-.425.439-.99.659-1.697.659-.637 0-1.146-.188-1.528-.564-.382-.375-.572-.917-.572-1.626v-6.187h-2.737v6.527c0 1.375.378 2.452 1.135 3.232.757.78 1.715 1.169 2.874 1.169zm9.84-12.62c.466 0 .865-.166 1.198-.5.332-.332.498-.726.498-1.18 0-.453-.166-.85-.498-1.19-.333-.34-.732-.51-1.199-.51-.452 0-.845.17-1.177.51-.332.34-.499.737-.499 1.19 0 .454.167.848.499 1.18.332.334.725.5 1.177.5zm1.297 12.322v-10.63h-2.736v10.63h2.736zm5.24 0V8.182h-2.736v15.52h2.736zm7.106.298c1.485 0 2.63-.517 3.437-1.552v1.254h2.737V8.82h-2.737v5.506c-.806-1.034-1.952-1.552-3.437-1.552-1.428 0-2.648.542-3.659 1.627-1.011 1.084-1.517 2.413-1.517 3.986 0 1.573.506 2.902 1.517 3.987 1.011 1.084 2.231 1.626 3.66 1.626zm.51-2.615c-.849 0-1.556-.276-2.122-.83-.551-.566-.827-1.29-.827-2.168 0-.879.28-1.598.838-2.158.559-.56 1.262-.84 2.11-.84.85 0 1.55.28 2.1.84.552.56.828 1.28.828 2.158 0 .879-.276 1.598-.827 2.158-.552.56-1.252.84-2.1.84zm10.903 2.317v-5.081c0-1.02.33-1.75.987-2.19.657-.44 1.403-.61 2.238-.51v-3.062c-.722 0-1.376.17-1.963.51-.586.34-1.007.851-1.262 1.531v-1.828h-2.736v10.63h2.736z" transform="translate(-16 -79) translate(16 79)"/>
            </g>
        </g>
    </g>
</svg>
