<svg xmlns="http://www.w3.org/2000/svg" width="80" height="80" viewBox="0 0 80 80">
    <g fill="none" fill-rule="evenodd">
        <g fill="#3B99FC" fill-rule="nonzero">
            <g>
                <g>
                    <path d="M15.772 24.199c13.049-12.71 34.205-12.71 47.253 0l1.57 1.53c.653.635.653 1.665 0 2.3l-5.372 5.233c-.326.318-.855.318-1.18 0l-2.162-2.105c-9.103-8.866-23.862-8.866-32.965 0l-2.314 2.254c-.326.318-.855.318-1.181 0l-5.372-5.232c-.653-.636-.653-1.666 0-2.301l1.723-1.68zM74.73 35.498l4.78 4.805c.653.656.653 1.719 0 2.374L57.957 64.344c-.652.656-1.71.656-2.362 0L40.295 48.967c-.163-.164-.427-.164-.59 0L24.407 64.344c-.652.656-1.71.656-2.362 0L.489 42.677c-.652-.656-.652-1.719 0-2.374l4.78-4.806c.653-.655 1.71-.655 2.363 0L22.93 50.875c.163.164.428.164.59 0L38.82 35.497c.652-.655 1.71-.655 2.362 0l15.298 15.378c.163.164.428.164.591 0l15.298-15.377c.653-.656 1.71-.656 2.362 0z" transform="translate(-1187 -634) translate(1074 554) translate(113 80)"/>
                </g>
            </g>
        </g>
    </g>
</svg>
