<svg xmlns="http://www.w3.org/2000/svg" width="32" height="32" viewBox="0 0 32 32">
    <defs>
        <linearGradient id="0mi649r0ca" x1="87.611%" x2="0%" y1="50%" y2="50%">
            <stop offset="0%" stop-color="#7EB5FF"/>
            <stop offset="99.968%" stop-color="#1A38F8"/>
        </linearGradient>
    </defs>
    <g fill="none" fill-rule="evenodd">
        <g fill="url(#0mi649r0ca)" fill-rule="nonzero" transform="translate(-16 -75)">
            <g>
                <path d="M8 5.385c1.433-.17 2.485.084 3.158.763.673.68 1.02 1.451 1.04 2.314v18.186c-1.156.09-2.136-.144-2.94-.706-.804-.563-1.223-1.37-1.258-2.421zm6.483 0c1.432-.17 2.485.084 3.158.763.673.68 1.02 1.451 1.039 2.314v18.186c-1.156.09-2.135-.144-2.94-.706-.803-.563-1.223-1.37-1.257-2.421zm6.483 0c1.432-.17 2.485.084 3.158.763.673.68 1.02 1.451 1.039 2.314v18.186c-1.156.09-2.135-.144-2.94-.706-.803-.563-1.223-1.37-1.257-2.421z" transform="translate(16 75) rotate(-135 16.581 16)"/>
            </g>
        </g>
    </g>
</svg>
