<svg xmlns="http://www.w3.org/2000/svg" width="16" height="16" viewBox="0 0 16 16">
    <g fill="none" fill-rule="evenodd">
        <g fill="#F0B90B">
            <g>
                <g>
                    <g>
                        <path d="M9.262 12.622v1.541l-1.386.77-1.387-.77v-1.54l1.387.77 1.386-.77zm4.622-5.315v4.16l-3.697 2.08V12.01l2.338-1.312V8.075l1.36-.768zm-12.017 0l1.36.768v2.623l2.337 1.312v1.537l-3.697-2.08v-4.16zm8.347-2.311l1.36.785v1.571l-2.339 1.34v2.682l-1.36.786-1.359-.786V8.693l-2.338-1.34V5.78l1.36-.785 2.338 1.34 2.338-1.34zm1.36 3.466v1.54l-1.387.771v-1.54l1.386-.77zm-7.396 0l1.386.77v1.541l-1.386-.77v-1.54zm8.32-4.853l1.386.809v1.618l-1.386.808V5.227l-1.387-.81 1.387-.808zm-9.245 0l1.387.809-1.387.809v1.617l-1.386-.808V4.418l1.386-.81zm4.623 0l1.386.809-1.386.809-1.387-.81 1.387-.808zm0-2.542l3.697 2.194-1.36.81-2.337-1.383L5.537 4.07l-1.36-.81 3.699-2.194z" transform="translate(-229 -580) translate(213 564) translate(16 16)"/>
                    </g>
                </g>
            </g>
        </g>
    </g>
</svg>
