<svg xmlns="http://www.w3.org/2000/svg" width="80" height="80" viewBox="0 0 80 80">
    <defs>
        <linearGradient id="yaxzfb24fa" x1="87.611%" x2="0%" y1="50%" y2="50%">
            <stop offset="0%" stop-color="#7EB5FF"/>
            <stop offset="99.968%" stop-color="#1A38F8"/>
        </linearGradient>
    </defs>
    <g fill="none" fill-rule="evenodd">
        <g>
            <g>
                <g>
                    <g>
                        <g>
                            <g fill="#FFF" transform="translate(-579 -509) translate(120 120) translate(193 333) translate(212) translate(54 56)">
                                <circle cx="40" cy="40" r="40"/>
                            </g>
                            <g stroke="#E5E5E5" transform="translate(-579 -509) translate(120 120) translate(193 333) translate(212) translate(54 56)">
                                <circle cx="40" cy="40" r="39.5"/>
                            </g>
                            <g fill="url(#yaxzfb24fa)" fill-rule="nonzero" transform="translate(-579 -509) translate(120 120) translate(193 333) translate(212) translate(54 56) translate(24 14)">
                                <path d="M8 5.385c1.433-.17 2.485.084 3.158.763.673.68 1.02 1.451 1.04 2.314v18.186c-1.156.09-2.136-.144-2.94-.706-.804-.563-1.223-1.37-1.258-2.421zm6.483 0c1.432-.17 2.485.084 3.158.763.673.68 1.02 1.451 1.039 2.314v18.186c-1.156.09-2.135-.144-2.94-.706-.803-.563-1.223-1.37-1.257-2.421zm6.483 0c1.432-.17 2.485.084 3.158.763.673.68 1.02 1.451 1.039 2.314v18.186c-1.156.09-2.135-.144-2.94-.706-.803-.563-1.223-1.37-1.257-2.421z" transform="rotate(-135 16.581 16)"/>
                            </g>
                            <path fill="#5A575C" d="M27.068 50c.574 0 1.022.21 1.33.658.252.378.392.868.392 1.456 0 1.904-.686 3.5-2.058 4.788-.588.546-1.274 1.008-2.03 1.4 0 .056.014.112.042.168.112.392.336.602.672.602.504 0 1.008-.378 1.498-1.106l1.134.7c-.406.588-.798 1.022-1.19 1.274-.462.294-1.022.448-1.694.448-.742 0-1.302-.266-1.68-.77-.154-.196-.266-.434-.35-.686-.364.112-.742.21-1.134.294v-1.302c.336-.098.672-.196.994-.308.028-1.652.336-3.22.938-4.704.77-1.946 1.82-2.912 3.136-2.912zm5.809.2v6.454l.006.195c.035.507.208.918.519 1.233.35.355.875.532 1.575.532s1.225-.177 1.575-.532c.35-.355.525-.83.525-1.428V50.2h1.61v6.552l-.006.238c-.05.935-.392 1.69-1.03 2.268-.69.616-1.582.924-2.674.924-1.092 0-1.983-.31-2.674-.931-.69-.62-1.036-1.454-1.036-2.499V50.2h1.61zm10.696-.182c.784 0 1.47.191 2.058.574.588.383 1.04.91 1.358 1.582l-1.358.784-.086-.177c-.417-.797-1.075-1.195-1.972-1.195-.467 0-.84.11-1.12.329-.28.22-.42.516-.42.889 0 .364.142.651.427.861.285.21.8.432 1.547.665.373.121.646.212.819.273.173.06.415.156.728.287.313.13.548.261.707.392.159.13.329.294.511.49s.31.42.385.672c.075.252.112.537.112.854 0 .887-.32 1.589-.959 2.107-.64.518-1.477.777-2.513.777-.943 0-1.743-.215-2.401-.644-.658-.43-1.118-1.017-1.379-1.764l1.386-.812.074.189c.415.975 1.202 1.463 2.362 1.463.607 0 1.062-.119 1.365-.357.303-.238.455-.548.455-.931 0-.401-.163-.707-.49-.917-.327-.21-.905-.441-1.736-.693-.467-.14-.845-.27-1.134-.392-.29-.121-.595-.292-.917-.511-.322-.22-.562-.492-.721-.819-.159-.327-.238-.71-.238-1.148 0-.868.308-1.556.924-2.065.616-.509 1.358-.763 2.226-.763zm8.862.182l.266.006c1.226.059 2.255.528 3.087 1.408.891.943 1.337 2.105 1.337 3.486 0 1.372-.446 2.532-1.337 3.479-.891.947-2.009 1.421-3.353 1.421h-3.85v-9.8h3.85zm0 1.54h-2.24v6.72h2.24c.924 0 1.678-.317 2.261-.952.583-.635.875-1.437.875-2.408 0-.98-.292-1.785-.875-2.415-.583-.63-1.337-.945-2.261-.945zm-25.521-.48c-.574 0-1.106.784-1.61 2.366-.378 1.176-.588 2.254-.644 3.262.434-.252.826-.532 1.176-.84 1.092-.994 1.638-2.268 1.638-3.822 0-.644-.196-.966-.56-.966z" transform="translate(-579 -509) translate(120 120) translate(193 333) translate(212) translate(54 56)"/>
                        </g>
                    </g>
                </g>
            </g>
        </g>
    </g>
</svg>
