<?xml version="1.0" encoding="utf-8"?>
<svg width="56px" height="56px" viewBox="0 0 56 56" version="1.1" xmlns:xlink="http://www.w3.org/1999/xlink" xmlns="http://www.w3.org/2000/svg">
  <desc>Created with Lunacy</desc>
  <g id="Logo/LNR-Filled-Copy-12">
    <g id="Setup/Icon-Button/Outline">
      <path d="M28 56C43.464 56 56 43.464 56 28C56 12.536 43.464 0 28 0C12.536 0 0 12.536 0 28C0 43.464 12.536 56 28 56Z" id="Oval" fill="#DEDDDE" stroke="none" />
    </g>
    <path d="M13.9212 7.74231Q13.1077 8.4 11.8038 8.4Q10.6038 8.4 9.78462 7.86346Q8.96539 7.32692 8.63077 6.40384L9.99231 5.60769Q10.4654 6.84231 11.85 6.84231Q12.5192 6.84231 12.8308 6.6C13.0385 6.43846 13.1423 6.23461 13.1423 5.98846C13.1423 5.70384 13.0154 5.48269 12.7615 5.325Q12.3808 5.08846 11.4 4.81154C11.0385 4.70385 10.7327 4.59615 10.4827 4.48846C10.2327 4.38077 9.98269 4.23654 9.73269 4.05577C9.48269 3.875 9.29231 3.64615 9.16154 3.36923Q8.96538 2.95385 8.96539 2.4Q8.96539 1.30385 9.74423 0.651923Q10.5231 0 11.6192 0Q12.6 0 13.3442 0.478846Q14.0885 0.957692 14.5038 1.81154L13.1654 2.58461Q12.6808 1.54615 11.6192 1.54615C11.2885 1.54615 11.0288 1.62115 10.8404 1.77115Q10.5577 1.99615 10.5577 2.35385Q10.5577 2.73461 10.875 2.97115Q11.1923 3.20769 12.0923 3.48461C12.3385 3.56154 12.525 3.62115 12.6519 3.66346C12.7788 3.70577 12.9519 3.77115 13.1712 3.85961C13.3904 3.94808 13.5596 4.03077 13.6788 4.10769C13.7981 4.18461 13.9346 4.28846 14.0885 4.41923Q14.3192 4.61538 14.4404 4.82308C14.5212 4.96154 14.5904 5.12884 14.6481 5.325C14.7058 5.52115 14.7346 5.73461 14.7346 5.96538Q14.7346 7.08461 13.9212 7.74231ZM3.08077 8.4Q4.44231 8.4 5.30769 7.63846Q6.17308 6.87692 6.17308 5.59615L6.17308 0.161538L4.58077 0.161538L4.58077 5.46923Q4.58077 6.10384 4.21731 6.47308Q3.85385 6.84231 3.08077 6.84231Q2.30769 6.84231 1.94423 6.47308Q1.58077 6.10384 1.58077 5.46923L1.58077 0.161538L0 0.161538L0 5.59615Q0 6.87692 0.865385 7.63846Q1.73077 8.4 3.08077 8.4ZM20.3654 8.23846C21.4731 8.23846 22.3981 7.85 23.1404 7.07307C23.8827 6.29615 24.2538 5.33846 24.2538 4.2C24.2538 3.06154 23.8827 2.10385 23.1404 1.32692C22.3981 0.55 21.4731 0.161538 20.3654 0.161538L17.1577 0.161538L17.1577 8.23846L20.3654 8.23846ZM18.75 6.71538L20.3654 6.71538Q21.4154 6.71538 22.0731 6.01731Q22.7308 5.31923 22.7308 4.2Q22.7308 3.08077 22.0731 2.38269C21.6346 1.91731 21.0654 1.68461 20.3654 1.68461L18.75 1.68461L18.75 6.71538Z" transform="translate(15.4 36.399998)" id="USD" fill="#FFFFFF" fill-rule="evenodd" stroke="none" />
    <g id="Logo/Crypto/ETH" transform="translate(16.8 11.2)">
      <path d="M15.84 -2.86102e-06L15.84 2.80014L0 2.80014L0 0L15.84 -2.86102e-06ZM15.84 4.63942L15.84 7.43956L0 7.43957L0 4.63942L15.84 4.63942ZM15.84 12.079L15.84 9.27885L2.86102e-06 9.27885L3.33786e-06 12.079L15.84 12.079Z" transform="matrix(0.70710677 -0.70710677 0.70710677 0.70710677 1.7826657 12.036105)" id="Combined-Shape" fill="#FFFFFF" fill-rule="evenodd" stroke="none" />
    </g>
  </g>
</svg>