<svg xmlns="http://www.w3.org/2000/svg" width="754" height="427" viewBox="0 0 754 427">
        <g fill="none" fill-rule="evenodd">
            <g>
                <g transform="translate(-343 -219) translate(343 219)">
                    <path fill="#B5B5B5" fill-rule="nonzero" d="M588 385.936c1.105 0 2 .895 2 2 0 1.054-.816 1.918-1.85 1.994l-.15.006h-24c-1.105 0-2-.896-2-2 0-1.055.816-1.919 1.85-1.995l.15-.005h24zm-36 0c1.105 0 2 .895 2 2 0 1.054-.816 1.918-1.85 1.994l-.15.006h-9c-1.105 0-2-.896-2-2 0-1.055.816-1.919 1.85-1.995l.15-.005h9zm-12-8.5c1.105 0 2 .895 2 2 0 1.054-.816 1.918-1.85 1.994l-.15.006h-9c-1.105 0-2-.896-2-2 0-1.055.816-1.919 1.85-1.995l.15-.005h9zm36 0c1.105 0 2 .895 2 2 0 1.054-.816 1.918-1.85 1.994l-.15.006h-24c-1.105 0-2-.896-2-2 0-1.055.816-1.919 1.85-1.995l.15-.005h24zm21 0c1.105 0 2 .895 2 2 0 1.054-.816 1.918-1.85 1.994l-.15.006h-9c-1.105 0-2-.896-2-2 0-1.055.816-1.919 1.85-1.995l.15-.005h9zm-494-1.5c1.105 0 2 .895 2 2 0 1.054-.816 1.918-1.85 1.994l-.15.006H79c-1.105 0-2-.896-2-2 0-1.055.816-1.919 1.85-1.995l.15-.005h24zm-33 0c1.105 0 2 .895 2 2 0 1.054-.816 1.918-1.85 1.994l-.15.006h-9c-1.105 0-2-.896-2-2 0-1.055.816-1.919 1.85-1.995l.15-.005h9zm473-6c1.105 0 2 .895 2 2 0 1.054-.816 1.918-1.85 1.994l-.15.006h-24c-1.105 0-2-.896-2-2 0-1.055.816-1.919 1.85-1.995l.15-.005h24zm32.02-.5l51 .5c1.104.01 1.99.915 1.98 2.02-.01 1.054-.835 1.91-1.87 1.976l-.15.004-51-.5c-1.104-.011-1.99-.915-1.98-2.02.01-1.105.915-1.991 2.02-1.98zm-12.02 0c1.105 0 2 .895 2 2 0 1.054-.816 1.918-1.85 1.994l-.15.006h-9c-1.105 0-2-.896-2-2 0-1.055.816-1.919 1.85-1.995l.15-.005h9zm-517.98-2.25l51 .5c1.104.01 1.99.915 1.98 2.02-.01 1.054-.835 1.91-1.87 1.976l-.15.004-51-.5c-1.104-.011-1.99-.915-1.98-2.02.01-1.105.915-1.991 2.02-1.98zm498-7l51 .5c1.104.01 1.99.915 1.98 2.02-.01 1.054-.835 1.91-1.87 1.976l-.15.004-51-.5c-1.104-.011-1.99-.915-1.98-2.02.01-1.105.915-1.991 2.02-1.98zm-530-2.25l51 .5c1.104.01 1.99.915 1.98 2.02-.01 1.054-.835 1.91-1.87 1.976l-.15.004-51-.5c-1.104-.011-1.99-.915-1.98-2.02.01-1.105.915-1.991 2.02-1.98zm71.98.5c1.105 0 2 .895 2 2 0 1.054-.816 1.918-1.85 1.994l-.15.006h-9c-1.105 0-2-.896-2-2 0-1.055.816-1.919 1.85-1.995l.15-.005h9zm35-.5c1.105 0 2 .895 2 2 0 1.054-.816 1.918-1.85 1.994l-.15.006H96c-1.105 0-2-.896-2-2 0-1.055.816-1.919 1.85-1.995l.15-.005h24zm440-6c1.105 0 2 .895 2 2 0 1.054-.816 1.918-1.85 1.994l-.15.006h-24c-1.105 0-2-.896-2-2 0-1.055.816-1.919 1.85-1.995l.15-.005h24zm18 0c1.105 0 2 .895 2 2 0 1.054-.816 1.918-1.85 1.994l-.15.006h-9c-1.105 0-2-.896-2-2 0-1.055.816-1.919 1.85-1.995l.15-.005h9zm-470-1.5c1.105 0 2 .895 2 2 0 1.054-.816 1.918-1.85 1.994l-.15.006h-9c-1.105 0-2-.896-2-2 0-1.055.816-1.919 1.85-1.995l.15-.005h9zm-57 0c1.105 0 2 .895 2 2 0 1.054-.816 1.918-1.85 1.994l-.15.006h-9c-1.105 0-2-.896-2-2 0-1.055.816-1.919 1.85-1.995l.15-.005h9zm36 0c1.105 0 2 .895 2 2 0 1.054-.816 1.918-1.85 1.994l-.15.006H63c-1.105 0-2-.896-2-2 0-1.055.816-1.919 1.85-1.995l.15-.005h24zm-12-8.5c1.105 0 2 .895 2 2 0 1.054-.816 1.918-1.85 1.994l-.15.006H51c-1.105 0-2-.896-2-2 0-1.055.816-1.919 1.85-1.995l.15-.005h24zm21 0c1.105 0 2 .895 2 2 0 1.054-.816 1.918-1.85 1.994l-.15.006h-9c-1.105 0-2-.896-2-2 0-1.055.816-1.919 1.85-1.995l.15-.005h9zm526-106c1.105 0 2 .895 2 2 0 1.054-.816 1.918-1.85 1.994l-.15.006h-24c-1.105 0-2-.896-2-2 0-1.055.816-1.919 1.85-1.995l.15-.005h24zm-36 0c1.105 0 2 .895 2 2 0 1.054-.816 1.918-1.85 1.994l-.15.006h-9c-1.105 0-2-.896-2-2 0-1.055.816-1.919 1.85-1.995l.15-.005h9zm-12-8.5c1.105 0 2 .895 2 2 0 1.054-.816 1.918-1.85 1.994l-.15.006h-9c-1.105 0-2-.896-2-2 0-1.055.816-1.919 1.85-1.995l.15-.005h9zm36 0c1.105 0 2 .895 2 2 0 1.054-.816 1.918-1.85 1.994l-.15.006h-24c-1.105 0-2-.896-2-2 0-1.055.816-1.919 1.85-1.995l.15-.005h24zm21 0c1.105 0 2 .895 2 2 0 1.054-.816 1.918-1.85 1.994l-.15.006h-9c-1.105 0-2-.896-2-2 0-1.055.816-1.919 1.85-1.995l.15-.005h9zm-21.98-8l51 .5c1.104.01 1.99.915 1.98 2.02-.01 1.054-.835 1.91-1.87 1.976l-.15.004-51-.5c-1.104-.011-1.99-.915-1.98-2.02.01-1.105.915-1.991 2.02-1.98zm-32.02.5c1.105 0 2 .895 2 2 0 1.054-.816 1.918-1.85 1.994l-.15.006h-24c-1.105 0-2-.896-2-2 0-1.055.816-1.919 1.85-1.995l.15-.005h24zm20-.5c1.105 0 2 .895 2 2 0 1.054-.816 1.918-1.85 1.994l-.15.006h-9c-1.105 0-2-.896-2-2 0-1.055.816-1.919 1.85-1.995l.15-.005h9zm-19.98-9.25l51 .5c1.104.01 1.99.915 1.98 2.02-.01 1.054-.835 1.91-1.87 1.976l-.15.004-51-.5c-1.104-.011-1.99-.915-1.98-2.02.01-1.105.915-1.991 2.02-1.98zm16.98-8.25c1.105 0 2 .895 2 2 0 1.054-.816 1.918-1.85 1.994l-.15.006h-24c-1.105 0-2-.896-2-2 0-1.055.816-1.919 1.85-1.995l.15-.005h24zm18 0c1.105 0 2 .895 2 2 0 1.054-.816 1.918-1.85 1.994l-.15.006h-9c-1.105 0-2-.896-2-2 0-1.055.816-1.919 1.85-1.995l.15-.005h9zm-482-16c1.105 0 2 .895 2 2 0 1.054-.816 1.918-1.85 1.994l-.15.006h-24c-1.105 0-2-.896-2-2 0-1.055.816-1.919 1.85-1.995l.15-.005h24zm-36 0c1.105 0 2 .895 2 2 0 1.054-.816 1.918-1.85 1.994l-.15.006h-9c-1.105 0-2-.896-2-2 0-1.055.816-1.919 1.85-1.995l.15-.005h9zm-12-8.5c1.105 0 2 .895 2 2 0 1.054-.816 1.918-1.85 1.994l-.15.006h-9c-1.105 0-2-.896-2-2 0-1.055.816-1.919 1.85-1.995l.15-.005h9zm36 0c1.105 0 2 .895 2 2 0 1.054-.816 1.918-1.85 1.994l-.15.006H94c-1.105 0-2-.896-2-2 0-1.055.816-1.919 1.85-1.995l.15-.005h24zm21 0c1.105 0 2 .895 2 2 0 1.054-.816 1.918-1.85 1.994l-.15.006h-9c-1.105 0-2-.896-2-2 0-1.055.816-1.919 1.85-1.995l.15-.005h9zm-21.98-8l51 .5c1.104.01 1.99.915 1.98 2.02-.01 1.054-.835 1.91-1.87 1.976l-.15.004-51-.5c-1.104-.011-1.99-.915-1.98-2.02.01-1.105.915-1.991 2.02-1.98zm-32.02.5c1.105 0 2 .895 2 2 0 1.054-.816 1.918-1.85 1.994l-.15.006H61c-1.105 0-2-.896-2-2 0-1.055.816-1.919 1.85-1.995l.15-.005h24zm20-.5c1.105 0 2 .895 2 2 0 1.054-.816 1.918-1.85 1.994l-.15.006h-9c-1.105 0-2-.896-2-2 0-1.055.816-1.919 1.85-1.995l.15-.005h9zm-19.98-9.25l51 .5c1.104.01 1.99.915 1.98 2.02-.01 1.054-.835 1.91-1.87 1.976l-.15.004-51-.5c-1.104-.011-1.99-.915-1.98-2.02.01-1.105.915-1.991 2.02-1.98zm16.98-8.25c1.105 0 2 .895 2 2 0 1.054-.816 1.918-1.85 1.994l-.15.006H78c-1.105 0-2-.896-2-2 0-1.055.816-1.919 1.85-1.995l.15-.005h24zm18 0c1.105 0 2 .895 2 2 0 1.054-.816 1.918-1.85 1.994l-.15.006h-9c-1.105 0-2-.896-2-2 0-1.055.816-1.919 1.85-1.995l.15-.005h9zm565-32c1.105 0 2 .895 2 2 0 1.054-.816 1.918-1.85 1.994l-.15.006h-24c-1.105 0-2-.896-2-2 0-1.055.816-1.919 1.85-1.995l.15-.005h24zm-36 0c1.105 0 2 .895 2 2 0 1.054-.816 1.918-1.85 1.994l-.15.006h-9c-1.105 0-2-.896-2-2 0-1.055.816-1.919 1.85-1.995l.15-.005h9zm-12-8.5c1.105 0 2 .895 2 2 0 1.054-.816 1.918-1.85 1.994l-.15.006h-9c-1.105 0-2-.896-2-2 0-1.055.816-1.919 1.85-1.995l.15-.005h9zm36 0c1.105 0 2 .895 2 2 0 1.054-.816 1.918-1.85 1.994l-.15.006h-24c-1.105 0-2-.896-2-2 0-1.055.816-1.919 1.85-1.995l.15-.005h24zm21 0c1.105 0 2 .895 2 2 0 1.054-.816 1.918-1.85 1.994l-.15.006h-9c-1.105 0-2-.896-2-2 0-1.055.816-1.919 1.85-1.995l.15-.005h9zm-21.98-8l51 .5c1.104.01 1.99.915 1.98 2.02-.01 1.054-.835 1.91-1.87 1.976l-.15.004-51-.5c-1.104-.011-1.99-.915-1.98-2.02.01-1.105.915-1.991 2.02-1.98zm-32.02.5c1.105 0 2 .895 2 2 0 1.054-.816 1.918-1.85 1.994l-.15.006h-24c-1.105 0-2-.896-2-2 0-1.055.816-1.919 1.85-1.995l.15-.005h24zm20-.5c1.105 0 2 .895 2 2 0 1.054-.816 1.918-1.85 1.994l-.15.006h-9c-1.105 0-2-.896-2-2 0-1.055.816-1.919 1.85-1.995l.15-.005h9zm-19.98-9.25l51 .5c1.104.01 1.99.915 1.98 2.02-.01 1.054-.835 1.91-1.87 1.976l-.15.004-51-.5c-1.104-.011-1.99-.915-1.98-2.02.01-1.105.915-1.991 2.02-1.98zm16.98-8.25c1.105 0 2 .895 2 2 0 1.054-.816 1.918-1.85 1.994l-.15.006h-24c-1.105 0-2-.896-2-2 0-1.055.816-1.919 1.85-1.995l.15-.005h24zm18 0c1.105 0 2 .895 2 2 0 1.054-.816 1.918-1.85 1.994l-.15.006h-9c-1.105 0-2-.896-2-2 0-1.055.816-1.919 1.85-1.995l.15-.005h9z" opacity=".2"></path>
                    <path fill="#FFF" stroke="#B5B5B5" stroke-width="4" d="M424 395.436v27c0 2.209 1.79 4 4 4h245c2.21 0 4-1.791 4-4v-27c0-2.21-1.79-4-4-4H428c-2.21 0-4 1.79-4 4z"></path>
                    <path fill="#FFF" stroke="#B5B5B5" stroke-linecap="round" stroke-linejoin="round" stroke-width="4" d="M440 391.436L440 402.999M476.5 391.436L476.5 402.999M513.5 391.436L513.5 402.999M550.5 391.436L550.5 402.999M587.5 391.436L587.5 402.999M624.5 391.436L624.5 402.999M660.5 391.436L660.5 402.999"></path>
                    <path fill="#E5E5E5" d="M325.913 364.861L316.729 402.424 427.451 364.861z"></path>
                    <path fill="#FFF" stroke="#B5B5B5" stroke-width="4" d="M172.6 119.436V348.86c0 8.836 7.163 16 16 16h376c8.836 0 16-7.164 16-16V119.436c0-8.837-7.164-16-16-16h-376c-8.837 0-16 7.163-16 16z"></path>
                    <path fill="#F6F5F6" stroke="#B5B5B5" stroke-width="4" d="M172.6 320.86v28c0 8.837 7.163 16 16 16h376c8.836 0 16-7.163 16-16v-28h0-408z"></path>
                    <path stroke="#B5B5B5" stroke-linecap="round" stroke-linejoin="round" stroke-width="4" d="M0 426.436L126 426.436M150 426.436L754 426.436"></path>
                    <path fill="#FFF" stroke="#B5B5B5" stroke-width="4" d="M316.729 402.424L325.913 364.861"></path>
                    <path fill="#FAFAFA" stroke="#B5B5B5" stroke-width="4" d="M190.6 123.148v176c0 2.21 1.79 4 4 4h364c2.208 0 4-1.79 4-4v-176c0-2.21-1.792-4-4-4h-364c-2.21 0-4 1.79-4 4z"></path>
                    <path fill="#FFF" d="M206 154.436v128c0 2.209 1.79 4 4 4h210c2.21 0 4-1.791 4-4v-128c0-2.21-1.79-4-4-4H210c-2.21 0-4 1.79-4 4z"></path>
                    <circle cx="456.5" cy="162.936" r="8.5" fill="#D8D8D8"></circle>
                    <circle cx="452.5" cy="209.936" r="6.5" fill="#E5E5E5"></circle>
                    <circle cx="452.5" cy="241.936" r="6.5" fill="#E5E5E5"></circle>
                    <circle cx="452.5" cy="258.936" r="6.5" fill="#E5E5E5"></circle>
                    <circle cx="498.5" cy="162.936" r="8.5" fill="#D8D8D8"></circle>
                    <circle cx="542.5" cy="162.936" r="8.5" fill="#D8D8D8"></circle>
                    <rect width="16" height="5" x="465" y="205.436" fill="#BABABA" rx="2.5"></rect>
                    <rect width="104" height="9" x="448" y="277.436" fill="#E5E5E5" rx="4.5"></rect>
                    <rect width="49" height="9" x="448" y="182.436" fill="#E5E5E5" rx="4.5"></rect>
                    <rect width="49" height="9" x="503" y="182.436" fill="#E5E5E5" rx="4.5"></rect>
                    <rect width="16" height="5" x="465" y="239.436" fill="#BABABA" rx="2.5"></rect>
                    <rect width="16" height="5" x="465" y="256.436" fill="#BABABA" rx="2.5"></rect>
                    <rect width="14" height="3" x="465" y="214.436" fill="#E5E5E5" rx="1.5"></rect>
                    <rect width="80" height="9" x="448" y="130.436" fill="#E5E5E5" rx="4.5"></rect>
                    <rect width="30" height="9" x="206" y="130.436" fill="#E5E5E5" rx="4.5"></rect>
                    <rect width="30" height="9" x="244" y="130.436" fill="#E5E5E5" rx="4.5"></rect>
                    <rect width="30" height="9" x="282" y="130.436" fill="#E5E5E5" rx="4.5"></rect>
                    <rect width="30" height="9" x="320" y="130.436" fill="#E5E5E5" rx="4.5"></rect>
                    <rect width="30" height="9" x="358" y="130.436" fill="#E5E5E5" rx="4.5"></rect>
                    <rect width="20" height="9" x="531" y="130.436" fill="#E5E5E5" rx="4.5"></rect>
                    <rect width="9" height="9" x="532" y="130.436" fill="#FFF" rx="4.5"></rect>
                    <rect width="14" height="3" x="537" y="214.436" fill="#E5E5E5" rx="1.5"></rect>
                    <rect width="11" height="3" x="465" y="221.436" fill="#E5E5E5" rx="1.5"></rect>
                    <rect width="11" height="3" x="540" y="221.436" fill="#E5E5E5" rx="1.5"></rect>
                    <rect width="11" height="3" x="465" y="228.436" fill="#E5E5E5" rx="1.5"></rect>
                    <rect width="11" height="3" x="540" y="228.436" fill="#E5E5E5" rx="1.5"></rect>
                    <rect width="32" height="5" x="519" y="205.436" fill="#BABABA" rx="2.5"></rect>
                    <rect width="32" height="5" x="519" y="239.436" fill="#BABABA" rx="2.5"></rect>
                    <rect width="32" height="5" x="519" y="256.436" fill="#BABABA" rx="2.5"></rect>
                    <path fill="#FFF" stroke="#B5B5B5" stroke-width="4" d="M60.551 414.149l25.53 8.79c2.088.72 4.364-.391 5.083-2.48l79.765-231.652c.719-2.089-.391-4.365-2.48-5.084l-25.53-8.79c-2.088-.72-4.364.39-5.083 2.48L58.07 409.063c-.719 2.089.391 4.365 2.48 5.085z"></path>
                    <path fill="#FFF" stroke="#B5B5B5" stroke-linecap="round" stroke-linejoin="round" stroke-width="4" d="M67.445 393.818L67.445 405.382" transform="rotate(-71 67.445 399.6)"></path>
                    <path fill="#FFF" stroke="#B5B5B5" stroke-linecap="round" stroke-linejoin="round" stroke-width="4" d="M79.328 359.307L79.328 370.871" transform="rotate(-71 79.328 365.089)"></path>
                    <path fill="#FFF" stroke="#B5B5B5" stroke-linecap="round" stroke-linejoin="round" stroke-width="4" d="M91.374 324.323L91.374 335.887" transform="rotate(-71 91.374 330.105)"></path>
                    <path fill="#FFF" stroke="#B5B5B5" stroke-linecap="round" stroke-linejoin="round" stroke-width="4" d="M103.42 289.339L103.42 300.902" transform="rotate(-71 103.42 295.12)"></path>
                    <path fill="#FFF" stroke="#B5B5B5" stroke-linecap="round" stroke-linejoin="round" stroke-width="4" d="M115.466 254.354L115.466 265.918" transform="rotate(-71 115.466 260.136)"></path>
                    <path fill="#FFF" stroke="#B5B5B5" stroke-linecap="round" stroke-linejoin="round" stroke-width="4" d="M127.512 219.37L127.512 230.934" transform="rotate(-71 127.512 225.152)"></path>
                    <path fill="#FFF" stroke="#B5B5B5" stroke-linecap="round" stroke-linejoin="round" stroke-width="4" d="M139.233 185.332L139.233 196.895" transform="rotate(-71 139.233 191.114)"></path>
                    <g stroke="#B5B5B5" stroke-width="4">
                        <path fill="#FFF" d="M144.974 73.414c0-39.764-32.236-72-72-72-39.765 0-72 32.236-72 72 0 0 9.294-8.667 25.688-8.667 10.929 0 18.401 2.89 22.416 8.667 5.253-5.778 13.218-8.667 23.896-8.667s18.636 2.89 23.873 8.667c5.912-5.778 14.04-8.667 24.382-8.667 15.515 0 23.745 8.667 23.745 8.667z" transform="rotate(7 156.627 2655.9)"></path>
                        <path d="M49.134 72.867c-2.101-13.117-1.415-25.818 2.059-38.103C54.666 22.48 61.918 11.181 72.946.867" transform="rotate(7 156.627 2655.9)"></path>
                        <path d="M76.057 73.244c-2.101-13.118-1.415-25.819 2.059-38.103C81.59 22.857 88.84 11.558 99.869 1.244" transform="rotate(7 156.627 2655.9) matrix(-1 0 0 1 174.738 0)"></path>
                        <path d="M49.009 73.489L73.009 145.489M.658 72.847L72.995 145.183M99.331 72.054L73.331 144.39M143.84 72.176L72.831 144.512" transform="rotate(7 156.627 2655.9)"></path>
                    </g>
                    <path fill="#FFF" stroke="#B5B5B5" stroke-width="4" d="M399.683 402.151h-97.985c-5.577 0-10.099 5.373-10.099 12 0 6.628 4.522 12 10.1 12H451.5c5.578 0 10.1-5.372 10.1-12 0-6.627-4.522-12-10.1-12h-16.203l-7.846-37.29M351.313 153.839l-6.216 50.62c-.269 2.192 1.29 4.188 3.483 4.457l46.65 5.728c2.192.27 4.188-1.29 4.457-3.483l6.216-50.62c.269-2.192-1.29-4.188-3.483-4.457l-46.65-5.728c-2.192-.27-4.188 1.29-4.457 3.483z"></path>
                </g>
            </g>
        </g>
    </svg>