<svg xmlns="http://www.w3.org/2000/svg" width="80" height="80" viewBox="0 0 80 80">
    <g fill="none" fill-rule="evenodd" stroke-linecap="round" stroke-linejoin="round">
        <g fill-rule="nonzero">
            <g>
                <g>
                    <path fill="#E17726" stroke="#E17726" d="M76 0L45.333 24 51.029 9.841z" transform="translate(-1187 -688) translate(1187 688) translate(0 2.667)"/>
                    <path fill="#E27625" stroke="#E27625" d="M4 0L34.667 24 29.201 9.748zM64.239 54.667L56 67.19 73.629 72 78.667 54.943zM1.333 54.943L6.348 72 24 67.19 15.781 54.667z" transform="translate(-1187 -688) translate(1187 688) translate(0 2.667)"/>
                    <path fill="#E27625" stroke="#E27625" d="M22.206 31.853L17.333 39.228 34.667 40 34.08 21.333zM57.794 31.946L45.734 21.333 45.333 40 62.667 39.237zM24 66.667L34.667 61.626 25.478 54.667zM45.333 61.626L56 66.667 54.522 54.667z" transform="translate(-1187 -688) translate(1187 688) translate(0 2.667)"/>
                    <path fill="#D5BFB2" stroke="#D5BFB2" d="M56 67.573L45.333 62.667 46.182 69.236 46.089 72zM24 67.573L33.911 72 33.849 69.236 34.667 62.667z" transform="translate(-1187 -688) translate(1187 688) translate(0 2.667)"/>
                    <path fill="#233447" stroke="#233447" d="M33.333 49.333L24 46.79 30.585 44zM46.667 49.333L49.405 44 56 46.79z" transform="translate(-1187 -688) translate(1187 688) translate(0 2.667)"/>
                    <path fill="#CC6228" stroke="#CC6228" d="M23.873 66.667L25.333 53.333 16 53.628zM54.667 53.333L56.122 66.667 64 53.628zM62.667 40L45.333 40.744 46.937 49.333 49.498 44.161 55.665 46.867zM24.366 46.867L30.502 44.161 33.063 49.333 34.667 40.744 17.333 40z" transform="translate(-1187 -688) translate(1187 688) translate(0 2.667)"/>
                    <path fill="#E27525" stroke="#E27525" d="M17.333 40L25.333 54.667 25.063 47.365zM54.971 47.365L54.667 54.667 62.667 40zM35.067 41.333L33.333 50.506 35.534 61.333 36 47.078zM44.911 41.333L44 47.047 44.439 61.333 46.667 50.506z" transform="translate(-1187 -688) translate(1187 688) translate(0 2.667)"/>
                    <path fill="#F5841F" stroke="#F5841F" d="M46.017 49.329L44 60.274 45.466 61.333 54.393 54.017 54.667 46.667zM25.333 46.667L25.578 54.017 34.53 61.333 36 60.274 33.977 49.329z" transform="translate(-1187 -688) translate(1187 688) translate(0 2.667)"/>
                    <path fill="#C0AC9D" stroke="#C0AC9D" d="M46.009 71.53L46.103 68.494 45.313 67.776 33.354 67.776 32.595 68.494 32.657 71.53 22.667 66.667 26.156 69.604 33.26 74.667 45.406 74.667 52.51 69.604 56 66.667z" transform="translate(-1187 -688) translate(1187 688) translate(0 2.667)"/>
                    <path fill="#161616" stroke="#161616" d="M45.822 62.372L44.32 61.333 35.649 61.333 34.147 62.372 33.333 69.333 34.083 68.642 45.887 68.642 46.667 69.333z" transform="translate(-1187 -688) translate(1187 688) translate(0 2.667)"/>
                    <path fill="#763E1A" stroke="#763E1A" d="M77.323 24.899L80 11.992 75.986 0 45.333 22.59 57.124 32.491 73.786 37.333 77.452 33.061 75.857 31.923 78.406 29.611 76.463 28.093 79.011 26.164zM0 11.992L2.708 24.899.989 26.164 3.537 28.093 1.594 29.611 4.143 31.923 2.548 33.061 6.214 37.333 22.876 32.491 34.667 22.59 4.014 0z" transform="translate(-1187 -688) translate(1187 688) translate(0 2.667)"/>
                    <path fill="#F5841F" stroke="#F5841F" d="M73.253 36.963L57.079 32 61.966 39.751 54.667 54.667 64.315 54.536 78.667 54.536zM22.917 32L6.723 36.963 1.333 54.536 15.703 54.536 25.333 54.667 18.025 39.751zM44.82 40.274L45.894 22.205 50.667 9.333 29.333 9.333 34.106 22.205 35.18 40.274 35.591 45.972 35.622 60 44.378 60 44.409 45.972z" transform="translate(-1187 -688) translate(1187 688) translate(0 2.667)"/>
                </g>
            </g>
        </g>
    </g>
</svg>
