<?xml version="1.0" encoding="utf-8"?>
<svg width="40px" height="40px" viewBox="0 0 40 40" version="1.1" xmlns:xlink="http://www.w3.org/1999/xlink" xmlns="http://www.w3.org/2000/svg">
  <desc>Created with Lunacy</desc>
  <g id="Logo/Metamask">
    <g id="Group" transform="translate(0 1.3333334)">
      <path d="M15.3333 0L0 12L2.84771 4.92029L15.3333 0L15.3333 0Z" transform="translate(22.666668 0)" id="Path" fill="#E17726" stroke="#E17726" stroke-width="1" stroke-linecap="round" stroke-linejoin="round" />
      <path d="M0 0L15.3333 12L12.6003 4.87416L0 0L0 0Z" transform="translate(2 0)" id="Path" fill="#E27625" stroke="#E27625" stroke-width="1" stroke-linecap="round" stroke-linejoin="round" />
      <path d="M4.11926 0L0 6.26188L8.81431 8.66667L11.3333 0.138241L4.11926 0L4.11926 0Z" transform="translate(28 27.333334)" id="Path" fill="#E27625" stroke="#E27625" stroke-width="1" stroke-linecap="round" stroke-linejoin="round" />
      <path d="M0 0.138241L2.5071 8.66667L11.3333 6.26188L7.22383 0L0 0.138241L0 0.138241Z" transform="translate(0.6666667 27.333334)" id="Path" fill="#E27625" stroke="#E27625" stroke-width="1" stroke-linecap="round" stroke-linejoin="round" />
      <path d="M2.43627 5.25997L0 8.94742L8.66667 9.33333L8.37353 0L2.43627 5.25997L2.43627 5.25997Z" transform="translate(8.666667 10.666667)" id="Path" fill="#E27625" stroke="#E27625" stroke-width="1" stroke-linecap="round" stroke-linejoin="round" />
      <path d="M6.2304 5.30651L0.200491 0L0 9.33333L8.66667 8.95183L6.2304 5.30651L6.2304 5.30651Z" transform="translate(22.666668 10.666667)" id="Path" fill="#E27625" stroke="#E27625" stroke-width="1" stroke-linecap="round" stroke-linejoin="round" />
      <path d="M0 6L5.33333 3.4797L0.739105 0L0 6L0 6Z" transform="translate(12 27.333334)" id="Path" fill="#E27625" stroke="#E27625" stroke-width="1" stroke-linecap="round" stroke-linejoin="round" />
      <path d="M0 3.4797L5.33333 6L4.59423 0L0 3.4797L0 3.4797Z" transform="translate(22.666668 27.333334)" id="Path" fill="#E27625" stroke="#E27625" stroke-width="1" stroke-linecap="round" stroke-linejoin="round" />
      <path d="M5.33333 2.45337L0 0L0.424559 3.28482L0.378075 4.66667L5.33333 2.45337L5.33333 2.45337Z" transform="translate(22.666668 31.333334)" id="Path" fill="#D5BFB2" stroke="#D5BFB2" stroke-width="1" stroke-linecap="round" stroke-linejoin="round" />
      <path d="M0 2.45337L4.95526 4.66667L4.92427 3.28482L5.33333 0L0 2.45337L0 2.45337Z" transform="translate(12 31.333334)" id="Path" fill="#D5BFB2" stroke="#D5BFB2" stroke-width="1" stroke-linecap="round" stroke-linejoin="round" />
      <path d="M4.66667 2.66667L0 1.39524L3.29258 0L4.66667 2.66667L4.66667 2.66667Z" transform="translate(12 22)" id="Path" fill="#233447" stroke="#233447" stroke-width="1" stroke-linecap="round" stroke-linejoin="round" />
      <path d="M0 2.66667L1.3693 0L4.66667 1.39524L0 2.66667L0 2.66667Z" transform="translate(23.333334 22)" id="Path" fill="#233447" stroke="#233447" stroke-width="1" stroke-linecap="round" stroke-linejoin="round" />
      <path d="M3.93663 6.66667L4.66667 0L0 0.147178L3.93663 6.66667L3.93663 6.66667Z" transform="translate(8 26.666668)" id="Path" fill="#CC6228" stroke="#CC6228" stroke-width="1" stroke-linecap="round" stroke-linejoin="round" />
      <path d="M0 0L0.727748 6.66667L4.66667 0.147178L0 0L0 0Z" transform="translate(27.333334 26.666668)" id="Path" fill="#CC6228" stroke="#CC6228" stroke-width="1" stroke-linecap="round" stroke-linejoin="round" />
      <path d="M8.66667 0L0 0.371928L0.801963 4.66667L2.08237 2.08075L5.16567 3.43374L8.66667 0L8.66667 0Z" transform="translate(22.666668 20)" id="Path" fill="#CC6228" stroke="#CC6228" stroke-width="1" stroke-linecap="round" stroke-linejoin="round" />
      <path d="M3.51618 3.43374L6.5843 2.08075L7.8647 4.66667L8.66667 0.371928L0 0L3.51618 3.43374L3.51618 3.43374Z" transform="translate(8.666667 20)" id="Path" fill="#CC6228" stroke="#CC6228" stroke-width="1" stroke-linecap="round" stroke-linejoin="round" />
      <path d="M0 0L4 7.33333L3.86477 3.68237L0 0L0 0Z" transform="translate(8.666667 20)" id="Path" fill="#E27525" stroke="#E27525" stroke-width="1" stroke-linecap="round" stroke-linejoin="round" />
      <path d="M0.15192 3.68237L0 7.33333L4 0L0.15192 3.68237L0.15192 3.68237Z" transform="translate(27.333334 20)" id="Path" fill="#E27525" stroke="#E27525" stroke-width="1" stroke-linecap="round" stroke-linejoin="round" />
      <path d="M0.866996 0L0 4.5864L1.10016 10L1.33333 2.87256L0.866996 0L0.866996 0Z" transform="translate(16.666668 20.666668)" id="Path" fill="#E27525" stroke="#E27525" stroke-width="1" stroke-linecap="round" stroke-linejoin="round" />
      <path d="M0.455528 0L0 2.85692L0.219451 10L1.33333 4.5864L0.455528 0L0.455528 0Z" transform="translate(22 20.666668)" id="Path" fill="#E27525" stroke="#E27525" stroke-width="1" stroke-linecap="round" stroke-linejoin="round" />
      <path d="M1.00856 1.33103L0 6.80377L0.733089 7.33333L5.19635 3.67536L5.33333 0L1.00856 1.33103L1.00856 1.33103Z" transform="translate(22 23.333334)" id="Path" fill="#F5841F" stroke="#F5841F" stroke-width="1" stroke-linecap="round" stroke-linejoin="round" />
      <path d="M0 0L0.122276 3.67536L4.59817 7.33333L5.33333 6.80377L4.32192 1.33103L0 0L0 0Z" transform="translate(12.666667 23.333334)" id="Path" fill="#F5841F" stroke="#F5841F" stroke-width="1" stroke-linecap="round" stroke-linejoin="round" />
      <path d="M11.6714 2.43185L11.7182 0.91355L11.323 0.554885L5.34364 0.554885L4.96407 0.91355L4.99531 2.43185L0 0L1.74477 1.46844L5.29678 4L11.3699 4L14.9219 1.46844L16.6667 0L11.6714 2.43185L11.6714 2.43185Z" transform="translate(11.333334 33.333336)" id="Path" fill="#C0AC9D" stroke="#C0AC9D" stroke-width="1" stroke-linecap="round" stroke-linejoin="round" />
      <path d="M6.24422 0.519581L5.49337 0L1.15788 0L0.407031 0.519581L0 4L0.374653 3.65413L6.2766 3.65413L6.66667 4L6.24422 0.519581L6.24422 0.519581Z" transform="translate(16.666668 30.666668)" id="Path" fill="#161616" stroke="#161616" stroke-width="1" stroke-linecap="round" stroke-linejoin="round" />
      <path d="M15.9948 12.4496L17.3333 5.99577L15.3263 0L0 11.295L5.89547 16.2453L14.2263 18.6667L16.0591 16.5304L15.262 15.9617L16.5362 14.8056L15.5648 14.0467L16.839 13.0822L15.9948 12.4496L15.9948 12.4496Z" transform="translate(22.666668 0)" id="Path" fill="#763E1A" stroke="#763E1A" stroke-width="1" stroke-linecap="round" stroke-linejoin="round" />
      <path d="M0 5.99577L1.35422 12.4496L0.494297 13.0822L1.76848 14.0467L0.797151 14.8056L2.07134 15.9617L1.27419 16.5304L3.10701 18.6667L11.4379 16.2453L17.3333 11.295L2.007 0L0 5.99577L0 5.99577Z" id="Path" fill="#763E1A" stroke="#763E1A" stroke-width="1" stroke-linecap="round" stroke-linejoin="round" />
      <path d="M9.29322 2.48161L1.2064 0L3.64966 3.87572L0 11.3333L4.82407 11.2679L12 11.2679L9.29322 2.48161L9.29322 2.48161Z" transform="translate(27.333334 16)" id="Path" fill="#F5841F" stroke="#F5841F" stroke-width="1" stroke-linecap="round" stroke-linejoin="round" />
      <path d="M10.7921 0L2.69497 2.48161L0 11.2679L7.18505 11.2679L12 11.3333L8.3457 3.87572L10.7921 0L10.7921 0Z" transform="translate(0.6666667 16)" id="Path" fill="#F5841F" stroke="#F5841F" stroke-width="1" stroke-linecap="round" stroke-linejoin="round" />
      <path d="M7.74314 15.4705L8.28021 6.43589L10.6667 0L0 0L2.38646 6.43589L2.92353 15.4705L3.12901 18.3191L3.14458 25.3333L7.52209 25.3333L7.53765 18.3191L7.74314 15.4705L7.74314 15.4705Z" transform="translate(14.666667 4.666667)" id="Path" fill="#F5841F" stroke="#F5841F" stroke-width="1" stroke-linecap="round" stroke-linejoin="round" />
    </g>
  </g>
</svg>