<?xml version="1.0" encoding="UTF-8"?>
<svg width="20px" height="14px" viewBox="0 0 20 14" version="1.1" xmlns="http://www.w3.org/2000/svg" xmlns:xlink="http://www.w3.org/1999/xlink">
    <title>Icon/Moonbeam</title>
    <g id="Symbols" stroke="none" stroke-width="1" fill="none" fill-rule="evenodd">
        <g id="Group" transform="translate(-2.000000, -4.000000)" fill-rule="nonzero">
            <g id="Group-22" transform="translate(2.000000, 4.500000)">
                <path d="M17.5,12.5 C17.7761424,12.5 18,12.7238576 18,13 C18,13.2454599 17.8231248,13.4496084 17.5898756,13.4919443 L17.5,13.5 L7.5,13.5 C7.22385763,13.5 7,13.2761424 7,13 C7,12.7545401 7.17687516,12.5503916 7.41012437,12.5080557 L7.5,12.5 L17.5,12.5 Z M5.5,12.5 C5.77614237,12.5 6,12.7238576 6,13 C6,13.2761424 5.77614237,13.5 5.5,13.5 C5.22385763,13.5 5,13.2761424 5,13 C5,12.7238576 5.22385763,12.5 5.5,12.5 Z M11.5,10.5 C11.7761424,10.5 12,10.7238576 12,11 C12,11.2454599 11.8231248,11.4496084 11.5898756,11.4919443 L11.5,11.5 L2.5,11.5 C2.22385763,11.5 2,11.2761424 2,11 C2,10.7545401 2.17687516,10.5503916 2.41012437,10.5080557 L2.5,10.5 L11.5,10.5 Z M0.5,10.5 C0.776142375,10.5 1,10.7238576 1,11 C1,11.2761424 0.776142375,11.5 0.5,11.5 C0.223857625,11.5 0,11.2761424 0,11 C0,10.7238576 0.223857625,10.5 0.5,10.5 Z M19.5,8.5 C19.7761424,8.5 20,8.72385763 20,9 C20,9.24545989 19.8231248,9.44960837 19.5898756,9.49194433 L19.5,9.5 L4.5,9.5 C4.22385763,9.5 4,9.27614237 4,9 C4,8.75454011 4.17687516,8.55039163 4.41012437,8.50805567 L4.5,8.5 L19.5,8.5 Z M2.5,8.5 C2.77614237,8.5 3,8.72385763 3,9 C3,9.27614237 2.77614237,9.5 2.5,9.5 C2.22385763,9.5 2,9.27614237 2,9 C2,8.72385763 2.22385763,8.5 2.5,8.5 Z" id="Combined-Shape" fill="#CF327A"></path>
                <path d="M12,0 C8.41014913,0 5.5,2.91014913 5.5,6.5 C5.5,6.77614237 5.72385763,7 6,7 L18,7 C18.2761424,7 18.5,6.77614237 18.5,6.5 C18.5,2.91014913 15.5898509,0 12,0 Z" id="Oval-Copy-17" fill="#75C8C7"></path>
            </g>
        </g>
    </g>
</svg>