<?xml version="1.0" encoding="utf-8"?>
<svg width="160px" height="160px" viewBox="0 0 160 160" version="1.1" xmlns:xlink="http://www.w3.org/1999/xlink" xmlns="http://www.w3.org/2000/svg">
  <desc>Created with Lunacy</desc>
  <defs>
    <path d="M55.4721 51.4598C60.0129 46.0179 62.7451 39.0143 62.7451 31.3725C62.7451 14.046 48.6991 0 31.3725 0C14.046 0 0 14.046 0 31.3725C0 39.7012 3.24543 47.2718 8.54061 52.8887" transform="translate(31.37255 2.1316282E-14)" id="path_1" />
    <clipPath id="clip_1">
      <use xlink:href="#path_1" />
    </clipPath>
  </defs>
  <g id="Icon/Percentage" opacity="0.1">
    <g id="Group" transform="translate(17 2)">
      <path d="M11.0727 0L114.418 0C120.533 0 125.49 4.98632 125.49 11.1373L125.49 100.235C125.49 106.386 120.533 111.373 114.418 111.373L11.0727 111.373C4.9574 111.373 0 106.386 0 100.235L0 11.1373C0 4.98632 4.9574 0 11.0727 0ZM114.418 7.42484L11.0727 7.42484C9.03424 7.42484 7.38178 9.08694 7.38178 11.1373L7.38178 100.235C7.38178 102.286 9.03424 103.948 11.0727 103.948L114.418 103.948C116.456 103.948 118.108 102.286 118.108 100.235L118.108 11.1373C118.108 9.08694 116.456 7.42484 114.418 7.42484Z" transform="matrix(-1 0 0 1 125.4902 46.627453)" id="Rectangle" fill="#78757A" fill-rule="evenodd" stroke="none" />
      <path d="M22.1516 7.4937C21.3876 7.4937 12.6488 7.4937 11.0924 7.4937C9.27727 7.4937 7.7676 8.81914 7.45453 10.567L7.39496 11.2405L7.39496 18.7342L0 18.7342L0 11.2405C0 5.39774 4.39917 0.596133 10.0242 0.051456L11.0924 0C12.6486 0 21.3875 0 22.1516 0M76.8302 0C82.5869 0 89.222 0 100.735 0C106.501 0 111.24 4.45791 111.777 10.158L111.828 11.2405L111.828 29.8039L104.433 29.8039L104.433 11.2405C104.433 9.40114 103.125 7.87132 101.4 7.55406L100.735 7.4937C88.7849 7.4937 81.8221 7.4937 75.8469 7.4937" transform="matrix(-1 0 0 1 111.827805 32.509804)" id="Path" fill="#78757A" stroke="none" />
      <path d="M43.9216 0C49.6291 0 54.3196 4.4325 54.8517 10.1001L54.902 11.1765L54.902 18.6275C54.902 24.437 50.5472 29.2112 44.9791 29.7528L43.9216 29.8039L0 29.8039L0 22.3529L43.9216 22.3529C45.7184 22.3529 47.2128 21.035 47.5227 19.2971L47.5817 18.6275L47.5817 11.1765C47.5817 9.34755 46.2869 7.82645 44.5795 7.511L43.9216 7.45098L0 7.45098L0 0L43.9216 0Z" transform="matrix(-1 0 0 1 122.35294 84.27451)" id="Path" fill="#78757A" stroke="none" />
      <g id="Path">
        <g clip-path="url(#clip_1)">
          <use xlink:href="#path_1" fill="none" stroke="#78757A" stroke-width="28" />
        </g>
      </g>
      <path d="M24 0L23.9355 4.23124L1.90735e-06 4.59605L0.0644922 0.364811L24 0ZM24 7.1174L23.9355 11.3486L1.90735e-06 11.7135L0.0644922 7.48221L24 7.1174ZM23.9355 18.466L24 14.2348L0.0644922 14.5996L1.90735e-06 18.8308L23.9355 18.466Z" transform="matrix(0.70710677 -0.70710677 0.70710677 0.70710677 47.857014 32.242996)" id="Combined-Shape" fill="#78757A" fill-rule="evenodd" stroke="none" />
    </g>
  </g>
</svg>