<svg xmlns="http://www.w3.org/2000/svg" width="120" height="120" viewBox="0 0 120 120">
    <g fill="none" fill-rule="evenodd" opacity=".1">
        <g fill="#78757A">
            <g>
                <g>
                    <path d="M71.011 7.089c.346-.95 1.38-1.455 2.343-1.146l.063.022c.903.33 1.369 1.33 1.04 2.233L73.3 11.366c-.346.95-1.38 1.455-2.343 1.146l-.063-.022c-.903-.33-1.369-1.33-1.04-2.233zM49.74 7.077l1.155 3.168c.33.904-.136 1.904-1.04 2.233l-.062.022c-.962.31-1.997-.196-2.343-1.146l-1.155-3.168c-.33-.903.136-1.903 1.04-2.233.02-.007.041-.015.062-.021.962-.31 1.997.196 2.343 1.145zM60.36.78c.949.004 1.717.772 1.721 1.72l.03 6.273c.005.978-.784 1.775-1.762 1.78h-.017c-.982-.005-1.774-.805-1.769-1.786v-.01l.066-6.273c.01-.947.784-1.709 1.731-1.704zM65.12 19.5c5.082 0 9.537 3.363 10.877 8.212l20.455 73.976c.172.625.231 1.248.19 1.85h2.887c4.679 0 8.471 3.686 8.471 8.231 0 4.546-3.792 8.231-8.47 8.231H20.47c-4.678 0-8.47-3.685-8.47-8.23 0-4.546 3.792-8.231 8.47-8.231h2.888c-.042-.625.022-1.272.21-1.918L45.06 27.576c1.388-4.781 5.81-8.076 10.84-8.076zm34.41 89.526H20.47c-1.559 0-2.823 1.228-2.823 2.743 0 1.347.999 2.467 2.316 2.7l.508.044h79.058c1.56 0 2.824-1.228 2.824-2.744 0-1.346-.999-2.467-2.316-2.699l-.508-.044zM73.15 38.56H47.739l-18.751 64.6h62.025L73.15 38.56zm-8.032-13.483h-9.218l-.678.04c-2.226.266-4.111 1.825-4.742 3.998l-1.233 4.247h22.465l-1.155-4.179-.22-.642c-.858-2.074-2.908-3.464-5.219-3.464z" transform="translate(-453 -370) translate(263 290) translate(190 80)"/>
                </g>
            </g>
        </g>
    </g>
</svg>
