<?xml version="1.0" encoding="utf-8"?>
<svg width="16px" height="16px" viewBox="0 0 16 16" version="1.1" xmlns:xlink="http://www.w3.org/1999/xlink" xmlns="http://www.w3.org/2000/svg">
  <desc>Created with Lunacy</desc>
  <g id="Icon/Arrow-Left">
    <path d="M1.3334 0L2.6668 0C3.40322 0 4.0002 0.596983 4.0002 1.3334L4.0002 9.82349C4.0002 10.0555 3.93967 10.2835 3.82459 10.4849L2.579 12.6653C2.32307 13.1133 1.67713 13.1133 1.4212 12.6653L0.175608 10.4849C0.0605293 10.2835 0 10.0555 0 9.82349L0 1.3334C0 0.596983 0.596984 0 1.3334 0ZM3.3335 1.3334C3.3335 0.965192 3.03501 0.6667 2.6668 0.6667L1.3334 0.6667C0.965192 0.6667 0.6667 0.965192 0.6667 1.3334L0.6667 9.82349C0.6667 9.93949 0.696965 10.0535 0.754504 10.1542L2.0001 12.3346L3.2457 10.1542C3.30324 10.0535 3.3335 9.93949 3.3335 9.82349L3.3335 1.3334Z" transform="matrix(0.7071066 0.7071069 -0.7071069 0.7071066 11.18276 1.82311)" id="Rectangle" fill="#DEDDDE" fill-rule="evenodd" stroke="none" />
  </g>
</svg>