<?xml version="1.0" encoding="utf-8"?>
<svg width="34px" height="34px" viewBox="0 0 34 34" version="1.1" xmlns:xlink="http://www.w3.org/1999/xlink" xmlns="http://www.w3.org/2000/svg">
  <desc>Created with Lunacy</desc>
  <g id="Icon/Arrow-Left">
    <path d="M4.2 0C6.5196 0 8.4 1.8804 8.4 4.2C8.4 6.5196 6.5196 8.4 4.2 8.4C1.8804 8.4 0 6.5196 0 4.2C0 1.8804 1.8804 0 4.2 0ZM20.6883 0.905408C20.9615 0.63183 21.4047 0.631487 21.6783 0.904643C21.9215 1.14745 21.9487 1.52462 21.76 1.79758L21.679 1.89459L1.89536 21.7089C1.6222 21.9825 1.17899 21.9828 0.905408 21.7096C0.662227 21.4668 0.634937 21.0897 0.82372 20.8167L0.904643 20.7197L20.6883 0.905408ZM4.2 1.4C2.6536 1.4 1.4 2.6536 1.4 4.2C1.4 5.7464 2.6536 7 4.2 7C5.7464 7 7 5.7464 7 4.2C7 2.6536 5.7464 1.4 4.2 1.4ZM22.4 18.2C22.4 15.8804 20.5196 14 18.2 14C15.8804 14 14 15.8804 14 18.2C14 20.5196 15.8804 22.4 18.2 22.4C20.5196 22.4 22.4 20.5196 22.4 18.2ZM15.4 18.2C15.4 16.6536 16.6536 15.4 18.2 15.4C19.7464 15.4 21 16.6536 21 18.2C21 19.7464 19.7464 21 18.2 21C16.6536 21 15.4 19.7464 15.4 18.2Z" transform="translate(5.6 5.6)" id="Combined-Shape" fill="#78757A" fill-rule="evenodd" stroke="none" />
  </g>
</svg>