<?xml version="1.0" encoding="utf-8"?>
<svg width="42px" height="41px" viewBox="0 0 42 41" version="1.1" xmlns:xlink="http://www.w3.org/1999/xlink" xmlns="http://www.w3.org/2000/svg">
  <desc>Created with Lunacy</desc>
  <path d="M32.2176 0.978329C32.0818 0.118546 31.04 -0.315215 30.3286 0.264519L20.9883 7.87721L11.3259 0.25299L11.157 0.140943C10.4059 -0.27068 9.43655 0.263873 9.43655 1.16888L9.43655 8.16887L3.5 8.16887C1.567 8.16887 0 9.73588 0 11.6689C0 13.6019 1.567 15.1689 3.5 15.1689L4.66667 15.1689L4.66667 36.1689C4.66667 38.7462 6.756 40.8355 9.33333 40.8355L32.6667 40.8355C35.244 40.8355 37.3333 38.7462 37.3333 36.1689L37.3333 15.1689L38.5 15.1689C40.433 15.1689 42 13.6019 42 11.6689C42 9.73588 40.433 8.16887 38.5 8.16887L32.2324 8.16887L32.2324 1.16888L32.2176 0.978329ZM30.7734 10.5022C30.8668 10.5263 30.9648 10.5391 31.0657 10.5391C31.1666 10.5391 31.2646 10.5263 31.358 10.5022L38.5 10.5022C39.1443 10.5022 39.6667 11.0245 39.6667 11.6689C39.6667 12.3132 39.1443 12.8355 38.5 12.8355L3.5 12.8355C2.85567 12.8355 2.33333 12.3132 2.33333 11.6689C2.33333 11.0245 2.85567 10.5022 3.5 10.5022L10.3109 10.5022C10.4043 10.5263 10.5023 10.5391 10.6032 10.5391L10.8129 10.5203C10.8408 10.5153 10.8684 10.5092 10.8955 10.5022L20.7084 10.5022C20.8996 10.5515 21.1005 10.5514 21.2915 10.5022L30.7734 10.5022ZM29.8986 8.16887L29.897 3.62354L24.3223 8.16887L29.8986 8.16887ZM17.5914 8.16887L11.7693 3.57454L11.7698 8.16887L17.5914 8.16887ZM19.8333 15.1689L7 15.1689L7 25.6685L19.8333 25.6685L19.8333 15.1689ZM22.1667 38.5022L22.1667 28.0018L34.9995 28.0018L34.9995 25.6685L22.1667 25.6685L22.1667 15.1689L35 15.1689L35 36.1689C35 37.4575 33.9553 38.5022 32.6667 38.5022L22.1667 38.5022ZM7 36.1689L7 28.0018L19.8333 28.0018L19.8333 38.5022L9.33333 38.5022C8.04467 38.5022 7 37.4575 7 36.1689Z" id="Combined-Shape" fill="#78757A" fill-rule="evenodd" stroke="none" />
</svg>