<svg xmlns="http://www.w3.org/2000/svg" width="56" height="56" viewBox="0 0 56 56">
    <g fill="none" fill-rule="evenodd">
        <g fill="#99999A">
            <g>
                <g>
                    <g>
                        <path d="M39.218 7.978l.014.19v7H45.5c1.869 0 3.395 1.465 3.495 3.309l.005.192c0 1.933-1.567 3.5-3.5 3.5l-1.167-.001v21c0 2.507-1.975 4.551-4.453 4.663l-.213.005H16.333c-2.577 0-4.666-2.09-4.666-4.667l-.001-21.001H10.5c-1.869 0-3.395-1.463-3.495-3.307L7 18.669c0-1.933 1.567-3.5 3.5-3.5l5.936-.001v-7c0-.904.97-1.439 1.721-1.027l.169.112 9.662 7.624 9.34-7.612c.712-.58 1.754-.146 1.89.713zM26.833 35.002H14v8.167c0 1.289 1.045 2.333 2.333 2.333h10.5v-10.5zm15.167 0H29.166v10.5h10.5c1.29 0 2.334-1.044 2.334-2.333v-8.167zm0-12.833H29.167l-.001 10.499H42v-10.5zm-15.167 0H14v10.5l12.833-.001v-10.5zM45.5 17.502l-7.148.002c-.091.023-.187.035-.286.035-.1 0-.195-.012-.287-.035h-9.495c-.187.047-.384.047-.57 0H17.89c-.025.006-.051.012-.077.016l-.21.02c-.099 0-.195-.013-.286-.036l-6.817-.002c-.644 0-1.167.523-1.167 1.167s.523 1.167 1.167 1.167h35c.644 0 1.167-.523 1.167-1.167s-.523-1.167-1.167-1.167zm-26.73-6.927l-.001 4.593h5.822l-5.822-4.593zm18.127.049l-5.575 4.544h5.577l-.002-4.544z" transform="translate(-486 -361) translate(313 321) translate(133 40) translate(40)"/>
                    </g>
                </g>
            </g>
        </g>
    </g>
</svg>
