<?xml version="1.0" encoding="utf-8"?>
<svg width="160px" height="160px" viewBox="0 0 160 160" version="1.1" xmlns:xlink="http://www.w3.org/1999/xlink" xmlns="http://www.w3.org/2000/svg">
  <desc>Created with Lunacy</desc>
  <g id="Icon/Percentage" opacity="0.1">
    <path d="M21.1912 2.29373L21.231 10.6591Q21.2321 10.8929 21.1873 11.1224Q21.1425 11.352 21.0536 11.5683Q20.9646 11.7845 20.8349 11.9791Q20.7052 12.1737 20.5398 12.3391Q20.3745 12.5045 20.1799 12.6342Q19.9853 12.7639 19.769 12.8529Q19.5527 12.9419 19.3232 12.9867Q19.0937 13.0315 18.8598 13.0304L18.8578 13.0304Q18.6236 13.0293 18.3942 12.9823Q18.1648 12.9354 17.949 12.8445Q17.7332 12.7535 17.5394 12.6221Q17.3456 12.4906 17.1812 12.3238Q17.0169 12.1569 16.8885 11.9612Q16.76 11.7654 16.6723 11.5482Q16.5847 11.3311 16.5413 11.1009Q16.4978 10.8708 16.5003 10.6367L16.5884 2.27208Q16.5896 2.15969 16.6017 2.04796Q16.6139 1.93623 16.6369 1.82622Q16.6599 1.71621 16.6935 1.60897Q16.7272 1.50174 16.7711 1.3983Q16.8151 1.29486 16.8689 1.1962Q16.9228 1.09755 16.986 1.00462Q17.0492 0.9117 17.1212 0.825394Q17.1932 0.739088 17.2732 0.660224Q17.3533 0.581361 17.4407 0.510694Q17.5281 0.440027 17.622 0.378233Q17.7159 0.316438 17.8153 0.264107Q17.9148 0.211775 18.0189 0.169407Q18.123 0.127039 18.2307 0.0950387Q18.3385 0.0630387 18.4488 0.0417129Q18.5592 0.0203871 18.6711 0.00993939Q18.783 -0.000508356 18.8954 2.18153e-05L18.8973 3.12328e-05Q19.0099 0.00056211 19.1218 0.0120547Q19.2338 0.0235472 19.3441 0.045892Q19.4544 0.0682369 19.562 0.101221Q19.6696 0.134206 19.7734 0.177516Q19.8773 0.220827 19.9765 0.274051Q20.0756 0.327275 20.1691 0.389907Q20.2626 0.452539 20.3496 0.523982Q20.4365 0.595425 20.5161 0.674999Q20.5957 0.754574 20.6671 0.841524Q20.7386 0.928473 20.8012 1.02197Q20.8639 1.11547 20.9171 1.21462Q20.9703 1.31377 21.0136 1.41764Q21.0569 1.52151 21.0899 1.62911Q21.1229 1.7367 21.1453 1.847Q21.1676 1.95729 21.1791 2.06924Q21.1906 2.18119 21.1912 2.29373ZM4.73415 8.39605L6.27522 12.6221Q6.35547 12.8421 6.39013 13.0738Q6.4248 13.3054 6.41249 13.5393Q6.40018 13.7732 6.34139 13.9999Q6.28261 14.2267 6.17971 14.4371Q6.07681 14.6475 5.93396 14.8331Q5.7911 15.0187 5.61404 15.172Q5.43699 15.3254 5.23286 15.4403Q5.02874 15.5551 4.80579 15.6269L4.80388 15.6275Q4.68956 15.6643 4.57224 15.69Q4.45493 15.7157 4.33569 15.7301Q4.21645 15.7445 4.09639 15.7473Q3.97632 15.7502 3.85653 15.7416Q3.73674 15.733 3.61832 15.713Q3.4999 15.693 3.38393 15.6617Q3.26797 15.6305 3.15553 15.5883Q3.04309 15.5461 2.9352 15.4933Q2.82731 15.4406 2.72496 15.3777Q2.62261 15.3149 2.52673 15.2426Q2.43086 15.1702 2.34235 15.089Q2.25384 15.0079 2.17349 14.9186Q2.09315 14.8293 2.02171 14.7328Q1.95028 14.6362 1.8884 14.5333Q1.82652 14.4304 1.77477 14.322Q1.72303 14.2136 1.68188 14.1008L0.140811 9.87475Q0.0605673 9.6547 0.0259012 9.42306Q-0.00876491 9.19142 0.00354397 8.95752Q0.0158528 8.72362 0.0746405 8.49689Q0.133428 8.27016 0.236324 8.05975Q0.339221 7.84934 0.482078 7.66373Q0.624934 7.47811 0.801992 7.32478Q0.97905 7.17145 1.18317 7.05658Q1.38729 6.9417 1.61025 6.86993L1.61215 6.86931Q1.72647 6.83251 1.84379 6.80681Q1.96111 6.7811 2.08035 6.76674Q2.19958 6.75238 2.31965 6.74948Q2.43972 6.74659 2.55951 6.75519Q2.6793 6.76379 2.79772 6.78381Q2.91614 6.80383 3.0321 6.83508Q3.14806 6.86633 3.26051 6.90854Q3.37295 6.95074 3.48084 7.0035Q3.58873 7.05626 3.69108 7.1191Q3.79343 7.18193 3.8893 7.25427Q3.98517 7.32661 4.07368 7.40779Q4.1622 7.48896 4.24254 7.57823Q4.32289 7.6675 4.39432 7.76405Q4.46576 7.86059 4.52764 7.96352Q4.58951 8.06646 4.64126 8.17484Q4.69301 8.28322 4.73415 8.39605ZM31.5556 12.6378L33.0966 8.41175Q33.1378 8.29891 33.1895 8.19053Q33.2413 8.08215 33.3032 7.97922Q33.365 7.87629 33.4365 7.77974Q33.5079 7.6832 33.5883 7.59393Q33.6686 7.50466 33.7571 7.42348Q33.8456 7.34231 33.9415 7.26997Q34.0374 7.19763 34.1397 7.13479Q34.2421 7.07195 34.35 7.01919Q34.4579 6.96643 34.5703 6.92423Q34.6827 6.88203 34.7987 6.85078Q34.9147 6.81952 35.0331 6.7995Q35.1515 6.77949 35.2713 6.77088Q35.3911 6.76228 35.5112 6.76518Q35.6312 6.76807 35.7505 6.78243Q35.8697 6.7968 35.987 6.8225Q36.1043 6.8482 36.2187 6.88501L36.2206 6.88562Q36.4435 6.9574 36.6476 7.07227Q36.8517 7.18714 37.0288 7.34048Q37.2059 7.49381 37.3487 7.67942Q37.4916 7.86504 37.5945 8.07545Q37.6974 8.28586 37.7562 8.51259Q37.8149 8.73931 37.8273 8.97321Q37.8396 9.20711 37.8049 9.43876Q37.7702 9.6704 37.69 9.89045L36.1489 14.1165Q36.1078 14.2293 36.056 14.3377Q36.0043 14.4461 35.9424 14.549Q35.8805 14.6519 35.8091 14.7485Q35.7377 14.845 35.6573 14.9343Q35.577 15.0236 35.4885 15.1047Q35.3999 15.1859 35.3041 15.2583Q35.2082 15.3306 35.1058 15.3934Q35.0035 15.4563 34.8956 15.509Q34.7877 15.5618 34.6753 15.604Q34.5628 15.6462 34.4469 15.6774Q34.3309 15.7087 34.2125 15.7287Q34.0941 15.7487 33.9743 15.7573Q33.8545 15.7659 33.7344 15.763Q33.6144 15.7601 33.4951 15.7458Q33.3759 15.7314 33.2586 15.7057Q33.1412 15.68 33.0269 15.6432L33.025 15.6426Q32.8021 15.5708 32.5979 15.4559Q32.3938 15.3411 32.2168 15.1877Q32.0397 15.0344 31.8968 14.8488Q31.754 14.6632 31.6511 14.4528Q31.5482 14.2424 31.4894 14.0156Q31.4306 13.7889 31.4183 13.555Q31.406 13.3211 31.4407 13.0895Q31.4753 12.8578 31.5556 12.6378Z" transform="translate(61.585236 1.0393187)" id="Combined-Shape" fill="#78757A" fill-rule="evenodd" stroke="none" />
    <path d="M70.826 0L58.5344 0C51.8282 0 45.9326 4.39269 44.0819 10.7684L15.4238 109.494C15.1735 110.357 15.0873 111.219 15.1439 112.052L11.2941 112.052C5.05655 112.052 0 116.965 0 123.026C0 129.087 5.05655 134 11.2941 134L116.706 134C122.943 134 128 129.087 128 123.026C128 116.965 122.943 112.052 116.706 112.052L112.856 112.052C112.911 111.248 112.832 110.417 112.602 109.585L85.3297 10.9494C83.542 4.48379 77.6027 0 70.826 0ZM70.826 7.43642C73.9063 7.43642 76.6406 9.28923 77.7838 12.0549L78.0778 12.9111L79.6184 18.4828L49.6645 18.4828L51.3081 12.8206C52.1494 9.92257 54.662 7.84395 57.6312 7.48997L58.5344 7.43642L70.826 7.43642ZM47.6526 25.4138L22.6501 111.546L105.35 111.546L81.5348 25.4138L47.6526 25.4138ZM11.2941 119.368L116.706 119.368L117.383 119.427C119.139 119.736 120.471 121.23 120.471 123.026C120.471 125.046 118.785 126.684 116.706 126.684L11.2941 126.684L10.6174 126.625C8.86118 126.315 7.52941 124.822 7.52941 123.026C7.52941 121.006 9.21493 119.368 11.2941 119.368Z" transform="translate(16 26)" id="Combined-Shape" fill="#78757A" fill-rule="evenodd" stroke="none" />
  </g>
</svg>