<?xml version="1.0" encoding="utf-8"?>
<svg width="160px" height="160px" viewBox="0 0 160 160" version="1.1" xmlns:xlink="http://www.w3.org/1999/xlink" xmlns="http://www.w3.org/2000/svg">
  <desc>Created with Lunacy</desc>
  <g id="Icon/Percentage" opacity="0.1">
    <path d="M60.4938 1.19329C62.0654 -0.389706 64.6228 -0.398904 66.2058 1.17275C67.667 2.6235 67.7872 4.91414 66.561 6.50303L66.2263 6.88474L26.5905 46.8067C25.1495 48.2582 22.8773 48.3878 21.288 47.183L20.9058 46.854L1.22052 27.6761C-0.377265 26.1195 -0.410643 23.5623 1.14597 21.9645C2.58284 20.4897 4.87224 20.3478 6.47266 21.559L6.85752 21.89L23.6737 38.2737L60.4938 1.19329Z" transform="translate(46 56)" id="Path-25" fill="#78757A" stroke="none" />
    <path d="M0 70C0 31.3401 31.3401 0 70 0C108.66 0 140 31.3401 140 70C140 108.66 108.66 140 70 140C31.3401 140 0 108.66 0 70ZM132.632 70C132.632 35.4095 104.59 7.36842 70 7.36842C35.4095 7.36842 7.36842 35.4095 7.36842 70C7.36842 104.59 35.4095 132.632 70 132.632C104.59 132.632 132.632 104.59 132.632 70Z" transform="translate(10 10)" id="Oval" fill="#78757A" fill-rule="evenodd" stroke="none" />
  </g>
</svg>