<?xml version="1.0" encoding="UTF-8"?>
<svg width="42px" height="40px" viewBox="0 0 42 40" version="1.1" xmlns="http://www.w3.org/2000/svg" xmlns:xlink="http://www.w3.org/1999/xlink">
    <title>8AD09872-1C79-4502-857B-8158CFE78DB1</title>
    <g id="🖥-Design---Buildr" stroke="none" stroke-width="1" fill="none" fill-rule="evenodd">
        <g id="Wallet-/-Swap-/-Default" transform="translate(-492.000000, -371.000000)" fill="#E5E5E5">
            <g id="Icon/Arrow-Left(Bold)" transform="translate(492.615385, 371.000000)">
                <path d="M25.3683694,9.22906743 L25.5307959,9.3677151 L34.5717846,18.1073376 C35.1933087,18.7081442 35.2411183,19.6535293 34.7152133,20.307348 L34.5717846,20.4643602 L25.5307959,29.2039827 C24.8574781,29.8548565 23.7658144,29.8548565 23.0924966,29.2039827 C22.4709726,28.6031761 22.423163,27.657791 22.949068,27.0039723 L23.0924966,26.8469601 L29.5896552,20.565 L6.89655172,20.5662752 C5.94433664,20.5662752 5.17241379,19.8200831 5.17241379,18.8996085 C5.17241379,18.0448821 5.83800033,17.3404299 6.69548082,17.2441547 L6.89655172,17.2329418 L28.7896552,17.2316667 L23.0924966,11.7247377 C22.4191789,11.0738639 22.4191789,10.0185889 23.0924966,9.3677151 C23.7140207,8.7669085 24.6920053,8.72069261 25.3683694,9.22906743 Z" id="Combined-Shape"></path>
            </g>
        </g>
    </g>
</svg>