<?xml version="1.0" encoding="utf-8"?>
<svg width="160px" height="160px" viewBox="0 0 160 160" version="1.1" xmlns:xlink="http://www.w3.org/1999/xlink" xmlns="http://www.w3.org/2000/svg">
  <desc>Created with Lunacy</desc>
  <g id="Icon/Percentage" opacity="0.1">
    <path d="M99.8634 0.52037C97.8748 -0.518448 95.4725 0.0504608 94.1423 1.76089L93.6967 2.4549L80.7708 27.1979C79.6021 29.435 80.4682 32.1959 82.7053 33.3646C84.6938 34.4034 87.0962 33.8345 88.4263 32.1241L88.8719 31.4301L101.798 6.68701C102.967 4.44995 102.1 1.68903 99.8634 0.52037ZM100.979 51.9344C99.3924 50.348 99.2161 47.8855 100.45 46.1044L100.979 45.4715L121.016 25.4342C122.801 23.6495 125.694 23.6495 127.479 25.4342C129.065 27.0206 129.242 29.4831 128.008 31.2642L127.479 31.8972L107.442 51.9344C105.657 53.7191 102.763 53.7191 100.979 51.9344ZM7.59816 144.961C11.2784 146.795 15.5875 146.88 19.3375 145.194L108.726 104.983C115.631 101.877 118.711 93.7611 115.604 86.8557C114.923 85.34 113.971 83.9609 112.796 82.7857L66.5105 36.5006C61.1564 31.1465 52.4757 31.1465 47.1216 36.5006C46.0752 37.5469 45.2052 38.7558 44.5452 40.0802L1.44222 126.575C-1.93494 133.352 0.821171 141.584 7.59816 144.961ZM25.9321 97.9239L52.7258 44.1568C52.9458 43.7153 53.2358 43.3123 53.5845 42.9636C55.3692 41.1789 58.2628 41.1789 60.0475 42.9636L106.333 89.2487C106.724 89.6404 107.042 90.1001 107.269 90.6053C108.304 92.9071 107.278 95.6125 104.976 96.6479L48.5019 122.052L25.9321 97.9239ZM21.5821 106.653L9.62278 130.652C8.49706 132.911 9.41576 135.655 11.6748 136.781C12.9015 137.392 14.3379 137.42 15.5879 136.858L39.693 126.015L21.5821 106.653ZM151.152 58.7709C152.863 57.4408 153.432 55.0384 152.393 53.0498C151.224 50.8128 148.463 49.9466 146.226 51.1153L121.483 64.0413L120.789 64.4869C119.079 65.817 118.51 68.2194 119.549 70.2079C120.717 72.445 123.478 73.3111 125.715 72.1424L150.458 59.2165L151.152 58.7709Z" transform="translate(4 7)" id="Combined-Shape" fill="#78757A" fill-rule="evenodd" stroke="none" />
  </g>
</svg>