<?xml version="1.0" encoding="utf-8"?>
<svg width="40px" height="40px" viewBox="0 0 40 40" version="1.1" xmlns:xlink="http://www.w3.org/1999/xlink" xmlns="http://www.w3.org/2000/svg">
  <desc>Created with Lunacy</desc>
  <g id="Logo/Trezoe">
    <path d="M31.5125 4.76606C24.9883 -1.58869 14.4104 -1.58869 7.88615 4.76606L7.02432 5.6055C6.69811 5.92324 6.69811 6.43839 7.02432 6.75613L9.71034 9.37237C9.87345 9.53124 10.1379 9.53124 10.301 9.37237L11.4582 8.24527C16.0096 3.81204 23.389 3.81204 27.9405 8.24527L29.021 9.29774C29.1841 9.4566 29.4486 9.4566 29.6117 9.29774L32.2977 6.68149C32.6239 6.36376 32.6239 5.8486 32.2977 5.53086L31.5125 4.76606ZM39.7554 12.8181L37.3652 10.4155C37.0391 10.0877 36.5103 10.0877 36.1841 10.4155L28.535 18.1043C28.4534 18.1863 28.3212 18.1863 28.2397 18.1043L20.5904 10.4154C20.2643 10.0875 19.7355 10.0875 19.4093 10.4154L11.7604 18.1044C11.6789 18.1863 11.5467 18.1863 11.4652 18.1044L3.8159 10.4154C3.48975 10.0875 2.96094 10.0875 2.63478 10.4154L0.244618 12.818C-0.0815392 13.1458 -0.0815392 13.6774 0.244618 14.0052L11.0223 24.8389C11.3485 25.1667 11.8773 25.1667 12.2034 24.8389L19.8524 17.15C19.934 17.068 20.0662 17.068 20.1477 17.15L27.7969 24.8389C28.123 25.1667 28.6518 25.1667 28.978 24.8389L39.7554 14.0053C40.0815 13.6775 40.0815 13.146 39.7554 12.8181Z" transform="translate(0 7.3333335)" id="WalletConnect" fill="#3B99FC" fill-rule="evenodd" stroke="none" />
  </g>
</svg>