<?xml version="1.0" encoding="utf-8"?>
<svg width="24px" height="24px" viewBox="0 0 24 24" version="1.1" xmlns:xlink="http://www.w3.org/1999/xlink" xmlns="http://www.w3.org/2000/svg">
  <desc>Created with Lunacy</desc>
  <g id="Icon/Arrow-Left">
    <path d="M15.5 0C16.2797 0 16.9204 0.594888 16.9931 1.35554L17 1.5L17 15.5C17 16.3284 16.3284 17 15.5 17L1.5 17C0.671573 17 0 16.3284 0 15.5L0 3.5C0 2.67157 0.671573 2 1.5 2L3 2L3 1.5C3 0.720304 3.59489 0.0795513 4.35554 0.00686658L4.5 0L15.5 0ZM16 1.5L16 2.08535C15.8436 2.03008 15.6753 2 15.5 2L4 2L4 1.5L4.00806 1.41012C4.05039 1.17688 4.25454 1 4.5 1L15.5 1L15.5899 1.00806C15.8231 1.05039 16 1.25454 16 1.5ZM1.5 3L15.5 3C15.7761 3 16 3.22386 16 3.5L16 15.5C16 15.7761 15.7761 16 15.5 16L1.5 16C1.22386 16 1 15.7761 1 15.5L1 11L6.5 11L6.64446 10.9931C7.40511 10.9204 8 10.2797 8 9.5L8 8.5L7.99313 8.35554C7.92045 7.59489 7.2797 7 6.5 7L1 7L1 3.5C1 3.22386 1.22386 3 1.5 3ZM1 8L1 10L6.5 10C6.74546 10 6.94961 9.82312 6.99194 9.58988L7 9.5L7 8.5C7 8.25454 6.82312 8.05039 6.58988 8.00806L6.5 8L1 8Z" transform="translate(3.5 3.5)" id="Combined-Shape" fill="#78757A" fill-rule="evenodd" stroke="none" />
  </g>
</svg>