<svg width="40" height="40" viewBox="0 0 40 40" fill="none" xmlns="http://www.w3.org/2000/svg">
<circle cx="20" cy="20" r="19.5" stroke="white"/>
<path fill-rule="evenodd" clip-rule="evenodd" d="M13 11H27C28.1046 11 29 11.8954 29 13V27C29 28.1046 28.1046 29 27 29H13C11.8954 29 11 28.1046 11 27V13C11 11.8954 11.8954 11 13 11ZM28 13C28 12.4477 27.5523 12 27 12H13C12.4477 12 12 12.4477 12 13V27C12 27.5523 12.4477 28 13 28H27C27.5523 28 28 27.5523 28 27V13ZM25.8716 17.5C26.1171 17.5 26.3212 17.6769 26.3636 17.9101L26.3716 18V21.0462C26.3716 21.3224 26.1478 21.5462 25.8716 21.5462C25.6262 21.5462 25.422 21.3693 25.3797 21.1361L25.3716 21.0462L25.3712 19.4314L21.7261 23.1929C21.5694 23.3497 21.3317 23.3822 21.1414 23.2828L21.0631 23.2321L16.694 19.789L14.3536 22.1299C14.18 22.3034 13.9106 22.3227 13.7157 22.1877L13.6464 22.1299C13.4729 21.9563 13.4536 21.6869 13.5886 21.492L13.6464 21.4228L16.3012 18.768C16.458 18.6112 16.6957 18.5788 16.886 18.6782L16.9642 18.7289L21.333 22.171L24.8829 18.4992L23 18.5C22.7545 18.5 22.5504 18.3231 22.5081 18.0899L22.5 18C22.5 17.7545 22.6769 17.5504 22.9101 17.5081L23 17.5H25.8716Z" fill="white"/>
</svg>
