<svg width="40" height="40" viewBox="0 0 40 40" fill="none" xmlns="http://www.w3.org/2000/svg">
<circle cx="20" cy="20" r="19.5" stroke="white"/>
<path fill-rule="evenodd" clip-rule="evenodd" d="M13 10H27C28.1046 10 29 10.8954 29 12V28C29 29.1046 28.1046 30 27 30H13C11.8954 30 11 29.1046 11 28V12C11 10.8954 11.8954 10 13 10ZM28 12C28 11.4477 27.5523 11 27 11H13C12.4477 11 12 11.4477 12 12V28C12 28.5523 12.4477 29 13 29H27C27.5523 29 28 28.5523 28 28V12ZM25 20.5C25 20.2239 24.7761 20 24.5 20H15.5L15.4101 20.0081C15.1769 20.0504 15 20.2545 15 20.5C15 20.7761 15.2239 21 15.5 21H24.5L24.5899 20.9919C24.8231 20.9496 25 20.7455 25 20.5ZM25 17.5C25 17.2239 24.7761 17 24.5 17H15.5L15.4101 17.0081C15.1769 17.0504 15 17.2545 15 17.5C15 17.7761 15.2239 18 15.5 18H24.5L24.5899 17.9919C24.8231 17.9496 25 17.7455 25 17.5ZM25 14.5C25 14.2239 24.7761 14 24.5 14H15.5L15.4101 14.0081C15.1769 14.0504 15 14.2545 15 14.5C15 14.7761 15.2239 15 15.5 15H24.5L24.5899 14.9919C24.8231 14.9496 25 14.7455 25 14.5Z" fill="white"/>
</svg>
