<?xml version="1.0" encoding="utf-8"?>
<svg width="24px" height="21px" viewBox="0 0 24 21" version="1.1" xmlns:xlink="http://www.w3.org/1999/xlink" xmlns="http://www.w3.org/2000/svg">
  <desc>Created with Lunacy</desc>
  <g id="medium-icon">
    <path d="M22.1842 18.4458L24 20.2638L24 20.3241L14.79 20.3241L14.79 20.2638L16.6388 18.4458C16.836 18.2774 16.9305 18.0102 16.8851 17.7477L16.8851 6.12578C16.8851 5.63461 16.8851 4.97078 16.9676 4.403L10.755 20.5567L10.6811 20.5567L4.248 5.69489L3.97687 5.04856L3.97687 14.7933C3.8998 15.4451 4.00538 16.1061 4.281 16.6973L6.86925 20.2642L6.86925 20.3245L0 20.3245L0 20.2642L2.58825 16.6888C2.862 16.1008 2.96325 15.4428 2.892 14.7933L2.892 4.02344C2.934 3.493 2.78137 2.96567 2.4645 2.55033L0.632625 0.0602778L0.632625 0L7.20563 0L12.7106 12.5876L17.5583 0L23.9918 0L23.9918 0.0602778L22.1842 2.17117C21.9675 2.33722 21.8595 2.61761 21.9049 2.8945L21.9049 17.7477C21.8565 18.0173 21.966 18.291 22.1842 18.4458Z" id="Path" fill="#FFFFFF" stroke="none" />
  </g>
</svg>