<?xml version="1.0" encoding="utf-8"?>
<svg width="24px" height="20px" viewBox="0 0 24 20" version="1.1" xmlns:xlink="http://www.w3.org/1999/xlink" xmlns="http://www.w3.org/2000/svg">
  <desc>Created with Lunacy</desc>
  <g id="twitter-official">
    <path d="M7.54753 19.9056C16.6042 19.9056 21.5577 12.2466 21.5577 5.60489C21.5577 5.38728 21.5577 5.17072 21.5434 4.95417C22.507 4.24299 23.3388 3.36239 24 2.35359C23.1013 2.76007 22.148 3.02664 21.1718 3.14441C22.1997 2.51629 22.9691 1.52837 23.3366 0.364502C22.37 0.949928 21.3126 1.3625 20.2099 1.58441C18.6835 -0.0721782 16.2583 -0.47761 14.294 0.595451C12.3297 1.66851 11.3149 3.95321 11.8186 6.16843C7.85944 5.96581 4.17072 4.057 1.67044 0.917038C0.363516 3.21355 1.03102 6.15149 3.19481 7.62642C2.41123 7.6027 1.64473 7.38693 0.96 6.99733L0.96 7.06096C0.960616 9.45352 2.61289 11.5142 4.91044 11.9879C4.18551 12.1897 3.4249 12.2192 2.68706 12.0742C3.33212 14.1216 5.18072 15.5242 7.28738 15.5646C5.54376 16.9634 3.38982 17.7227 1.17216 17.7204C0.780385 17.7196 0.388994 17.6954 0 17.6479C2.25181 19.1229 4.87192 19.9053 7.54753 19.9016" id="Path" fill="#FFFFFF" stroke="none" />
  </g>
</svg>